<svg 
 xmlns="http://www.w3.org/2000/svg"
 xmlns:xlink="http://www.w3.org/1999/xlink"
 width="410px" height="194px">
<path fill-rule="evenodd"  opacity="0.702" fill="rgb(130, 130, 130)"
 d="M409.449,192.432 C408.852,192.508 408.255,192.651 407.658,192.652 C394.729,192.690 381.800,192.707 368.870,192.740 C356.545,192.772 344.219,192.831 331.894,192.854 C324.918,192.867 317.941,192.818 310.965,192.820 C298.174,192.825 285.383,192.834 272.592,192.863 C244.299,192.926 198.516,193.044 207.368,193.037 C182.019,193.058 153.934,193.067 128.585,193.097 C114.166,193.113 99.748,193.158 85.330,193.192 C77.283,193.211 69.237,193.257 61.191,193.253 C48.121,193.249 35.051,193.223 21.982,193.187 C15.982,193.171 9.982,193.124 3.983,193.058 C2.968,193.046 1.954,192.865 0.939,192.763 C0.939,192.542 0.939,192.321 0.939,192.100 C1.740,191.847 2.541,191.594 3.537,191.280 C3.537,189.650 3.528,187.894 3.539,186.137 C3.550,184.316 3.553,182.493 3.607,180.673 C3.655,179.064 3.775,178.902 5.136,178.718 C6.056,178.594 6.990,178.594 7.918,178.564 C8.755,178.537 9.593,178.544 10.430,178.536 C10.999,178.530 11.285,178.194 11.281,177.512 C11.277,176.850 11.275,176.187 11.275,175.524 C11.277,164.812 11.280,154.098 11.282,143.386 C11.282,143.109 11.286,142.833 11.284,142.557 C11.280,141.739 11.544,141.132 12.277,141.034 C13.043,140.931 13.512,140.393 13.963,139.723 C15.125,137.999 16.297,136.282 17.514,134.612 C18.007,133.936 18.188,133.235 18.174,132.360 C18.138,130.152 18.157,127.942 18.165,125.734 C18.167,125.016 18.178,124.297 18.227,123.582 C18.341,121.907 18.725,121.394 20.105,121.325 C21.451,121.259 22.801,121.341 24.150,121.344 C25.960,121.349 27.770,121.344 29.581,121.336 C32.232,121.325 34.883,121.307 37.534,121.293 C38.088,121.290 38.641,121.292 39.380,121.292 C39.392,120.478 39.412,119.784 39.412,119.090 C39.413,97.995 39.411,76.901 39.414,55.806 C39.416,46.474 39.429,37.141 39.437,27.809 C39.437,27.478 39.428,27.146 39.440,26.815 C39.498,25.265 39.811,24.827 41.088,24.748 C42.852,24.639 44.619,24.558 46.386,24.548 C51.037,24.521 55.689,24.536 60.341,24.540 C62.961,24.542 63.191,24.782 63.201,27.945 C63.280,52.847 63.347,77.750 63.416,102.653 C63.418,103.364 63.417,104.075 63.417,104.912 C63.847,104.955 64.198,105.020 64.548,105.021 C70.223,105.050 75.898,105.067 81.572,105.097 C82.700,105.103 82.858,105.262 82.876,106.628 C82.922,110.271 82.929,113.914 82.959,117.557 C82.963,118.040 83.011,118.522 83.044,119.105 C83.985,119.105 84.840,119.105 85.841,119.105 C85.874,118.390 85.929,117.751 85.929,117.111 C85.934,98.170 85.932,79.229 85.938,60.288 C85.938,59.407 85.962,58.518 86.063,57.646 C86.186,56.581 86.411,56.388 87.330,56.267 C87.422,56.255 87.516,56.254 87.609,56.247 C89.143,56.132 89.439,56.241 89.411,54.035 C89.395,52.722 89.506,52.632 90.625,52.641 C95.741,52.684 100.857,52.759 105.973,52.806 C107.973,52.825 109.974,52.794 111.974,52.804 C113.864,52.813 114.054,53.028 114.339,55.320 C114.359,55.479 114.422,55.631 114.498,55.911 C114.912,55.988 115.360,56.081 115.811,56.154 C117.101,56.362 117.261,56.556 117.315,58.159 C117.350,59.207 117.352,60.257 117.357,61.305 C117.398,71.465 117.436,81.624 117.476,91.784 C117.492,95.594 117.510,99.403 117.533,103.213 C117.536,103.642 117.574,104.072 117.605,104.659 C118.407,104.659 119.138,104.639 119.869,104.664 C120.790,104.695 121.024,104.908 121.157,105.971 C121.245,106.677 121.238,107.402 121.240,108.119 C121.254,112.757 121.259,117.396 121.266,122.034 C121.267,122.634 121.266,123.234 121.266,124.011 C121.809,124.064 122.253,124.135 122.697,124.145 C123.953,124.172 125.211,124.122 126.464,124.201 C127.590,124.272 127.950,124.688 128.082,126.013 C128.175,126.942 128.142,127.887 128.177,128.824 C128.199,129.420 128.241,130.014 128.282,130.751 C129.738,130.751 131.112,130.751 132.662,130.751 C132.677,130.284 132.710,129.755 132.710,129.226 C132.712,117.022 132.710,104.818 132.709,92.614 C132.709,92.394 132.696,92.173 132.701,91.952 C132.740,90.238 133.065,89.831 134.554,89.820 C140.182,89.781 145.810,89.764 151.438,89.742 C151.763,89.741 152.091,89.748 152.414,89.791 C153.328,89.909 153.747,90.290 153.949,91.383 C154.088,92.129 154.125,92.913 154.126,93.680 C154.136,105.387 154.133,117.094 154.133,128.801 C154.133,129.451 154.133,130.101 154.133,130.826 C155.181,130.826 156.086,130.826 157.177,130.826 C157.177,126.335 157.177,121.949 157.177,117.766 C157.856,116.921 158.515,116.944 159.162,116.943 C161.348,116.938 163.535,116.941 165.721,116.940 C166.174,116.940 166.627,116.940 167.201,116.940 C167.232,116.175 167.275,115.584 167.276,114.993 C167.281,109.637 167.277,104.280 167.278,98.924 C167.278,98.537 167.264,98.149 167.291,97.765 C167.385,96.442 167.890,95.723 168.997,95.551 C169.822,95.423 170.667,95.479 171.502,95.441 C171.770,95.429 172.036,95.380 172.463,95.328 C172.463,94.605 172.463,93.959 172.463,93.312 C172.463,84.256 172.451,75.199 172.466,66.143 C172.486,53.443 172.523,40.743 172.563,28.043 C172.566,27.008 172.642,25.974 172.692,24.758 C173.909,24.594 175.000,24.447 176.137,24.295 C176.635,23.479 176.457,22.507 176.513,21.598 C176.624,19.785 176.827,19.507 178.364,19.497 C183.108,19.468 187.852,19.451 192.596,19.451 C194.002,19.451 194.290,19.809 194.344,21.502 C194.370,22.324 194.349,23.149 194.349,24.199 C195.006,24.267 195.577,24.357 196.150,24.379 C197.491,24.432 197.691,24.635 197.696,26.221 C197.713,31.135 197.720,36.049 197.723,40.964 C197.740,68.906 197.755,96.848 197.771,124.790 C197.771,125.386 197.771,125.982 197.771,126.671 C199.303,126.671 200.708,126.671 202.245,126.671 C202.296,125.516 202.365,124.482 202.381,123.446 C202.412,121.569 202.373,119.690 202.435,117.815 C202.489,116.214 202.783,115.905 204.145,115.898 C207.588,115.879 211.030,115.892 214.472,115.894 C214.658,115.894 214.845,115.906 215.030,115.930 C216.463,116.112 216.712,116.377 216.726,118.084 C216.757,122.005 216.746,125.925 216.751,129.846 C216.752,130.444 216.751,131.042 216.751,131.596 C217.927,131.968 232.135,132.105 235.221,131.812 C235.510,130.673 235.581,123.464 235.299,121.135 C234.832,121.135 234.336,121.138 233.840,121.135 C229.747,121.106 225.654,121.077 221.562,121.042 C221.238,121.040 220.914,121.001 220.591,120.967 C220.058,120.910 219.732,120.588 219.684,119.932 C219.635,119.274 219.550,118.615 219.551,117.957 C219.553,111.165 219.569,104.373 219.582,97.581 C219.582,97.470 219.580,97.360 219.583,97.250 C219.626,95.553 219.784,95.352 221.206,95.351 C225.392,95.347 229.579,95.356 233.765,95.360 C234.269,95.361 234.773,95.360 235.375,95.360 C235.405,94.707 235.450,94.174 235.451,93.642 C235.468,85.635 235.464,77.628 235.496,69.622 C235.538,58.800 235.604,32.562 235.669,21.740 C235.675,20.753 235.741,19.766 235.786,18.593 C238.903,18.346 241.953,18.441 244.999,18.432 C248.069,18.423 260.775,18.449 263.844,18.467 C266.899,18.485 269.954,18.512 273.208,18.537 C273.506,51.241 273.405,99.154 273.435,131.772 C275.607,131.772 277.672,131.772 279.934,131.772 C279.934,131.168 279.935,130.582 279.934,129.996 C279.927,125.799 279.909,121.603 279.915,117.406 C279.920,114.065 280.139,113.791 282.890,113.743 C286.657,113.677 290.424,113.641 294.191,113.597 C295.026,113.587 295.862,113.595 296.817,113.595 C296.817,107.731 296.817,101.975 296.817,96.070 C295.927,95.958 295.059,95.852 294.191,95.740 C293.121,95.602 293.035,95.535 292.860,94.279 C292.769,93.629 292.736,92.961 292.734,92.300 C292.724,88.159 292.727,84.017 292.732,79.875 C292.732,79.434 292.752,78.991 292.793,78.553 C292.856,77.860 293.180,77.438 293.780,77.389 C294.615,77.320 295.451,77.231 296.286,77.230 C306.474,77.219 316.661,77.223 326.849,77.223 C327.082,77.223 327.315,77.213 327.547,77.229 C328.987,77.328 329.292,77.632 329.299,79.296 C329.318,84.156 329.309,89.015 329.283,93.874 C329.275,95.407 328.897,95.858 327.630,95.935 C326.754,95.989 325.874,95.946 324.843,95.946 C324.780,96.794 324.684,97.480 324.684,98.167 C324.693,106.780 324.716,115.394 324.733,124.008 C324.739,126.545 324.734,129.081 324.734,131.802 C326.099,131.958 327.370,131.926 328.778,131.808 C328.808,130.449 328.830,129.143 328.867,127.836 C328.899,126.733 328.920,125.628 328.996,124.528 C329.092,123.152 329.295,122.896 330.436,122.818 C331.736,122.730 333.039,122.731 334.341,122.679 C334.750,122.663 335.159,122.604 335.760,122.546 C335.760,121.874 335.760,121.287 335.760,120.700 C335.760,115.896 335.743,111.091 335.771,106.287 C335.779,104.919 335.915,103.552 335.988,102.278 C336.910,101.542 337.813,101.657 338.682,101.652 C342.776,101.625 346.869,101.627 350.963,101.619 C351.463,101.618 351.963,101.619 352.642,101.619 C352.660,81.380 352.600,61.313 352.687,41.074 C356.204,40.966 359.533,40.864 363.015,40.758 C363.035,39.974 363.068,39.330 363.065,38.687 C363.019,27.423 362.966,16.160 362.926,4.896 C362.923,4.072 363.043,3.248 363.053,2.423 C363.064,1.514 363.537,1.149 364.177,1.010 C364.631,0.911 365.101,0.895 365.564,0.894 C370.728,0.874 375.891,0.863 381.055,0.855 C382.473,0.853 382.664,1.039 382.717,2.728 C382.788,5.044 382.838,7.363 382.841,9.681 C382.854,19.345 382.847,29.009 382.847,38.672 C382.847,39.325 382.847,39.978 382.847,40.758 C383.578,40.815 384.171,40.892 384.765,40.901 C386.672,40.932 388.579,40.921 390.486,40.958 C391.655,40.981 391.727,41.045 391.946,42.398 C392.076,43.206 392.158,44.037 392.170,44.859 C392.252,50.544 392.358,56.230 392.366,61.916 C392.396,82.292 392.390,102.669 392.398,123.046 C392.398,124.690 392.398,126.334 392.398,128.151 C393.705,128.208 394.898,128.261 396.090,128.311 C396.416,128.324 396.741,128.332 397.067,128.336 C397.809,128.345 398.172,128.834 398.219,129.668 C398.267,130.494 398.301,131.322 398.303,132.149 C398.329,141.205 398.347,150.261 398.367,159.317 C398.368,159.908 398.367,160.500 398.367,161.262 C399.639,161.262 400.744,161.258 401.849,161.263 C402.593,161.266 403.338,161.260 404.081,161.294 C405.698,161.367 405.835,161.530 405.841,163.411 C405.854,167.718 405.859,172.025 405.866,176.332 C405.867,177.040 405.866,177.748 405.866,178.401 C407.170,178.805 408.309,179.157 409.449,179.509 C409.449,183.816 409.449,188.124 409.449,192.432 ZM11.155,180.242 C9.044,180.242 7.026,180.242 4.942,180.242 C4.942,184.020 4.942,187.633 4.942,191.376 C7.092,191.376 9.108,191.376 11.155,191.376 C11.155,187.545 11.155,183.832 11.155,180.242 ZM13.455,142.476 C13.240,142.476 13.025,142.630 12.836,142.702 C12.544,144.568 12.628,189.957 12.939,191.103 C51.037,191.103 89.158,191.103 127.527,191.103 C127.808,187.859 127.684,184.677 127.708,181.505 C127.733,178.248 127.741,174.991 127.747,171.734 C127.754,168.532 127.742,165.329 127.750,162.127 C127.759,158.870 127.801,155.613 127.792,152.357 C127.784,149.177 127.896,145.993 127.711,142.689 C89.522,142.614 51.488,142.540 13.455,142.476 ZM25.178,123.037 C23.273,123.051 21.505,122.849 19.597,123.239 C19.597,126.346 19.597,129.336 19.597,132.459 C20.663,132.459 21.717,132.463 22.771,132.458 C25.376,132.445 25.176,132.710 25.177,129.624 C25.179,127.495 25.178,125.365 25.178,123.037 ZM39.339,123.266 C37.379,122.884 27.901,122.915 26.662,123.329 C26.715,126.283 26.564,129.283 26.763,132.347 C31.051,132.347 35.158,132.347 39.339,132.347 C39.339,129.285 39.339,126.331 39.339,123.266 ZM61.692,26.422 C54.789,26.422 47.967,26.422 41.163,26.422 C40.848,27.703 40.756,130.174 41.063,132.328 C41.716,132.328 42.380,132.328 43.173,132.328 C43.173,131.518 43.173,130.809 43.173,130.101 C43.173,97.464 43.172,64.827 43.175,32.190 C43.175,31.473 43.177,30.751 43.249,30.042 C43.283,29.707 43.485,29.395 43.606,29.087 C44.286,29.263 44.415,29.771 44.434,30.351 C44.454,30.958 44.458,31.565 44.458,32.173 C44.459,50.894 44.459,69.615 44.459,88.335 C44.459,102.362 44.459,116.389 44.461,130.416 C44.462,131.057 44.493,131.697 44.509,132.321 C45.391,132.321 46.110,132.321 46.889,132.321 C46.912,131.726 46.947,131.239 46.947,130.752 C46.950,98.999 46.949,67.246 46.950,35.492 C46.950,33.891 46.936,32.289 46.968,30.688 C46.980,30.124 46.841,29.436 47.522,29.104 C48.385,29.514 48.147,30.445 48.149,31.209 C48.175,40.486 48.189,49.763 48.194,59.041 C48.200,71.135 48.195,83.229 48.195,95.323 C48.195,107.030 48.194,118.738 48.198,130.445 C48.198,131.081 48.231,131.716 48.248,132.307 C49.156,132.307 49.874,132.307 50.672,132.307 C50.672,131.468 50.672,130.755 50.672,130.041 C50.672,97.404 50.671,64.767 50.674,32.130 C50.674,31.413 50.669,30.690 50.747,29.982 C50.782,29.658 51.015,29.364 51.326,28.696 C51.615,29.493 51.857,29.936 51.928,30.416 C52.017,31.006 51.971,31.626 51.971,32.233 C51.973,60.839 51.972,89.445 51.972,118.051 C51.972,122.248 51.970,126.445 51.976,130.642 C51.976,131.223 52.019,131.803 52.041,132.357 C52.904,132.357 53.589,132.357 54.449,132.357 C54.449,131.690 54.448,131.099 54.449,130.507 C54.461,122.832 54.483,115.156 54.484,107.480 C54.489,83.844 54.486,60.209 54.485,36.573 C54.485,34.640 54.451,32.708 54.477,30.776 C54.484,30.216 54.646,29.658 54.746,29.044 C55.892,29.415 55.662,30.361 55.663,31.124 C55.683,40.457 55.692,49.790 55.693,59.122 C55.697,82.813 55.695,106.504 55.695,130.195 C55.695,130.895 55.695,131.596 55.695,132.343 C56.597,132.343 57.316,132.343 58.185,132.343 C58.185,131.555 58.185,130.850 58.185,130.145 C58.185,97.453 58.185,64.760 58.187,32.068 C58.187,31.351 58.175,30.627 58.256,29.920 C58.292,29.608 58.547,29.332 58.879,28.710 C59.143,29.525 59.367,29.988 59.434,30.480 C59.516,31.073 59.470,31.691 59.470,32.299 C59.471,64.936 59.471,97.573 59.471,130.210 C59.471,130.909 59.471,131.608 59.471,132.344 C60.295,132.344 60.922,132.344 61.692,132.344 C61.692,97.009 61.692,61.764 61.692,26.422 ZM85.669,120.905 C84.372,120.808 83.048,120.709 81.584,120.600 C81.584,116.000 81.584,111.552 81.584,107.170 C80.614,106.782 65.197,106.682 63.472,107.010 C63.472,115.406 63.472,123.820 63.472,132.347 C71.003,132.347 78.377,132.347 85.734,132.347 C86.045,130.639 86.000,122.221 85.669,120.905 ZM113.038,54.164 C105.541,54.164 98.141,54.164 90.676,54.164 C90.643,54.479 90.589,54.742 90.596,55.003 C90.605,55.314 90.666,55.623 90.700,55.902 C92.715,56.285 112.051,56.243 113.038,55.846 C113.038,55.387 113.038,54.902 113.038,54.164 ZM115.920,57.969 C114.863,57.607 89.580,57.495 87.530,57.840 C87.230,60.954 87.364,131.201 87.664,132.349 C97.034,132.349 106.405,132.349 115.920,132.349 C115.920,107.477 115.920,82.714 115.920,57.969 ZM116.618,133.845 C84.856,133.890 53.095,133.880 21.333,133.880 C20.961,133.880 20.569,133.795 20.223,133.907 C19.859,134.025 19.447,134.243 19.214,134.574 C18.204,136.013 17.247,137.507 16.279,138.988 C15.951,139.490 15.646,140.015 15.222,140.707 C51.338,140.707 87.209,140.707 123.439,140.707 C122.979,140.015 122.745,139.623 122.476,139.267 C121.512,137.994 120.472,136.795 119.586,135.451 C118.798,134.256 117.910,133.843 116.618,133.845 ZM132.657,132.453 C131.261,132.453 130.010,132.493 128.763,132.442 C127.379,132.385 126.858,131.723 126.808,130.080 C126.791,129.529 126.815,128.977 126.806,128.425 C126.794,127.620 126.769,126.815 126.749,125.988 C124.525,125.507 122.337,126.338 120.153,125.241 C120.068,123.550 119.923,121.854 119.907,120.156 C119.871,116.127 119.898,112.098 119.892,108.068 C119.892,107.484 119.851,106.900 119.826,106.235 C119.349,106.235 119.026,106.215 118.707,106.240 C118.348,106.268 117.992,106.336 117.587,106.394 C117.587,115.073 117.587,123.664 117.587,132.182 C118.314,132.470 119.018,132.502 119.383,132.936 C121.188,135.081 122.959,137.276 124.621,139.577 C125.229,140.418 125.792,140.801 126.710,140.786 C128.986,140.750 129.067,140.849 129.077,143.572 C129.127,158.475 129.162,173.377 129.193,188.279 C129.195,189.190 129.118,190.100 129.077,191.027 C130.387,191.027 131.574,191.027 132.657,191.027 C132.657,171.471 132.657,152.017 132.657,132.453 ZM152.783,93.152 C152.783,92.613 152.742,92.074 152.721,91.578 C151.573,91.137 136.844,90.965 134.036,91.365 C134.036,92.420 134.036,93.402 134.036,94.384 C134.036,119.666 134.041,144.947 134.032,170.229 C134.030,175.637 133.969,181.046 133.950,186.454 C133.945,187.868 133.996,189.282 134.021,190.662 C134.336,190.748 134.467,190.815 134.598,190.814 C140.271,190.797 145.944,190.783 151.616,190.740 C152.589,190.733 152.742,190.526 152.755,189.365 C152.783,186.937 152.784,184.508 152.784,182.079 C152.786,152.437 152.786,122.794 152.783,93.152 ZM235.395,97.064 C232.289,96.720 221.969,96.869 220.993,97.246 C220.993,104.661 220.993,112.068 220.993,119.439 C225.889,119.439 230.644,119.439 235.395,119.439 C235.395,111.912 235.395,104.538 235.395,97.064 ZM181.910,190.859 C183.711,190.859 185.404,190.859 187.189,190.859 C187.410,188.661 187.665,186.072 187.196,183.811 C185.403,184.002 183.658,183.526 181.910,184.138 C181.910,186.367 181.910,188.872 181.910,190.859 ZM167.122,190.928 C171.533,190.928 175.958,190.928 180.481,190.928 C180.512,190.215 180.550,189.176 180.555,188.636 C180.567,187.422 180.543,186.208 180.571,184.995 C180.615,183.121 180.913,182.635 182.482,182.417 C183.767,182.238 185.083,182.182 186.373,182.286 C188.643,182.468 188.732,182.661 188.735,185.406 C188.736,186.289 188.735,187.171 188.735,188.054 C188.735,188.807 188.735,190.059 188.735,190.893 C193.736,190.893 198.543,190.893 203.453,190.893 C203.453,178.723 203.453,166.279 203.453,154.192 C202.772,154.140 202.182,154.055 201.592,154.056 C194.342,154.061 184.357,154.080 177.107,154.091 C173.528,154.097 172.684,154.080 169.106,154.104 C168.341,154.109 167.577,154.251 166.852,154.326 C166.488,158.280 166.723,189.329 167.122,190.928 ZM172.210,97.034 C171.092,97.062 169.949,96.808 168.688,97.239 C168.688,97.764 168.689,98.249 168.687,98.734 C168.674,103.647 168.677,108.561 168.639,113.474 C168.627,115.003 168.504,116.530 168.422,118.269 C166.702,118.365 165.137,118.488 163.570,118.530 C161.949,118.574 160.326,118.540 158.677,118.540 C158.591,118.947 158.467,119.260 158.467,119.573 C158.459,123.271 158.442,126.970 158.490,130.667 C158.511,132.234 158.487,132.383 157.163,132.444 C156.201,132.489 155.236,132.453 154.232,132.453 C154.232,152.112 154.232,171.558 154.232,191.020 C157.105,191.020 162.613,191.020 165.397,191.020 C165.397,178.761 165.397,166.590 165.397,154.298 C164.634,154.203 163.945,154.137 163.261,154.027 C162.362,153.883 161.980,153.490 161.916,152.476 C161.845,151.378 161.874,150.270 161.872,149.167 C161.870,148.523 162.156,148.113 162.687,148.024 C163.329,147.916 163.979,147.815 164.626,147.810 C167.603,147.788 170.580,147.800 173.557,147.800 C174.061,147.800 171.829,147.800 172.381,147.800 C172.666,144.944 172.497,98.219 172.210,97.034 ZM192.977,21.024 C192.441,20.955 192.033,20.858 191.625,20.856 C187.406,20.834 183.188,20.821 178.969,20.826 C178.533,20.826 178.097,20.959 177.718,21.021 C177.718,22.228 177.718,23.237 177.718,24.331 C182.841,24.331 187.826,24.331 192.977,24.331 C192.977,23.120 192.977,22.113 192.977,21.024 ZM196.125,26.168 C188.718,26.168 181.474,26.168 173.997,26.168 C174.074,66.760 174.150,107.199 174.227,147.669 C181.540,147.669 188.811,147.669 196.246,147.669 C196.246,145.007 196.245,142.473 196.246,139.940 C196.263,102.558 196.281,65.177 196.291,27.795 C196.291,27.276 196.187,26.758 196.125,26.168 ZM163.077,149.610 C163.077,150.560 163.077,151.530 163.077,152.670 C163.686,152.670 164.233,152.670 164.780,152.670 C177.662,152.662 190.543,152.653 203.425,152.648 C205.930,152.647 205.930,152.656 205.657,149.475 C204.382,149.179 163.927,149.306 163.077,149.610 ZM235.391,133.863 C235.060,133.820 234.710,133.735 234.359,133.732 C224.421,133.666 214.482,133.605 204.543,133.559 C204.001,133.556 203.457,133.686 202.795,133.769 C202.795,134.537 202.786,135.190 202.799,135.842 C202.807,136.270 202.848,136.696 202.880,137.223 C213.741,137.223 224.534,137.223 235.391,137.223 C235.391,136.081 235.391,135.045 235.391,133.863 ZM235.926,139.019 L235.341,139.008 C235.341,139.008 202.345,138.785 210.534,138.849 C208.070,138.830 205.605,138.825 203.141,138.768 C201.937,138.740 201.776,138.564 201.667,137.148 C201.545,135.574 201.506,133.992 201.422,132.237 C201.980,132.177 202.474,132.083 202.969,132.075 C206.037,132.027 209.106,132.005 212.174,131.958 C213.267,131.941 214.359,131.875 215.540,131.829 C215.537,126.938 215.560,122.272 215.524,117.463 C211.447,117.419 207.575,117.458 203.609,117.548 C203.609,120.324 203.616,122.856 203.607,125.388 C203.597,128.125 203.373,128.361 201.020,128.387 C199.972,128.399 198.911,128.257 197.856,128.515 C197.856,134.975 197.856,141.297 197.856,147.800 C198.440,147.800 201.675,147.793 202.175,147.802 C203.011,147.817 203.854,147.770 204.682,147.876 C205.893,148.031 206.534,148.352 206.830,149.097 L206.830,153.061 C206.636,153.757 206.198,153.938 204.990,154.431 C204.990,166.414 204.990,191.036 204.990,191.036 L235.926,191.255 L235.926,139.019 ZM272.010,21.055 C271.995,20.893 271.947,20.735 271.909,20.576 C271.897,20.524 271.875,20.471 271.848,20.428 C271.821,20.386 271.781,20.355 271.589,20.155 C263.403,20.155 245.423,20.155 237.052,20.155 C237.052,71.795 237.052,139.433 237.052,191.128 C245.567,191.128 263.451,191.128 271.606,191.128 C271.740,190.823 271.817,190.729 271.817,190.635 C271.890,139.676 271.958,72.675 272.026,21.716 C272.026,21.495 272.029,21.273 272.010,21.055 ZM362.595,190.345 C369.632,190.345 376.670,190.345 383.682,190.345 C384.138,188.167 384.139,181.985 383.674,180.296 C376.635,180.296 369.561,180.296 362.505,180.296 C362.157,182.163 362.231,189.164 362.595,190.345 ZM328.121,191.041 C329.752,191.041 331.214,191.041 332.789,191.041 C332.983,189.600 333.108,188.380 332.623,187.147 C331.056,187.136 329.553,187.088 327.928,187.180 C327.998,188.577 328.057,189.755 328.121,191.041 ZM318.801,191.018 C321.493,191.018 324.068,191.018 326.715,191.018 C326.771,190.361 326.821,189.881 326.849,189.400 C326.878,188.905 326.866,188.407 326.906,187.913 C327.021,186.505 327.342,185.685 328.833,185.792 C329.990,185.876 331.154,185.819 332.314,185.866 C333.759,185.924 333.995,186.214 334.064,187.917 C334.106,188.944 334.129,189.971 334.165,191.130 C336.972,191.130 339.639,191.130 342.386,191.130 C342.649,187.533 342.543,179.087 342.200,177.746 C334.424,177.787 326.607,177.676 318.801,177.822 C318.801,182.375 318.801,186.696 318.801,191.018 ZM338.204,176.127 C338.204,170.787 338.204,165.521 338.204,160.166 C336.240,159.722 331.617,159.779 330.423,160.233 C330.423,165.503 330.423,170.769 330.423,176.127 C333.056,176.127 335.585,176.127 338.204,176.127 ZM309.139,190.815 C309.777,190.815 310.467,190.831 311.156,190.811 C311.837,190.791 312.518,190.735 313.153,190.698 C313.513,188.868 313.486,140.399 313.154,139.166 C311.781,139.166 310.406,139.166 309.066,139.166 C308.694,140.904 308.748,189.406 309.139,190.815 ZM305.593,190.682 C305.897,190.708 306.217,190.753 306.538,190.755 C306.810,190.756 307.083,190.706 307.442,190.670 C307.442,173.615 307.442,156.115 307.442,139.148 C306.742,139.148 306.121,139.148 305.520,139.148 C305.170,141.225 305.243,189.280 305.593,190.682 ZM273.511,141.562 C273.548,141.562 273.585,141.562 273.622,141.562 L273.622,190.922 L303.918,190.922 L303.918,139.225 L279.855,139.225 C279.855,139.197 279.855,139.173 279.855,139.146 C277.691,139.146 275.630,139.146 273.511,139.146 C273.511,139.970 273.511,140.707 273.511,141.562 ZM281.414,115.477 C281.414,120.869 281.414,126.248 281.414,131.740 C283.300,132.043 295.752,131.951 296.829,131.613 C296.829,126.316 296.829,120.992 296.829,115.477 C291.682,115.477 286.603,115.477 281.414,115.477 ZM326.678,94.292 C328.040,94.293 328.137,94.179 328.135,92.624 C328.129,88.596 328.106,84.567 328.075,80.539 C328.071,80.005 327.982,79.473 327.936,78.976 C325.831,78.623 294.994,78.703 293.959,79.069 C293.959,84.049 293.959,89.055 293.959,94.329 C294.573,94.329 295.074,94.331 295.575,94.329 C300.642,94.305 305.710,94.264 310.778,94.259 C316.078,94.254 321.378,94.290 326.678,94.292 ZM298.675,131.928 C299.157,131.410 299.045,130.727 299.049,130.112 C299.076,125.755 299.101,121.399 299.108,117.042 C299.117,110.975 299.109,104.909 299.111,98.842 C299.111,98.180 299.146,97.518 299.125,96.858 C299.103,96.160 298.821,95.849 298.096,96.199 C298.096,96.633 298.095,97.120 298.096,97.607 C298.117,106.541 298.140,115.475 298.160,124.409 C298.164,126.340 298.147,128.270 298.170,130.200 C298.176,130.771 298.053,131.425 298.675,131.928 ZM301.849,113.548 C304.544,113.573 307.239,113.583 309.933,113.638 C310.566,113.651 311.196,113.816 311.961,113.931 C312.011,119.956 312.061,125.832 312.111,131.777 C315.232,131.777 318.219,131.777 321.192,131.777 C321.482,129.274 321.381,97.360 321.070,96.100 C314.198,96.100 307.303,96.100 300.296,96.100 C300.296,101.918 300.296,107.622 300.296,113.547 C300.934,113.547 301.392,113.544 301.849,113.548 ZM300.357,115.592 C300.357,121.056 300.357,126.386 300.357,131.805 C303.777,131.805 307.103,131.805 310.617,131.805 C310.623,126.289 310.713,120.970 310.625,115.592 C307.079,115.592 303.716,115.592 300.357,115.592 ZM322.644,131.292 C322.684,131.576 322.864,131.833 322.981,132.102 C323.112,132.072 323.243,132.042 323.374,132.012 C323.401,131.383 323.451,130.753 323.451,130.124 C323.464,120.909 323.471,111.694 323.478,102.480 C323.479,100.714 323.484,98.948 323.472,97.182 C323.469,96.647 323.541,96.000 322.593,96.128 C322.593,96.689 322.593,97.273 322.593,97.857 C322.601,108.562 322.608,119.266 322.617,129.971 C322.617,130.412 322.584,130.862 322.644,131.292 ZM273.543,133.751 C273.543,135.017 273.543,136.081 273.543,137.126 C275.866,137.445 332.963,137.317 334.146,136.968 C334.146,135.985 334.146,134.962 334.146,133.751 C313.866,133.751 293.714,133.751 273.543,133.751 ZM314.777,156.993 C319.555,156.993 324.142,156.993 328.929,156.993 C329.016,150.997 328.864,145.089 328.836,139.152 C324.074,139.152 319.491,139.152 314.717,139.152 C314.687,145.152 314.612,151.059 314.777,156.993 ZM352.425,103.412 C347.381,103.412 342.336,103.412 337.131,103.412 C337.131,104.115 337.131,104.706 337.131,105.297 C337.131,110.595 337.131,115.893 337.131,121.191 C337.131,124.396 337.096,124.438 334.319,124.448 C333.027,124.452 331.736,124.449 330.397,124.449 C330.397,127.008 330.397,129.395 330.397,131.962 C331.106,131.962 331.655,131.949 332.202,131.965 C332.991,131.988 333.780,132.031 334.569,132.068 C335.134,132.094 335.408,132.480 335.438,133.119 C335.523,134.981 335.702,136.847 335.356,138.879 C333.696,138.955 332.049,139.031 330.260,139.113 C330.260,139.821 330.263,140.417 330.259,141.012 C330.230,146.199 330.191,151.386 330.179,156.573 C330.176,157.451 330.056,158.193 329.317,158.599 C324.577,158.622 319.837,158.644 315.098,158.674 C315.019,158.675 314.940,158.773 314.863,158.824 C314.607,161.023 314.689,189.703 314.957,190.838 C315.726,190.838 316.497,190.838 317.422,190.838 C317.422,190.147 317.419,189.555 317.422,188.963 C317.440,185.708 317.444,182.452 317.482,179.196 C317.509,176.904 318.086,176.218 319.983,176.202 C322.587,176.181 325.191,176.200 327.794,176.192 C328.198,176.191 328.602,176.136 329.107,176.099 C329.107,175.286 329.098,174.579 329.109,173.872 C329.190,168.799 329.275,163.727 329.358,158.655 C329.909,158.557 330.459,158.382 331.010,158.376 C333.194,158.356 335.379,158.387 337.564,158.404 C337.796,158.406 338.029,158.422 338.258,158.458 C338.932,158.563 339.367,158.926 339.385,159.827 C339.407,160.929 339.516,162.030 339.521,163.132 C339.539,166.885 339.525,170.637 339.532,174.390 C339.533,174.971 339.582,175.551 339.613,176.222 C340.505,176.222 341.244,176.200 341.981,176.227 C343.365,176.277 343.595,176.529 343.610,178.188 C343.636,180.947 343.610,183.707 343.624,186.466 C343.632,187.886 343.678,189.305 343.708,190.748 C345.213,190.748 346.578,190.748 348.021,190.748 C348.047,190.086 348.086,189.544 348.085,189.003 C348.073,169.687 348.057,150.372 348.042,131.057 C348.041,130.505 348.019,129.950 348.061,129.402 C348.139,128.379 348.349,128.148 349.214,128.279 C350.333,128.448 351.419,128.373 352.476,128.040 C352.756,126.181 352.701,104.669 352.425,103.412 ZM381.125,2.260 C375.585,2.273 369.995,2.213 364.280,2.386 C364.280,15.244 364.280,27.896 364.280,40.535 C366.490,41.026 378.890,41.051 381.225,40.565 C381.524,37.640 381.471,3.785 381.125,2.260 ZM390.752,43.944 C390.743,43.470 390.659,42.999 390.607,42.501 C378.367,42.501 366.259,42.501 354.177,42.501 C353.845,43.969 353.813,125.456 354.130,128.083 C356.317,128.475 389.561,128.401 390.761,127.983 C390.784,127.371 390.829,126.720 390.828,126.070 C390.826,123.807 390.795,121.544 390.797,119.281 C390.805,108.407 390.818,97.532 390.833,86.658 C390.849,75.177 390.877,63.696 390.880,52.215 C390.881,49.458 390.806,46.700 390.752,43.944 ZM396.870,130.037 C381.069,130.037 365.339,130.037 349.609,130.037 C349.230,131.940 349.175,188.850 349.587,190.495 C353.374,190.473 357.199,190.560 361.160,190.412 C361.160,189.520 361.160,188.867 361.160,188.213 C361.161,185.840 361.153,183.466 361.168,181.093 C361.172,180.334 361.127,179.536 361.738,178.885 C362.241,178.857 362.795,178.800 363.350,178.798 C369.859,178.777 376.369,178.764 382.878,178.753 C383.203,178.752 383.531,178.760 383.852,178.814 C384.665,178.949 384.986,179.319 385.102,180.288 C385.155,180.722 385.139,181.169 385.139,181.610 C385.142,183.873 385.131,186.136 385.148,188.399 C385.152,189.037 385.237,189.673 385.281,190.264 C387.589,190.664 395.814,190.514 396.870,190.041 C396.870,170.128 396.870,150.171 396.870,130.037 ZM408.246,181.942 C408.241,180.332 408.219,180.320 406.811,180.341 C405.060,180.367 404.737,180.113 404.680,178.040 C404.587,174.684 404.609,171.324 404.594,167.966 C404.587,166.533 404.606,165.101 404.617,163.668 C404.622,163.004 404.382,162.630 403.792,162.631 C402.040,162.634 400.288,162.632 398.434,162.632 C398.434,172.084 398.434,181.363 398.434,190.737 C401.711,190.737 404.936,190.737 408.249,190.737 C408.249,187.665 408.255,184.803 408.246,181.942 ZM384.120,170.806 C384.067,168.774 384.067,166.738 384.090,164.705 C384.097,164.005 384.503,163.659 385.078,163.542 C387.012,163.148 388.940,163.186 390.935,163.517 C391.493,166.066 391.282,168.435 391.264,170.789 C391.259,171.480 390.919,171.955 390.321,171.981 C388.613,172.056 386.904,172.130 385.196,172.106 C384.591,172.097 384.139,171.539 384.120,170.806 ZM385.438,170.425 C386.966,170.603 388.377,170.677 389.900,170.360 C389.940,168.517 390.055,166.798 389.842,164.962 C388.270,164.962 386.852,164.962 385.259,164.962 C385.312,166.918 385.036,168.655 385.438,170.425 ZM390.333,144.034 C388.668,144.096 387.002,144.146 385.337,144.144 C384.567,144.143 384.122,143.558 384.101,142.677 C384.054,140.753 384.064,138.827 384.069,136.902 C384.071,136.022 384.554,135.610 385.214,135.524 C387.102,135.278 388.990,135.258 390.930,135.553 C391.505,138.059 391.301,140.532 391.243,142.988 C391.229,143.596 390.866,144.015 390.333,144.034 ZM389.957,137.153 C388.308,136.829 386.853,136.631 385.273,137.114 C385.291,138.894 385.053,140.619 385.443,142.478 C386.911,142.478 388.328,142.478 389.957,142.478 C389.957,141.389 389.957,140.572 389.957,139.754 C389.957,138.889 389.957,138.024 389.957,137.153 ZM385.350,149.512 C387.143,149.397 388.946,149.480 390.947,149.480 C391.064,150.191 391.228,150.773 391.245,151.361 C391.293,153.065 391.316,154.772 391.284,156.476 C391.262,157.613 391.078,157.927 390.189,158.009 C388.623,158.154 387.045,158.227 385.476,158.169 C384.464,158.131 384.117,157.603 384.079,156.338 C384.028,154.635 384.032,152.927 384.061,151.223 C384.082,149.991 384.310,149.579 385.350,149.512 ZM385.326,156.327 C386.881,156.726 388.325,156.727 389.833,156.352 C389.833,154.461 389.833,152.792 389.833,151.065 C388.259,150.884 386.810,150.640 385.326,151.096 C385.326,152.886 385.326,154.560 385.326,156.327 ZM380.013,144.060 C378.488,144.164 376.957,144.218 375.431,144.164 C374.379,144.128 374.051,143.678 374.013,142.391 C373.961,140.633 373.962,138.870 373.996,137.110 C374.019,135.997 374.291,135.631 375.240,135.513 C377.081,135.283 378.927,135.236 380.850,135.571 C381.422,137.995 381.223,140.315 381.203,142.615 C381.194,143.658 380.903,144.000 380.013,144.060 ZM379.782,137.145 C378.218,136.803 376.758,136.654 375.289,137.063 C375.289,138.890 375.289,140.612 375.289,142.355 C376.870,142.695 378.319,142.811 379.782,142.306 C379.782,140.521 379.782,138.842 379.782,137.145 ZM375.220,149.505 C377.059,149.208 378.905,149.238 380.840,149.518 C381.428,152.016 381.214,154.389 381.197,156.743 C381.192,157.494 380.842,157.992 380.165,158.022 C378.593,158.093 377.019,158.227 375.449,158.180 C374.410,158.148 374.053,157.643 374.015,156.399 C373.962,154.640 373.962,152.877 373.995,151.118 C374.017,149.972 374.233,149.664 375.220,149.505 ZM375.237,156.308 C376.752,156.745 378.200,156.709 379.776,156.358 C379.776,154.512 379.776,152.838 379.776,151.057 C378.179,150.906 376.691,150.595 375.237,151.120 C375.237,152.929 375.237,154.568 375.237,156.308 ZM370.040,144.063 C368.421,144.104 366.800,144.190 365.182,144.135 C364.341,144.107 363.994,143.663 363.963,142.679 C363.902,140.756 363.933,138.830 363.931,136.904 C363.930,136.015 364.393,135.609 365.060,135.523 C366.947,135.278 368.835,135.264 370.755,135.543 C371.352,137.998 371.162,140.416 371.110,142.816 C371.094,143.557 370.713,144.046 370.040,144.063 ZM369.723,137.146 C368.173,136.821 366.711,136.645 365.090,137.097 C365.090,138.090 365.082,138.914 365.092,139.737 C365.103,140.601 365.132,141.464 365.155,142.370 C366.763,142.672 368.219,142.831 369.723,142.286 C369.723,140.553 369.723,138.869 369.723,137.146 ZM365.012,149.526 C366.901,149.211 368.786,149.265 370.764,149.497 C371.331,152.024 371.163,154.393 371.120,156.750 C371.106,157.491 370.761,157.999 370.080,158.024 C368.462,158.084 366.842,158.208 365.227,158.148 C364.321,158.115 363.985,157.626 363.954,156.555 C363.899,154.686 363.933,152.814 363.924,150.944 C363.919,150.066 364.325,149.641 365.012,149.526 ZM365.093,153.737 C365.107,154.594 365.145,155.452 365.174,156.357 C366.782,156.689 368.232,156.766 369.743,156.312 C369.743,154.577 369.743,152.938 369.743,151.132 C368.121,150.835 366.634,150.665 365.090,151.099 C365.090,152.091 365.080,152.914 365.093,153.737 ZM364.727,163.595 C366.743,163.136 368.757,163.144 370.772,163.536 C371.339,165.993 371.154,168.361 371.123,170.714 C371.113,171.467 370.752,171.978 370.091,172.006 C368.429,172.077 366.764,172.163 365.102,172.121 C364.368,172.103 363.953,171.455 363.945,170.554 C363.928,168.684 363.923,166.814 363.924,164.944 C363.925,164.284 364.116,163.734 364.727,163.595 ZM365.205,170.381 C366.774,170.620 368.225,170.702 369.814,170.306 C369.814,169.379 369.814,168.560 369.814,167.741 C369.814,166.877 369.814,166.014 369.814,164.996 C368.152,164.996 366.697,164.996 365.205,164.996 C365.205,166.917 365.205,168.600 365.205,170.381 ZM374.799,163.599 C376.813,163.134 378.826,163.148 380.844,163.533 C381.428,165.987 381.208,168.356 381.201,170.706 C381.199,171.470 380.828,171.974 380.177,172.004 C378.514,172.081 376.850,172.155 375.187,172.124 C374.530,172.112 374.052,171.555 374.036,170.727 C373.995,168.749 374.000,166.769 374.010,164.790 C374.013,164.185 374.267,163.721 374.799,163.599 ZM375.179,169.545 C375.181,170.034 375.341,170.435 375.798,170.473 C377.126,170.584 378.458,170.707 379.885,170.310 C379.885,169.359 379.895,168.538 379.883,167.717 C379.870,166.855 379.837,165.994 379.809,164.988 C378.211,164.988 376.757,164.988 375.176,164.988 C375.176,166.595 375.171,168.070 375.179,169.545 ZM359.929,144.069 C358.356,144.110 356.781,144.209 355.210,144.153 C354.214,144.118 353.914,143.697 353.877,142.478 C353.823,140.720 353.816,138.958 353.856,137.200 C353.885,135.902 354.144,135.549 355.291,135.493 C357.043,135.406 358.800,135.470 360.679,135.470 C361.234,138.038 361.095,140.452 361.019,142.856 C360.995,143.623 360.591,144.052 359.929,144.069 ZM359.661,137.151 C358.153,136.829 356.702,136.631 355.102,137.096 C355.102,138.905 355.102,140.596 355.102,142.360 C356.643,142.708 358.101,142.773 359.661,142.337 C359.661,140.613 359.661,138.930 359.661,137.151 ZM354.962,149.518 C356.849,149.221 358.730,149.263 360.695,149.494 C361.228,152.000 361.070,154.313 361.045,156.614 C361.037,157.404 360.742,158.002 359.974,158.031 C358.403,158.090 356.830,158.223 355.262,158.172 C354.270,158.140 353.918,157.661 353.882,156.521 C353.825,154.709 353.866,152.893 353.846,151.080 C353.835,150.152 354.190,149.639 354.962,149.518 ZM355.098,156.343 C356.666,156.700 358.149,156.793 359.636,156.296 C359.636,154.479 359.636,152.805 359.636,151.040 C358.640,150.970 357.766,150.878 356.891,150.858 C356.342,150.845 355.791,150.938 355.098,150.995 C355.098,152.885 355.098,154.568 355.098,156.343 ZM354.760,163.562 C356.736,163.166 358.706,163.133 360.948,163.608 C360.988,166.037 361.036,168.280 361.057,170.523 C361.065,171.422 360.683,172.006 359.897,172.037 C358.280,172.101 356.660,172.183 355.044,172.124 C354.262,172.096 353.913,171.578 353.887,170.580 C353.836,168.658 353.861,166.733 353.868,164.809 C353.870,164.113 354.160,163.682 354.760,163.562 ZM355.129,170.447 C356.691,170.541 358.142,170.755 359.655,170.310 C359.655,168.524 359.655,166.848 359.655,165.003 C358.095,165.003 356.642,165.003 355.129,165.003 C355.129,166.832 355.129,168.556 355.129,170.447 ZM387.437,124.825 C387.405,126.478 387.169,126.742 385.810,126.852 C383.093,127.071 382.692,126.686 382.682,123.465 C382.657,115.021 382.676,106.576 382.677,98.132 C382.677,81.464 382.681,64.796 382.673,48.128 C382.671,45.413 382.635,45.151 385.213,45.291 C386.969,45.386 387.479,46.083 387.480,48.167 C387.483,55.176 387.481,62.186 387.481,69.195 C387.481,74.935 387.481,80.674 387.481,86.414 C387.500,86.414 387.519,86.414 387.538,86.414 C387.538,96.569 387.544,106.725 387.534,116.880 C387.531,119.529 387.488,122.177 387.437,124.825 ZM386.163,46.778 C385.371,46.778 384.745,46.778 384.140,46.778 C383.830,48.781 383.908,124.034 384.216,125.276 C384.867,125.276 385.529,125.276 386.282,125.276 C386.282,123.742 386.282,122.370 386.282,120.999 C386.282,100.419 386.281,79.840 386.283,59.260 C386.283,55.785 386.305,52.309 386.298,48.833 C386.296,48.141 386.209,47.449 386.163,46.778 ZM378.993,124.816 C378.958,126.414 378.660,126.767 377.351,126.847 C374.644,127.013 374.207,126.732 374.222,123.480 C374.254,116.857 374.232,110.233 374.233,103.610 C374.233,97.648 374.233,91.687 374.233,85.725 C374.233,73.140 374.231,60.554 374.235,47.969 C374.235,45.578 373.943,45.146 376.737,45.294 C377.187,45.318 377.644,45.508 378.072,45.700 C378.745,46.002 379.125,46.567 379.027,47.483 C378.998,47.754 379.023,48.034 379.023,48.310 C379.031,71.715 379.040,95.119 379.044,118.524 C379.045,120.622 379.038,122.720 378.993,124.816 ZM377.697,46.780 C376.866,46.780 376.241,46.780 375.531,46.780 C375.531,72.980 375.531,99.061 375.531,125.278 C376.322,125.278 377.024,125.278 377.824,125.278 C377.824,123.254 377.824,121.390 377.824,119.526 C377.824,102.189 377.821,84.853 377.826,67.516 C377.828,61.388 377.855,55.260 377.854,49.132 C377.853,48.336 377.750,47.539 377.697,46.780 ZM370.534,124.643 C370.472,126.536 370.204,126.793 368.601,126.868 C366.121,126.983 365.774,126.658 365.729,123.646 C365.664,119.232 365.674,114.815 365.676,110.399 C365.679,101.347 365.697,92.295 365.711,83.243 C365.728,72.756 365.749,62.269 365.762,51.781 C365.764,50.402 365.705,49.023 365.717,47.643 C365.736,45.427 365.934,45.219 367.839,45.262 C368.117,45.269 368.399,45.273 368.673,45.326 C370.096,45.606 370.563,46.253 370.563,47.975 C370.566,60.615 370.565,73.255 370.565,85.895 C370.578,85.895 370.590,85.895 370.603,85.895 C370.603,96.714 370.606,107.533 370.600,118.352 C370.599,120.449 370.602,122.548 370.534,124.643 ZM369.339,123.483 C369.328,121.497 369.303,119.511 369.304,117.525 C369.313,94.794 369.328,72.063 369.334,49.332 C369.335,48.473 369.258,47.615 369.218,46.776 C368.410,46.776 367.784,46.776 367.079,46.776 C367.079,72.964 367.079,99.037 367.079,125.300 C367.780,125.341 368.442,125.379 369.339,125.432 C369.339,124.571 369.342,124.027 369.339,123.483 ZM362.018,124.986 C361.980,126.422 361.708,126.755 360.536,126.835 C357.727,127.028 357.243,126.823 357.247,123.311 C357.267,107.194 357.270,91.078 357.272,74.961 C357.274,66.240 357.262,57.519 357.256,48.798 C357.255,48.412 357.250,48.026 357.254,47.639 C357.276,45.419 357.454,45.214 359.367,45.265 C359.737,45.275 360.117,45.291 360.474,45.394 C361.717,45.755 362.041,46.265 362.042,47.825 C362.044,60.630 362.043,73.435 362.043,86.240 C362.056,86.240 362.068,86.240 362.081,86.240 C362.081,97.224 362.083,108.208 362.078,119.192 C362.077,121.123 362.069,123.056 362.018,124.986 ZM360.881,123.488 C360.874,121.171 360.859,118.853 360.859,116.536 C360.865,94.024 360.875,71.512 360.875,49.001 C360.875,48.255 360.789,47.508 360.743,46.776 C359.953,46.776 359.327,46.776 358.723,46.776 C358.645,47.038 358.582,47.187 358.559,47.346 C358.527,47.561 358.513,47.784 358.513,48.003 C358.512,73.440 358.513,98.876 358.519,124.312 C358.519,124.527 358.575,124.743 358.610,124.958 C358.619,125.010 358.644,125.063 358.672,125.105 C358.700,125.147 358.741,125.176 358.843,125.277 C359.440,125.277 360.101,125.277 360.881,125.277 C360.881,124.573 360.883,124.030 360.881,123.488 ZM373.945,38.437 C373.160,38.512 372.373,38.662 371.591,38.629 C370.455,38.581 370.046,38.050 369.919,36.685 C369.889,36.358 369.899,36.024 369.899,35.694 C369.898,31.285 369.898,26.875 369.898,22.466 C369.885,22.466 369.873,22.466 369.860,22.466 C369.860,18.056 369.853,13.646 369.863,9.237 C369.869,6.340 370.023,6.170 372.468,6.160 C372.793,6.159 373.119,6.151 373.443,6.178 C374.419,6.259 374.994,6.784 375.232,7.894 C375.333,8.365 375.342,8.874 375.343,9.366 C375.357,17.524 375.368,25.681 375.365,33.839 C375.365,34.829 375.300,35.820 375.236,36.808 C375.176,37.746 374.785,38.356 373.945,38.437 ZM373.783,7.711 C373.001,7.711 372.190,7.711 371.299,7.711 C370.992,10.426 371.110,35.766 371.434,37.011 C372.051,37.045 372.696,37.090 373.342,37.112 C373.518,37.118 373.695,37.056 373.854,37.028 C374.154,35.366 374.107,9.036 373.783,7.711 ZM266.794,157.550 C265.270,157.654 263.738,157.708 262.213,157.654 C261.161,157.617 260.833,157.168 260.795,155.881 C260.743,154.122 260.744,152.360 260.778,150.600 C260.800,149.486 261.073,149.121 262.022,149.002 C263.863,148.773 265.709,148.726 267.631,149.061 C268.204,151.485 268.005,153.805 267.985,156.105 C267.976,157.148 267.685,157.490 266.794,157.550 ZM266.563,150.635 C265.000,150.293 263.539,150.143 262.071,150.553 C262.071,152.380 262.071,154.102 262.071,155.844 C263.652,156.185 265.100,156.301 266.563,155.796 C266.563,154.011 266.563,152.332 266.563,150.635 ZM266.794,116.117 C265.270,116.220 263.738,116.275 262.213,116.221 C261.161,116.184 260.833,115.735 260.795,114.448 C260.743,112.689 260.744,110.926 260.778,109.167 C260.800,108.053 261.073,107.688 262.022,107.569 C263.863,107.340 265.709,107.292 267.631,107.627 C268.204,110.052 268.005,112.372 267.985,114.672 C267.976,115.715 267.685,116.057 266.794,116.117 ZM266.563,109.202 C265.000,108.860 263.539,108.711 262.071,109.120 C262.071,110.947 262.071,112.669 262.071,114.411 C263.652,114.752 265.100,114.868 266.563,114.363 C266.563,112.578 266.563,110.899 266.563,109.202 ZM266.794,75.648 C265.270,75.751 263.738,75.805 262.213,75.752 C261.161,75.715 260.833,75.265 260.795,73.978 C260.743,72.220 260.744,70.457 260.778,68.698 C260.800,67.584 261.073,67.218 262.022,67.100 C263.863,66.870 265.709,66.823 267.631,67.158 C268.204,69.582 268.005,71.902 267.985,74.202 C267.976,75.246 267.685,75.587 266.794,75.648 ZM266.563,68.732 C265.000,68.391 263.539,68.241 262.071,68.650 C262.071,70.478 262.071,72.199 262.071,73.942 C263.652,74.283 265.100,74.398 266.563,73.894 C266.563,72.108 266.563,70.429 266.563,68.732 ZM266.794,34.215 C265.270,34.318 263.738,34.372 262.213,34.318 C261.161,34.282 260.833,33.832 260.795,32.545 C260.743,30.787 260.744,29.024 260.778,27.265 C260.800,26.151 261.073,25.785 262.022,25.667 C263.863,25.437 265.709,25.390 267.631,25.725 C268.204,28.149 268.005,30.469 267.985,32.769 C267.976,33.813 267.685,34.154 266.794,34.215 ZM266.563,27.299 C265.000,26.957 263.539,26.808 262.071,27.217 C262.071,29.045 262.071,30.766 262.071,32.509 C263.652,32.849 265.100,32.965 266.563,32.460 C266.563,30.675 266.563,28.996 266.563,27.299 ZM261.580,53.753 C263.595,53.288 265.608,53.302 267.626,53.687 C268.210,56.141 267.990,58.510 267.983,60.860 C267.981,61.624 267.610,62.128 266.958,62.158 C265.296,62.235 263.631,62.309 261.969,62.278 C261.312,62.266 260.834,61.709 260.817,60.881 C260.777,58.903 260.782,56.923 260.792,54.944 C260.794,54.339 261.049,53.875 261.580,53.753 ZM261.960,59.699 C261.962,60.188 262.123,60.589 262.579,60.627 C263.908,60.738 265.240,60.861 266.667,60.464 C266.667,59.513 266.676,58.692 266.664,57.871 C266.652,57.009 266.619,56.148 266.591,55.142 C264.992,55.142 263.539,55.142 261.958,55.142 C261.958,56.749 261.953,58.224 261.960,59.699 ZM262.002,39.659 C263.841,39.362 265.687,39.392 267.621,39.672 C268.209,42.171 267.995,44.543 267.979,46.897 C267.973,47.648 267.624,48.145 266.946,48.176 C265.375,48.247 263.800,48.381 262.231,48.334 C261.191,48.302 260.835,47.797 260.797,46.553 C260.744,44.794 260.744,43.032 260.777,41.272 C260.798,40.126 261.015,39.818 262.002,39.659 ZM262.019,46.462 C263.534,46.899 264.982,46.863 266.557,46.512 C266.557,44.666 266.557,42.992 266.557,41.211 C264.961,41.060 263.472,40.749 262.019,41.274 C262.019,43.083 262.019,44.722 262.019,46.462 ZM256.822,157.553 C255.202,157.594 253.581,157.680 251.964,157.625 C251.123,157.597 250.775,157.153 250.744,156.169 C250.684,154.246 250.715,152.319 250.712,150.394 C250.711,149.505 251.175,149.099 251.842,149.013 C253.729,148.768 255.616,148.754 257.537,149.033 C258.133,151.488 257.944,153.905 257.891,156.306 C257.875,157.047 257.495,157.535 256.822,157.553 ZM256.505,150.636 C254.955,150.311 253.493,150.135 251.872,150.587 C251.872,151.580 251.864,152.404 251.874,153.227 C251.885,154.091 251.914,154.954 251.936,155.859 C253.545,156.161 255.001,156.321 256.505,155.776 C256.505,154.043 256.505,152.359 256.505,150.636 ZM256.822,116.119 C255.202,116.160 253.581,116.247 251.964,116.192 C251.123,116.164 250.775,115.720 250.744,114.736 C250.684,112.813 250.715,110.886 250.712,108.961 C250.711,108.072 251.175,107.666 251.842,107.580 C253.729,107.335 255.616,107.321 257.537,107.600 C258.133,110.054 257.944,112.472 257.891,114.873 C257.875,115.614 257.495,116.103 256.822,116.119 ZM256.505,109.203 C254.955,108.878 253.493,108.701 251.872,109.154 C251.872,110.147 251.864,110.971 251.874,111.794 C251.885,112.658 251.914,113.521 251.936,114.426 C253.545,114.728 255.001,114.888 256.505,114.343 C256.505,112.610 256.505,110.926 256.505,109.203 ZM256.822,75.650 C255.202,75.691 253.581,75.777 251.964,75.723 C251.123,75.694 250.775,75.251 250.744,74.266 C250.684,72.343 250.715,70.417 250.712,68.491 C250.711,67.602 251.175,67.196 251.842,67.110 C253.729,66.865 255.616,66.852 257.537,67.130 C258.133,69.585 257.944,72.003 257.891,74.403 C257.875,75.145 257.495,75.633 256.822,75.650 ZM256.505,68.733 C254.955,68.409 253.493,68.232 251.872,68.685 C251.872,69.677 251.864,70.501 251.874,71.325 C251.885,72.188 251.914,73.051 251.936,73.957 C253.545,74.259 255.001,74.418 256.505,73.873 C256.505,72.140 256.505,70.456 256.505,68.733 ZM256.822,34.217 C255.202,34.258 253.581,34.344 251.964,34.290 C251.123,34.261 250.775,33.817 250.744,32.833 C250.684,30.910 250.715,28.984 250.712,27.058 C250.711,26.169 251.175,25.763 251.842,25.677 C253.729,25.432 255.616,25.419 257.537,25.697 C258.133,28.152 257.944,30.570 257.891,32.970 C257.875,33.711 257.495,34.200 256.822,34.217 ZM256.505,27.300 C254.955,26.975 253.493,26.799 251.872,27.252 C251.872,28.244 251.864,29.068 251.874,29.891 C251.885,30.755 251.914,31.618 251.936,32.524 C253.545,32.826 255.001,32.985 256.505,32.440 C256.505,30.707 256.505,29.023 256.505,27.300 ZM251.508,53.749 C253.524,53.290 255.539,53.298 257.554,53.690 C258.121,56.147 257.936,58.515 257.905,60.868 C257.895,61.621 257.534,62.132 256.873,62.160 C255.210,62.231 253.545,62.317 251.883,62.275 C251.150,62.257 250.735,61.609 250.727,60.708 C250.710,58.838 250.705,56.968 250.706,55.098 C250.706,54.438 250.898,53.888 251.508,53.749 ZM251.987,60.535 C253.556,60.774 255.006,60.856 256.595,60.460 C256.595,59.533 256.595,58.714 256.595,57.895 C256.595,57.031 256.595,56.168 256.595,55.150 C254.934,55.150 253.479,55.150 251.987,55.150 C251.987,57.071 251.987,58.754 251.987,60.535 ZM251.794,39.680 C253.682,39.365 255.568,39.419 257.545,39.651 C258.112,42.178 257.944,44.547 257.902,46.904 C257.888,47.645 257.543,48.153 256.861,48.178 C255.244,48.238 253.624,48.362 252.009,48.302 C251.103,48.269 250.767,47.780 250.735,46.709 C250.681,44.840 250.715,42.968 250.705,41.098 C250.701,40.220 251.107,39.795 251.794,39.680 ZM251.875,43.891 C251.889,44.749 251.927,45.606 251.956,46.511 C253.564,46.843 255.014,46.920 256.525,46.466 C256.525,44.731 256.525,43.092 256.525,41.286 C254.903,40.989 253.415,40.819 251.872,41.253 C251.872,42.245 251.861,43.068 251.875,43.891 ZM246.711,157.559 C245.137,157.600 243.562,157.699 241.991,157.643 C240.995,157.608 240.696,157.187 240.658,155.967 C240.604,154.210 240.597,152.448 240.637,150.690 C240.667,149.392 240.926,149.039 242.073,148.983 C243.825,148.896 245.581,148.960 247.460,148.960 C248.015,151.528 247.877,153.942 247.801,156.346 C247.776,157.113 247.373,157.541 246.711,157.559 ZM246.443,150.641 C244.935,150.319 243.483,150.121 241.884,150.586 C241.884,152.395 241.884,154.086 241.884,155.850 C243.425,156.198 244.883,156.262 246.443,155.827 C246.443,154.103 246.443,152.420 246.443,150.641 ZM246.711,116.126 C245.137,116.167 243.562,116.265 241.991,116.210 C240.995,116.175 240.696,115.754 240.658,114.534 C240.604,112.777 240.597,111.015 240.637,109.256 C240.667,107.959 240.926,107.606 242.073,107.549 C243.825,107.463 245.581,107.527 247.460,107.527 C248.015,110.095 247.877,112.509 247.801,114.913 C247.776,115.679 247.373,116.108 246.711,116.126 ZM246.443,109.208 C244.935,108.885 243.483,108.688 241.884,109.152 C241.884,110.962 241.884,112.653 241.884,114.416 C243.425,114.765 244.883,114.829 246.443,114.394 C246.443,112.670 246.443,110.987 246.443,109.208 ZM246.711,75.656 C245.137,75.697 243.562,75.796 241.991,75.741 C240.995,75.706 240.696,75.285 240.658,74.065 C240.604,72.307 240.597,70.545 240.637,68.787 C240.667,67.489 240.926,67.137 242.073,67.080 C243.825,66.993 245.581,67.057 247.460,67.057 C248.015,69.626 247.877,72.039 247.801,74.444 C247.776,75.210 247.373,75.639 246.711,75.656 ZM246.443,68.738 C244.935,68.416 243.483,68.219 241.884,68.683 C241.884,70.493 241.884,72.183 241.884,73.947 C243.425,74.295 244.883,74.360 246.443,73.924 C246.443,72.200 246.443,70.517 246.443,68.738 ZM246.711,34.223 C245.137,34.264 243.562,34.363 241.991,34.307 C240.995,34.273 240.696,33.852 240.658,32.632 C240.604,30.874 240.597,29.112 240.637,27.354 C240.667,26.056 240.926,25.703 242.073,25.647 C243.825,25.560 245.581,25.624 247.460,25.624 C248.015,28.193 247.877,30.606 247.801,33.011 C247.776,33.777 247.373,34.206 246.711,34.223 ZM246.443,27.305 C244.935,26.983 243.483,26.785 241.884,27.250 C241.884,29.059 241.884,30.750 241.884,32.514 C243.425,32.862 244.883,32.927 246.443,32.491 C246.443,30.767 246.443,29.084 246.443,27.305 ZM241.542,53.716 C243.517,53.320 245.487,53.287 247.730,53.762 C247.770,56.191 247.818,58.434 247.839,60.677 C247.847,61.577 247.465,62.160 246.679,62.192 C245.062,62.255 243.442,62.337 241.826,62.278 C241.043,62.250 240.695,61.732 240.668,60.734 C240.617,58.812 240.643,56.887 240.649,54.963 C240.652,54.267 240.941,53.836 241.542,53.716 ZM241.911,60.600 C243.473,60.695 244.923,60.910 246.436,60.464 C246.436,58.678 246.436,57.002 246.436,55.157 C244.877,55.157 243.424,55.157 241.911,55.157 C241.911,56.986 241.911,58.710 241.911,60.600 ZM241.743,39.672 C243.630,39.375 245.512,39.417 247.477,39.648 C248.010,42.154 247.851,44.467 247.827,46.768 C247.819,47.558 247.524,48.156 246.755,48.185 C245.185,48.244 243.612,48.377 242.043,48.326 C241.052,48.294 240.700,47.815 240.664,46.675 C240.607,44.863 240.648,43.047 240.627,41.234 C240.617,40.306 240.972,39.793 241.743,39.672 ZM241.880,46.497 C243.448,46.854 244.930,46.947 246.417,46.450 C246.417,44.633 246.417,42.959 246.417,41.194 C245.421,41.124 244.548,41.032 243.673,41.012 C243.124,40.999 242.573,41.092 241.880,41.150 C241.880,43.039 241.880,44.722 241.880,46.497 ZM241.542,95.149 C243.517,94.753 245.487,94.720 247.730,95.196 C247.770,97.624 247.818,99.867 247.839,102.111 C247.847,103.010 247.465,103.594 246.679,103.625 C245.062,103.689 243.442,103.770 241.826,103.711 C241.043,103.683 240.695,103.166 240.668,102.167 C240.617,100.245 240.643,98.320 240.649,96.396 C240.652,95.700 240.941,95.269 241.542,95.149 ZM241.911,102.034 C243.473,102.128 244.923,102.343 246.436,101.897 C246.436,100.111 246.436,98.435 246.436,96.590 C244.877,96.590 243.424,96.590 241.911,96.590 C241.911,98.419 241.911,100.143 241.911,102.034 ZM241.743,81.105 C243.630,80.808 245.512,80.850 247.477,81.081 C248.010,83.587 247.851,85.901 247.827,88.201 C247.819,88.991 247.524,89.589 246.755,89.618 C245.185,89.677 243.612,89.810 242.043,89.759 C241.052,89.727 240.700,89.248 240.664,88.108 C240.607,86.296 240.648,84.480 240.627,82.667 C240.617,81.739 240.972,81.227 241.743,81.105 ZM241.880,87.930 C243.448,88.287 244.930,88.380 246.417,87.883 C246.417,86.066 246.417,84.392 246.417,82.627 C245.421,82.557 244.548,82.466 243.673,82.445 C243.124,82.432 242.573,82.525 241.880,82.583 C241.880,84.472 241.880,86.156 241.880,87.930 ZM241.542,135.618 C243.517,135.223 245.487,135.189 247.730,135.665 C247.770,138.093 247.818,140.337 247.839,142.580 C247.847,143.479 247.465,144.063 246.679,144.094 C245.062,144.158 243.442,144.239 241.826,144.181 C241.043,144.153 240.695,143.635 240.668,142.637 C240.617,140.715 240.643,138.790 240.649,136.866 C240.652,136.170 240.941,135.739 241.542,135.618 ZM241.911,142.503 C243.473,142.598 244.923,142.812 246.436,142.367 C246.436,140.580 246.436,138.905 246.436,137.060 C244.877,137.060 243.424,137.060 241.911,137.060 C241.911,138.889 241.911,140.613 241.911,142.503 ZM241.743,121.575 C243.630,121.278 245.512,121.319 247.477,121.551 C248.010,124.057 247.851,126.370 247.827,128.671 C247.819,129.460 247.524,130.058 246.755,130.088 C245.185,130.147 243.612,130.280 242.043,130.229 C241.052,130.197 240.700,129.718 240.664,128.578 C240.607,126.766 240.648,124.950 240.627,123.136 C240.617,122.209 240.972,121.696 241.743,121.575 ZM241.880,128.400 C243.448,128.757 244.930,128.850 246.417,128.353 C246.417,126.536 246.417,124.862 246.417,123.097 C245.421,123.027 244.548,122.935 243.673,122.914 C243.124,122.901 242.573,122.995 241.880,123.052 C241.880,124.942 241.880,126.625 241.880,128.400 ZM241.743,163.008 C243.630,162.711 245.512,162.753 247.477,162.984 C248.010,165.490 247.851,167.803 247.827,170.104 C247.819,170.893 247.524,171.492 246.755,171.521 C245.185,171.580 243.612,171.713 242.043,171.662 C241.052,171.630 240.700,171.151 240.664,170.011 C240.607,168.199 240.648,166.383 240.627,164.569 C240.617,163.642 240.972,163.129 241.743,163.008 ZM241.880,169.833 C243.448,170.190 244.930,170.283 246.417,169.786 C246.417,167.969 246.417,166.295 246.417,164.530 C245.421,164.460 244.548,164.368 243.673,164.348 C243.124,164.335 242.573,164.428 241.880,164.486 C241.880,166.375 241.880,168.058 241.880,169.833 ZM241.542,177.051 C243.517,176.656 245.487,176.623 247.730,177.098 C247.770,179.527 247.818,181.770 247.839,184.013 C247.847,184.912 247.465,185.496 246.679,185.527 C245.062,185.591 243.442,185.672 241.826,185.614 C241.043,185.586 240.695,185.068 240.668,184.070 C240.617,182.148 240.643,180.223 240.649,178.299 C240.652,177.603 240.941,177.172 241.542,177.051 ZM241.911,183.936 C243.473,184.031 244.923,184.245 246.436,183.800 C246.436,182.014 246.436,180.338 246.436,178.493 C244.877,178.493 243.424,178.493 241.911,178.493 C241.911,180.322 241.911,182.046 241.911,183.936 ZM251.508,95.182 C253.524,94.723 255.539,94.731 257.554,95.123 C258.121,97.580 257.936,99.948 257.905,102.301 C257.895,103.054 257.534,103.565 256.873,103.593 C255.210,103.664 253.545,103.750 251.883,103.709 C251.150,103.690 250.735,103.042 250.727,102.141 C250.710,100.271 250.705,98.401 250.706,96.531 C250.706,95.871 250.898,95.321 251.508,95.182 ZM251.987,101.968 C253.556,102.207 255.006,102.290 256.595,101.893 C256.595,100.966 256.595,100.147 256.595,99.328 C256.595,98.464 256.595,97.601 256.595,96.583 C254.934,96.583 253.479,96.583 251.987,96.583 C251.987,98.504 251.987,100.188 251.987,101.968 ZM251.794,81.113 C253.682,80.798 255.568,80.852 257.545,81.084 C258.112,83.611 257.944,85.981 257.902,88.337 C257.888,89.078 257.543,89.586 256.861,89.611 C255.244,89.671 253.624,89.795 252.009,89.735 C251.103,89.702 250.767,89.213 250.735,88.142 C250.681,86.274 250.715,84.401 250.705,82.531 C250.701,81.654 251.107,81.228 251.794,81.113 ZM251.875,85.324 C251.889,86.182 251.927,87.039 251.956,87.944 C253.564,88.276 255.014,88.353 256.525,87.899 C256.525,86.164 256.525,84.525 256.525,82.719 C254.903,82.422 253.415,82.252 251.872,82.687 C251.872,83.678 251.861,84.501 251.875,85.324 ZM251.508,135.652 C253.524,135.192 255.539,135.201 257.554,135.593 C258.121,138.049 257.936,140.418 257.905,142.771 C257.895,143.523 257.534,144.034 256.873,144.063 C255.210,144.133 253.545,144.219 251.883,144.178 C251.150,144.160 250.735,143.512 250.727,142.611 C250.710,140.741 250.705,138.871 250.706,137.001 C250.706,136.340 250.898,135.791 251.508,135.652 ZM251.987,142.438 C253.556,142.677 255.006,142.759 256.595,142.363 C256.595,141.436 256.595,140.617 256.595,139.798 C256.595,138.934 256.595,138.071 256.595,137.052 C254.934,137.052 253.479,137.052 251.987,137.052 C251.987,138.973 251.987,140.657 251.987,142.438 ZM251.794,121.583 C253.682,121.267 255.568,121.322 257.545,121.554 C258.112,124.081 257.944,126.450 257.902,128.807 C257.888,129.547 257.543,130.056 256.861,130.081 C255.244,130.140 253.624,130.264 252.009,130.205 C251.103,130.172 250.767,129.682 250.735,128.612 C250.681,126.743 250.715,124.871 250.705,123.000 C250.701,122.123 251.107,121.698 251.794,121.583 ZM251.875,125.793 C251.889,126.651 251.927,127.509 251.956,128.413 C253.564,128.745 255.014,128.822 256.525,128.369 C256.525,126.633 256.525,124.995 256.525,123.189 C254.903,122.891 253.415,122.722 251.872,123.156 C251.872,124.147 251.861,124.971 251.875,125.793 ZM251.794,163.016 C253.682,162.701 255.568,162.755 257.545,162.987 C258.112,165.514 257.944,167.883 257.902,170.240 C257.888,170.980 257.543,171.489 256.861,171.514 C255.244,171.573 253.624,171.697 252.009,171.638 C251.103,171.605 250.767,171.116 250.735,170.045 C250.681,168.176 250.715,166.304 250.705,164.433 C250.701,163.556 251.107,163.131 251.794,163.016 ZM251.875,167.226 C251.889,168.084 251.927,168.942 251.956,169.847 C253.564,170.178 255.014,170.256 256.525,169.802 C256.525,168.066 256.525,166.428 256.525,164.622 C254.903,164.324 253.415,164.155 251.872,164.589 C251.872,165.580 251.861,166.404 251.875,167.226 ZM251.508,177.085 C253.524,176.625 255.539,176.634 257.554,177.026 C258.121,179.482 257.936,181.851 257.905,184.204 C257.895,184.956 257.534,185.468 256.873,185.496 C255.210,185.567 253.545,185.652 251.883,185.611 C251.150,185.593 250.735,184.945 250.727,184.044 C250.710,182.174 250.705,180.304 250.706,178.434 C250.706,177.773 250.898,177.224 251.508,177.085 ZM251.987,183.871 C253.556,184.110 255.006,184.192 256.595,183.796 C256.595,182.869 256.595,182.050 256.595,181.231 C256.595,180.367 256.595,179.504 256.595,178.486 C254.934,178.486 253.479,178.486 251.987,178.486 C251.987,180.406 251.987,182.090 251.987,183.871 ZM261.580,95.186 C263.595,94.721 265.608,94.735 267.626,95.120 C268.210,97.574 267.990,99.943 267.983,102.293 C267.981,103.057 267.610,103.561 266.958,103.591 C265.296,103.668 263.631,103.742 261.969,103.711 C261.312,103.699 260.834,103.142 260.817,102.314 C260.777,100.336 260.782,98.356 260.792,96.377 C260.794,95.772 261.049,95.308 261.580,95.186 ZM261.960,101.133 C261.962,101.621 262.123,102.022 262.579,102.060 C263.908,102.171 265.240,102.294 266.667,101.897 C266.667,100.946 266.676,100.125 266.664,99.304 C266.652,98.442 266.619,97.581 266.591,96.575 C264.992,96.575 263.539,96.575 261.958,96.575 C261.958,98.182 261.953,99.657 261.960,101.133 ZM262.002,81.092 C263.841,80.795 265.687,80.825 267.621,81.105 C268.209,83.604 267.995,85.976 267.979,88.330 C267.973,89.081 267.624,89.579 266.946,89.609 C265.375,89.680 263.800,89.814 262.231,89.767 C261.191,89.736 260.835,89.230 260.797,87.987 C260.744,86.228 260.744,84.465 260.777,82.705 C260.798,81.559 261.015,81.251 262.002,81.092 ZM262.019,87.895 C263.534,88.333 264.982,88.296 266.557,87.945 C266.557,86.100 266.557,84.425 266.557,82.644 C264.961,82.493 263.472,82.182 262.019,82.707 C262.019,84.516 262.019,86.155 262.019,87.895 ZM261.580,135.655 C263.595,135.191 265.608,135.204 267.626,135.589 C268.210,138.043 267.990,140.413 267.983,142.763 C267.981,143.527 267.610,144.030 266.958,144.060 C265.296,144.138 263.631,144.211 261.969,144.181 C261.312,144.168 260.834,143.612 260.817,142.784 C260.777,140.805 260.782,138.826 260.792,136.847 C260.794,136.241 261.049,135.778 261.580,135.655 ZM261.960,141.602 C261.962,142.090 262.123,142.491 262.579,142.530 C263.908,142.641 265.240,142.764 266.667,142.367 C266.667,141.416 266.676,140.595 266.664,139.774 C266.652,138.912 266.619,138.051 266.591,137.045 C264.992,137.045 263.539,137.045 261.958,137.045 C261.958,138.651 261.953,140.127 261.960,141.602 ZM262.002,121.562 C263.841,121.265 265.687,121.295 267.621,121.574 C268.209,124.073 267.995,126.446 267.979,128.800 C267.973,129.551 267.624,130.048 266.946,130.079 C265.375,130.150 263.800,130.284 262.231,130.236 C261.191,130.205 260.835,129.699 260.797,128.456 C260.744,126.697 260.744,124.934 260.777,123.174 C260.798,122.028 261.015,121.721 262.002,121.562 ZM262.019,128.365 C263.534,128.802 264.982,128.766 266.557,128.415 C266.557,126.569 266.557,124.895 266.557,123.113 C264.961,122.962 263.472,122.652 262.019,123.177 C262.019,124.985 262.019,126.624 262.019,128.365 ZM262.002,162.995 C263.841,162.698 265.687,162.728 267.621,163.008 C268.209,165.506 267.995,167.878 267.979,170.233 C267.973,170.984 267.624,171.481 266.946,171.512 C265.375,171.583 263.800,171.717 262.231,171.669 C261.191,171.638 260.835,171.132 260.797,169.889 C260.744,168.130 260.744,166.367 260.777,164.607 C260.798,163.461 261.015,163.154 262.002,162.995 ZM262.019,169.798 C263.534,170.235 264.982,170.199 266.557,169.848 C266.557,168.002 266.557,166.328 266.557,164.546 C264.961,164.395 263.472,164.085 262.019,164.610 C262.019,166.418 262.019,168.057 262.019,169.798 ZM261.580,177.088 C263.595,176.624 265.608,176.638 267.626,177.023 C268.210,179.477 267.990,181.846 267.983,184.196 C267.981,184.960 267.610,185.463 266.958,185.494 C265.296,185.571 263.631,185.645 261.969,185.614 C261.312,185.601 260.834,185.045 260.817,184.217 C260.777,182.239 260.782,180.259 260.792,178.280 C260.794,177.674 261.049,177.211 261.580,177.088 ZM261.960,183.035 C261.962,183.523 262.123,183.924 262.579,183.963 C263.908,184.074 265.240,184.197 266.667,183.800 C266.667,182.849 266.676,182.028 266.664,181.207 C266.652,180.345 266.619,179.484 266.591,178.478 C264.992,178.478 263.539,178.478 261.958,178.478 C261.958,180.085 261.953,181.560 261.960,183.035 ZM193.203,105.285 C190.834,105.286 188.465,105.286 186.096,105.282 C183.494,105.277 180.893,105.280 178.292,105.250 C177.579,105.242 176.810,105.319 176.251,104.485 C176.889,103.558 177.719,103.706 178.473,103.698 C181.910,103.661 185.347,103.664 188.785,103.655 C190.225,103.652 191.665,103.646 193.105,103.659 C193.880,103.666 193.879,103.683 194.594,104.404 C194.351,105.364 193.758,105.285 193.203,105.285 ZM193.242,34.046 C191.059,34.046 188.875,34.049 186.692,34.045 C183.905,34.040 181.118,34.041 178.332,34.012 C177.616,34.005 176.847,34.090 176.315,33.359 C176.320,33.194 176.325,33.029 176.330,32.864 C176.938,32.726 177.545,32.473 178.154,32.468 C183.170,32.425 188.187,32.425 193.203,32.420 C193.759,32.420 194.347,32.398 194.574,33.218 C194.389,34.093 193.805,34.046 193.242,34.046 ZM176.953,39.750 C177.405,39.648 177.876,39.632 178.339,39.630 C183.170,39.609 188.001,39.594 192.831,39.588 C193.247,39.587 193.681,39.583 194.072,39.720 C194.274,39.790 194.485,40.144 194.530,40.409 C194.557,40.575 194.314,40.926 194.138,40.994 C193.793,41.126 193.411,41.163 193.044,41.161 C188.121,41.148 183.197,41.133 178.274,41.084 C177.613,41.078 176.875,41.224 176.165,40.336 C176.521,40.061 176.720,39.803 176.953,39.750 ZM178.127,46.709 C183.144,46.679 188.160,46.673 193.177,46.668 C193.729,46.668 194.321,46.625 194.570,47.444 C194.416,48.331 193.832,48.293 193.270,48.293 C191.040,48.294 188.811,48.297 186.581,48.293 C183.841,48.288 181.100,48.288 178.360,48.261 C177.640,48.255 176.878,48.327 176.192,47.472 C176.837,46.725 177.500,46.713 178.127,46.709 ZM193.044,69.658 C188.120,69.644 183.196,69.635 178.273,69.574 C177.623,69.566 176.852,69.820 176.226,68.785 C176.521,68.557 176.721,68.299 176.954,68.246 C177.406,68.144 177.877,68.128 178.340,68.126 C183.171,68.105 188.001,68.090 192.832,68.084 C193.248,68.083 193.682,68.079 194.073,68.215 C194.274,68.286 194.486,68.641 194.530,68.906 C194.557,69.072 194.313,69.422 194.137,69.490 C193.793,69.623 193.410,69.659 193.044,69.658 ZM178.480,60.955 C181.731,60.916 184.983,60.920 188.234,60.911 C189.674,60.907 191.114,60.910 192.554,60.911 C192.833,60.911 193.112,60.903 193.390,60.921 C193.906,60.954 194.556,60.980 194.527,61.771 C194.499,62.543 193.860,62.543 193.334,62.542 C188.224,62.529 183.115,62.527 178.006,62.496 C177.385,62.492 176.693,62.543 176.279,61.693 C176.897,60.814 177.727,60.964 178.480,60.955 ZM178.103,53.892 C181.168,53.843 184.234,53.842 187.299,53.832 C189.251,53.825 191.202,53.811 193.153,53.847 C193.667,53.857 194.349,53.649 194.539,54.539 C194.661,55.107 194.198,55.412 193.141,55.410 C188.125,55.398 183.108,55.382 178.092,55.320 C177.496,55.313 176.759,55.556 176.290,54.580 C176.781,53.698 177.494,53.901 178.103,53.892 ZM193.306,75.164 C193.830,75.163 194.335,75.223 194.571,75.898 C194.423,76.820 193.842,76.789 193.278,76.789 C191.142,76.790 189.005,76.793 186.868,76.789 C184.035,76.784 181.201,76.786 178.368,76.755 C177.653,76.747 176.879,76.854 176.057,75.723 C176.866,75.502 177.421,75.224 177.978,75.219 C183.087,75.173 188.197,75.173 193.306,75.164 ZM192.913,98.156 C188.082,98.140 183.252,98.129 178.421,98.077 C177.715,98.070 176.930,98.244 176.155,97.344 C176.517,97.059 176.714,96.797 176.945,96.744 C177.397,96.640 177.868,96.624 178.331,96.622 C183.162,96.601 187.993,96.588 192.823,96.578 C193.194,96.577 193.589,96.537 193.927,96.675 C194.177,96.777 194.431,97.103 194.523,97.400 C194.563,97.529 194.231,97.947 194.012,98.032 C193.671,98.165 193.282,98.157 192.913,98.156 ZM178.272,83.820 C177.623,83.811 176.850,84.073 176.227,83.031 C176.522,82.804 176.722,82.546 176.955,82.494 C177.407,82.392 177.878,82.376 178.341,82.374 C183.172,82.353 188.002,82.338 192.833,82.332 C193.249,82.331 193.683,82.327 194.074,82.464 C194.275,82.534 194.486,82.890 194.530,83.155 C194.557,83.320 194.312,83.670 194.135,83.738 C193.791,83.870 193.408,83.907 193.042,83.906 C188.118,83.892 183.195,83.882 178.272,83.820 ZM193.251,91.038 C191.115,91.038 188.978,91.041 186.841,91.037 C184.008,91.032 181.174,91.032 178.341,91.004 C177.625,90.996 176.857,91.080 176.319,90.362 C176.321,90.195 176.323,90.028 176.324,89.861 C176.931,89.721 177.537,89.465 178.145,89.459 C183.161,89.416 188.177,89.417 193.194,89.412 C193.750,89.411 194.337,89.385 194.573,90.202 C194.398,91.081 193.814,91.037 193.251,91.038 ZM193.118,112.398 C188.102,112.389 183.086,112.368 178.070,112.310 C177.474,112.302 176.745,112.528 176.281,111.571 C176.848,110.645 177.609,110.894 178.265,110.883 C181.376,110.831 184.489,110.834 187.601,110.824 C189.459,110.818 191.317,110.803 193.175,110.839 C193.688,110.850 194.498,110.652 194.512,111.554 C194.528,112.576 193.686,112.399 193.118,112.398 ZM193.193,117.908 C193.750,117.907 194.336,117.881 194.573,118.697 C194.398,119.577 193.813,119.533 193.251,119.533 C191.161,119.534 189.070,119.537 186.980,119.533 C184.100,119.528 181.221,119.532 178.341,119.497 C177.630,119.488 176.844,119.625 176.084,118.412 C176.931,118.217 177.537,117.961 178.145,117.956 C183.161,117.912 188.177,117.913 193.193,117.908 ZM176.952,139.486 C177.356,139.382 177.782,139.369 178.199,139.367 C183.122,139.346 188.046,139.331 192.969,139.324 C193.339,139.324 193.730,139.315 194.070,139.453 C194.275,139.537 194.484,139.878 194.529,140.143 C194.558,140.309 194.314,140.660 194.138,140.728 C193.794,140.861 193.412,140.899 193.045,140.898 C188.122,140.884 183.198,140.875 178.275,140.812 C177.625,140.804 176.853,141.064 176.227,140.026 C176.520,139.798 176.718,139.546 176.952,139.486 ZM178.271,126.563 C177.622,126.555 176.849,126.817 176.227,125.774 C176.523,125.547 176.722,125.304 176.957,125.236 C177.312,125.132 177.693,125.123 178.064,125.122 C183.080,125.100 188.097,125.085 193.113,125.077 C193.436,125.077 193.774,125.087 194.076,125.200 C194.262,125.269 194.531,125.561 194.517,125.725 C194.495,125.997 194.323,126.382 194.130,126.476 C193.801,126.636 193.407,126.651 193.041,126.650 C188.117,126.636 183.194,126.626 178.271,126.563 ZM193.252,133.781 C191.162,133.783 189.071,133.785 186.981,133.781 C184.101,133.776 181.221,133.777 178.342,133.748 C177.626,133.740 176.858,133.825 176.319,133.107 C176.321,132.940 176.322,132.772 176.324,132.605 C176.930,132.465 177.536,132.209 178.143,132.204 C183.160,132.160 188.176,132.161 193.193,132.156 C193.749,132.155 194.336,132.129 194.573,132.945 C194.398,133.824 193.814,133.781 193.252,133.781 ZM173.737,178.252 C172.351,178.982 170.915,179.231 169.443,178.952 C169.199,178.906 168.926,178.532 168.822,178.233 C168.775,178.102 169.104,177.591 169.286,177.572 C170.786,177.415 172.292,177.328 173.737,178.252 ZM169.766,173.325 C169.563,173.265 169.350,172.899 169.292,172.630 C169.260,172.476 169.512,172.081 169.672,172.049 C170.946,171.797 172.217,171.694 173.669,172.793 C172.197,173.403 171.010,173.689 169.766,173.325 ZM173.272,167.530 C172.997,168.270 172.419,168.239 171.896,168.308 C170.572,168.483 170.019,168.356 169.223,167.672 C170.148,166.607 171.821,166.571 173.272,167.530 ZM169.706,163.834 C169.554,163.812 169.335,163.459 169.333,163.257 C169.331,163.058 169.538,162.725 169.701,162.677 C170.925,162.310 172.122,162.388 173.573,163.167 C172.142,164.274 170.912,164.011 169.706,163.834 ZM169.221,158.894 C170.298,157.796 172.039,157.813 173.268,158.855 C172.139,159.906 170.315,159.963 169.221,158.894 ZM176.617,177.798 C177.854,177.676 179.094,177.558 180.334,177.532 C180.559,177.527 180.860,177.905 180.986,178.193 C181.038,178.312 180.750,178.833 180.572,178.870 C179.944,178.998 179.282,179.119 178.660,179.015 C177.795,178.871 176.827,179.098 175.940,178.211 C176.244,178.019 176.424,177.817 176.617,177.798 ZM177.076,172.205 C177.991,172.077 178.913,171.976 179.832,171.974 C180.074,171.974 180.317,172.365 180.559,172.577 C180.323,172.861 180.127,173.245 179.841,173.402 C179.569,173.552 179.199,173.519 178.880,173.476 C178.109,173.373 177.342,173.217 176.572,173.083 C176.537,172.949 176.501,172.815 176.465,172.681 C176.668,172.515 176.860,172.235 177.076,172.205 ZM179.884,168.246 C178.751,168.423 177.607,168.539 176.409,167.714 C177.819,166.577 179.653,166.577 180.623,167.694 C180.361,167.898 180.137,168.206 179.884,168.246 ZM176.587,163.279 C177.634,162.238 179.435,162.167 180.600,163.191 C179.680,164.277 177.786,164.273 176.587,163.279 ZM176.467,158.868 C177.929,157.797 179.626,157.821 180.532,158.863 C179.713,159.932 177.983,159.974 176.467,158.868 ZM183.751,177.720 C184.851,177.605 185.957,177.508 187.060,177.517 C187.337,177.519 187.770,177.876 187.853,178.178 C187.999,178.713 187.554,178.939 187.183,178.986 C185.732,179.168 184.310,179.051 182.610,178.298 C183.203,177.988 183.469,177.749 183.751,177.720 ZM186.363,173.473 C185.313,173.530 184.291,173.398 183.114,172.792 C184.478,171.637 185.754,171.826 187.019,172.056 C187.172,172.084 187.379,172.449 187.381,172.661 C187.383,172.869 187.191,173.143 187.022,173.273 C186.840,173.412 186.587,173.461 186.363,173.473 ZM184.875,168.306 C184.347,168.299 183.771,168.279 183.332,167.470 C184.553,166.669 185.711,166.813 186.855,166.987 C187.044,167.016 187.238,167.386 187.341,167.648 C187.381,167.750 187.186,168.127 187.076,168.142 C186.345,168.238 185.608,168.316 184.875,168.306 ZM183.163,163.110 C184.594,162.422 185.759,162.303 186.951,162.664 C187.116,162.714 187.324,163.037 187.327,163.237 C187.330,163.442 187.119,163.814 186.976,163.833 C185.775,163.988 184.538,164.323 183.163,163.110 ZM186.516,159.578 C185.453,159.618 184.308,159.961 183.254,158.728 C184.504,158.111 185.534,157.942 186.606,158.180 C186.969,158.261 187.455,158.360 187.321,158.929 C187.252,159.222 186.802,159.567 186.516,159.578 ZM194.278,177.571 C194.464,177.590 194.756,177.998 194.756,178.226 C194.757,178.456 194.478,178.725 194.276,178.904 C194.141,179.023 193.926,179.052 193.746,179.056 C192.417,179.085 191.096,179.030 189.853,178.244 C191.281,177.305 192.784,177.425 194.278,177.571 ZM200.823,177.520 C201.106,177.550 201.518,177.907 201.591,178.210 C201.719,178.748 201.271,178.952 200.899,178.997 C199.469,179.172 198.067,179.017 196.708,178.492 C196.697,178.330 196.685,178.167 196.674,178.004 C197.274,177.845 197.868,177.614 198.475,177.546 C199.253,177.458 200.046,177.437 200.823,177.520 ZM200.147,173.472 C199.096,173.500 198.050,173.460 196.948,172.749 C198.222,171.623 199.502,171.829 200.767,172.052 C200.928,172.080 201.150,172.428 201.159,172.639 C201.168,172.844 200.973,173.124 200.804,173.258 C200.624,173.402 200.371,173.466 200.147,173.472 ZM197.059,158.701 C198.294,158.100 199.467,157.862 200.697,158.297 C200.875,158.360 201.102,158.650 201.110,158.845 C201.118,159.049 200.928,159.352 200.756,159.464 C199.965,159.979 197.932,159.590 197.059,158.701 ZM200.726,162.667 C200.885,162.706 201.098,163.050 201.095,163.249 C201.092,163.457 200.872,163.823 200.724,163.840 C199.517,163.975 198.266,164.343 197.014,163.185 C198.297,162.294 199.507,162.372 200.726,162.667 ZM200.701,167.011 C200.859,167.035 201.122,167.417 201.092,167.565 C201.041,167.820 200.820,168.186 200.634,168.219 C199.460,168.423 198.277,168.542 196.929,167.670 C198.279,166.599 199.500,166.829 200.701,167.011 ZM190.304,158.825 C191.604,157.806 193.344,157.816 194.344,158.927 C193.215,159.976 191.336,159.888 190.304,158.825 ZM193.784,162.645 C193.975,162.695 194.178,163.073 194.225,163.337 C194.250,163.477 193.962,163.843 193.797,163.860 C192.624,163.982 191.415,164.299 190.046,163.156 C191.424,162.384 192.595,162.334 193.784,162.645 ZM193.799,172.023 C193.988,172.051 194.218,172.435 194.274,172.700 C194.307,172.854 194.061,173.220 193.887,173.284 C192.600,173.756 191.402,173.335 190.213,172.822 C191.316,171.643 192.569,171.842 193.799,172.023 ZM193.882,167.037 C194.033,167.068 194.239,167.443 194.229,167.646 C194.219,167.846 193.986,168.168 193.820,168.197 C192.632,168.406 191.434,168.586 190.001,167.596 C191.443,166.661 192.664,166.786 193.882,167.037 ZM148.837,136.183 C147.264,136.220 145.690,136.200 144.116,136.199 C142.357,136.197 140.597,136.219 138.839,136.171 C138.278,136.156 137.721,135.951 137.093,135.819 C137.418,134.661 138.096,134.827 138.649,134.817 C140.732,134.777 142.815,134.782 144.898,134.779 C146.194,134.778 147.491,134.766 148.786,134.816 C149.265,134.835 149.739,135.016 150.343,135.151 C149.975,136.314 149.349,136.171 148.837,136.183 ZM148.824,119.574 C146.601,119.602 144.378,119.592 142.155,119.588 C140.951,119.586 139.746,119.600 138.544,119.540 C138.079,119.516 137.620,119.307 137.099,119.166 C137.391,118.081 138.017,118.231 138.527,118.223 C140.657,118.188 142.787,118.190 144.918,118.188 C146.261,118.187 147.604,118.178 148.946,118.224 C149.376,118.238 149.801,118.417 150.329,118.545 C149.968,119.724 149.341,119.568 148.824,119.574 ZM149.187,102.960 C145.575,102.964 141.964,102.966 138.353,102.925 C137.946,102.921 137.541,102.648 137.129,102.497 C137.320,101.633 137.760,101.638 138.166,101.636 C141.824,101.624 145.481,101.613 149.138,101.632 C149.511,101.634 149.882,101.833 150.242,101.937 C150.134,102.892 149.655,102.960 149.187,102.960 ZM149.268,97.712 C148.725,97.834 148.164,97.889 147.611,97.887 C144.692,97.881 141.772,97.863 138.854,97.815 C138.185,97.804 137.470,97.858 136.883,97.250 C137.166,96.259 137.829,96.384 138.396,96.375 C140.481,96.344 142.566,96.347 144.651,96.342 C145.903,96.338 147.155,96.310 148.405,96.359 C148.925,96.379 149.440,96.569 149.957,96.682 C149.976,96.856 149.995,97.030 150.013,97.204 C149.766,97.380 149.534,97.653 149.268,97.712 ZM148.644,112.966 C149.079,112.969 149.512,113.185 149.946,113.303 C149.966,113.444 149.987,113.585 150.007,113.726 C149.819,113.920 149.654,114.224 149.439,114.284 C148.949,114.422 148.435,114.497 147.930,114.498 C144.917,114.502 141.903,114.483 138.889,114.460 C138.173,114.454 137.453,114.423 136.565,113.568 C137.317,113.297 137.763,113.002 138.212,112.996 C141.689,112.949 145.167,112.946 148.644,112.966 ZM138.810,129.585 C141.822,129.554 144.835,129.538 147.847,129.538 C148.570,129.538 149.319,129.495 150.021,130.133 C149.766,131.038 149.227,131.079 148.730,131.081 C145.254,131.091 141.778,131.090 138.302,131.046 C137.834,131.041 137.370,130.772 136.650,130.544 C137.064,130.129 137.226,129.842 137.435,129.781 C137.881,129.651 138.349,129.589 138.810,129.585 ZM148.582,179.471 C148.859,179.470 149.163,179.446 149.404,179.571 C149.617,179.682 149.759,179.985 149.932,180.203 C149.745,180.409 149.582,180.729 149.364,180.796 C148.968,180.919 148.538,180.924 148.122,180.923 C144.926,180.918 141.729,180.913 138.532,180.874 C137.967,180.867 137.316,180.992 136.713,179.900 C137.325,179.728 137.741,179.513 138.158,179.509 C141.632,179.473 145.107,179.474 148.582,179.471 ZM138.562,184.722 C141.757,184.692 144.952,184.646 148.147,184.670 C148.841,184.676 149.623,184.494 150.232,185.149 C150.141,185.956 149.662,186.036 149.207,186.070 C148.561,186.120 147.911,186.109 147.263,186.110 C144.669,186.113 142.076,186.136 139.483,186.095 C138.721,186.084 137.962,185.889 136.933,185.739 C137.290,185.247 137.411,184.934 137.602,184.851 C137.896,184.723 138.239,184.725 138.562,184.722 ZM148.362,169.502 C145.259,169.504 142.157,169.498 139.054,169.453 C138.397,169.443 137.672,169.521 136.994,168.609 C137.419,168.410 137.714,168.176 138.023,168.146 C138.945,168.059 139.872,168.024 140.797,168.018 C143.251,168.002 145.706,167.995 148.160,168.025 C148.835,168.033 149.508,168.181 150.182,168.264 C150.213,168.414 150.244,168.564 150.275,168.714 C150.095,168.915 149.940,169.226 149.730,169.293 C149.289,169.434 148.819,169.502 148.362,169.502 ZM148.981,162.904 C149.312,162.906 149.641,163.121 149.971,163.236 C149.996,163.362 150.020,163.489 150.044,163.615 C149.778,163.823 149.531,164.137 149.240,164.215 C148.796,164.335 148.320,164.315 147.858,164.315 C144.801,164.312 141.745,164.308 138.689,164.279 C138.067,164.273 137.386,164.384 136.716,163.338 C137.221,163.151 137.545,162.930 137.869,162.927 C141.573,162.895 145.277,162.888 148.981,162.904 ZM148.979,147.666 C148.378,147.709 147.775,147.710 147.173,147.710 C144.395,147.710 141.616,147.710 138.837,147.692 C138.163,147.687 137.458,147.734 136.820,146.969 C137.436,146.052 138.186,146.251 138.839,146.228 C147.677,145.930 148.825,145.996 149.958,146.810 C149.898,147.515 149.447,147.633 148.979,147.666 ZM148.355,152.878 C146.922,152.941 145.485,152.909 144.050,152.898 C142.383,152.885 140.716,152.895 139.052,152.808 C138.411,152.774 137.654,152.980 137.135,152.142 C137.501,151.316 138.160,151.438 138.718,151.423 C140.384,151.380 142.051,151.402 143.718,151.401 C145.339,151.400 146.959,151.395 148.580,151.405 C149.166,151.409 149.773,151.373 150.319,152.043 C149.768,153.023 149.008,152.850 148.355,152.878 ZM92.508,122.039 C98.778,122.017 105.047,122.017 111.317,122.028 C112.616,122.031 112.755,122.189 112.873,123.698 C113.002,125.339 113.024,126.982 112.706,128.812 C112.197,128.812 111.829,128.812 111.461,128.812 C105.378,128.804 99.294,128.801 93.211,128.785 C90.646,128.778 90.566,128.671 90.542,125.619 C90.534,124.579 90.541,123.538 90.541,122.327 C91.259,122.217 91.884,122.042 92.508,122.039 ZM107.727,127.158 C109.058,127.158 110.252,127.158 111.417,127.158 C111.874,125.533 111.865,124.934 111.379,123.566 C110.156,123.368 108.928,123.299 107.727,123.710 C107.727,124.947 107.727,126.013 107.727,127.158 ZM102.401,127.106 C103.811,127.106 105.139,127.106 106.537,127.106 C106.537,125.877 106.537,124.755 106.537,123.568 C105.066,123.568 103.741,123.568 102.311,123.568 C102.235,124.839 101.922,126.000 102.401,127.106 ZM96.732,127.139 C98.169,127.357 99.561,127.415 101.126,127.044 C101.076,125.834 101.029,124.725 100.981,123.564 C99.465,123.564 98.147,123.564 96.732,123.564 C96.732,124.787 96.732,125.903 96.732,127.139 ZM91.730,127.101 C93.021,127.399 94.230,127.463 95.482,126.967 C95.614,125.797 95.754,124.683 95.402,123.645 C94.144,123.645 92.968,123.645 91.730,123.645 C91.730,124.812 91.730,125.848 91.730,127.101 ZM111.342,109.901 C105.396,109.890 99.451,109.885 93.506,109.867 C90.575,109.858 90.555,109.823 90.541,106.373 C90.537,105.442 90.540,104.512 90.540,103.395 C91.244,103.277 91.866,103.086 92.489,103.084 C98.759,103.061 105.030,103.062 111.300,103.075 C112.585,103.078 112.755,103.265 112.871,104.746 C112.999,106.388 113.039,108.034 112.682,109.901 C112.166,109.901 111.754,109.902 111.342,109.901 ZM95.501,104.688 C94.221,104.688 93.047,104.688 91.767,104.688 C91.767,105.885 91.767,106.999 91.767,108.225 C92.996,108.225 94.169,108.225 95.501,108.225 C95.501,106.904 95.501,105.840 95.501,104.688 ZM100.977,104.524 C99.911,104.524 99.042,104.511 98.173,104.529 C97.724,104.539 97.275,104.604 96.734,104.652 C96.734,105.871 96.734,106.986 96.734,108.234 C98.164,108.387 99.555,108.451 101.124,108.139 C101.074,106.916 101.030,105.811 100.977,104.524 ZM106.545,104.523 C105.651,104.523 105.011,104.505 104.372,104.528 C103.699,104.552 103.026,104.615 102.278,104.666 C102.278,105.939 102.278,107.048 102.278,108.186 C103.769,108.186 105.122,108.186 106.545,108.186 C106.545,106.960 106.545,105.845 106.545,104.523 ZM111.427,104.629 C110.213,104.629 109.035,104.629 107.702,104.629 C107.702,105.977 107.702,107.037 107.702,108.210 C109.029,108.210 110.245,108.210 111.474,108.210 C111.827,106.968 111.901,105.823 111.427,104.629 ZM111.464,90.977 C105.519,90.970 99.573,90.955 93.628,90.933 C93.025,90.930 92.419,90.897 91.820,90.816 C90.890,90.691 90.635,90.451 90.597,89.403 C90.539,87.815 90.582,86.223 90.582,84.374 C91.371,84.283 92.009,84.149 92.648,84.147 C98.826,84.131 105.004,84.133 111.182,84.140 C112.616,84.142 112.771,84.308 112.886,85.999 C112.993,87.586 113.040,89.177 112.690,90.865 C112.266,90.905 111.865,90.978 111.464,90.977 ZM95.499,85.739 C94.218,85.739 93.045,85.739 91.767,85.739 C91.767,86.958 91.767,88.076 91.767,89.291 C93.040,89.472 94.253,89.573 95.499,89.164 C95.499,87.970 95.499,86.901 95.499,85.739 ZM100.976,85.680 C99.387,85.575 98.076,85.388 96.733,85.820 C96.733,87.021 96.733,88.135 96.733,89.356 C98.227,89.382 99.624,89.599 101.135,89.171 C101.080,87.956 101.031,86.888 100.976,85.680 ZM106.274,85.596 C104.935,85.622 103.613,85.384 102.315,85.808 C102.196,87.079 101.974,88.201 102.392,89.317 C103.779,89.317 105.105,89.317 106.472,89.317 C106.726,88.037 106.894,86.831 106.274,85.596 ZM111.496,85.785 C110.205,85.384 108.990,85.401 107.689,85.924 C107.689,86.995 107.689,88.060 107.689,89.329 C109.064,89.329 110.252,89.329 111.453,89.329 C111.846,88.103 111.862,86.953 111.496,85.785 ZM111.985,72.040 C105.484,72.005 98.983,71.962 92.482,71.918 C92.204,71.916 91.926,71.878 91.648,71.864 C90.964,71.830 90.618,71.345 90.603,70.596 C90.571,68.953 90.593,67.308 90.593,65.518 C91.191,65.411 91.726,65.234 92.261,65.232 C98.623,65.212 104.986,65.214 111.349,65.223 C112.569,65.225 112.747,65.393 112.858,66.771 C112.994,68.461 113.074,70.160 112.681,71.897 C112.425,71.952 112.205,72.041 111.985,72.040 ZM95.468,66.735 C94.154,66.723 92.976,66.504 91.742,66.914 C91.742,68.071 91.742,69.147 91.742,70.404 C93.103,70.471 94.331,70.816 95.468,70.117 C95.468,68.947 95.468,67.886 95.468,66.735 ZM101.052,67.623 C101.014,67.360 100.916,67.109 100.800,66.683 C99.377,66.642 98.060,66.453 96.740,66.819 C96.740,68.090 96.740,69.211 96.740,70.496 C97.575,70.496 98.306,70.495 99.037,70.496 C101.188,70.498 101.420,70.170 101.052,67.623 ZM106.261,66.756 C104.960,66.756 103.678,66.756 102.378,66.756 C102.163,68.062 101.970,69.226 102.399,70.384 C103.791,70.384 105.116,70.384 106.420,70.384 C106.827,68.569 106.792,67.937 106.261,66.756 ZM110.842,66.649 C109.785,66.530 108.734,66.468 107.633,67.060 C107.700,68.170 107.312,69.307 107.928,70.427 C109.085,70.427 110.232,70.427 111.631,70.427 C111.660,69.406 111.698,68.546 111.706,67.685 C111.712,67.016 111.380,66.709 110.842,66.649 ZM122.639,186.957 C122.128,186.977 121.616,186.962 121.104,186.962 C113.661,186.963 106.217,186.963 98.774,186.963 C88.959,186.963 79.144,186.963 69.329,186.963 C69.329,186.908 69.329,186.854 69.329,186.799 C58.118,186.799 46.907,186.802 35.696,186.798 C29.331,186.796 22.965,186.789 16.599,186.769 C14.400,186.762 14.399,186.740 14.359,184.080 C14.348,183.362 14.330,182.644 14.342,181.926 C14.373,180.111 14.797,179.586 16.362,179.544 C18.222,179.494 20.083,179.489 21.943,179.488 C45.668,179.474 69.393,179.467 93.119,179.453 C102.515,179.447 111.912,179.424 121.309,179.413 C123.992,179.409 124.061,179.481 124.109,182.613 C124.124,183.549 124.101,184.493 124.021,185.424 C123.907,186.763 123.744,186.914 122.639,186.957 ZM19.108,180.943 C18.162,180.943 17.329,180.929 16.497,180.952 C16.276,180.958 16.057,181.076 15.809,181.151 C15.574,182.477 15.475,183.760 15.778,185.173 C16.936,185.173 18.033,185.173 19.313,185.173 C19.342,183.751 19.529,182.381 19.108,180.943 ZM23.778,181.151 C22.656,181.151 21.669,181.151 20.636,181.151 C20.636,182.572 20.636,183.838 20.636,185.151 C21.800,185.200 22.844,185.579 23.778,184.994 C23.778,183.663 23.778,182.436 23.778,181.151 ZM27.922,181.187 C27.005,181.187 26.158,181.187 25.225,181.187 C25.225,182.540 25.225,183.778 25.225,185.153 C26.135,185.153 26.984,185.153 27.922,185.153 C27.922,183.695 27.922,182.500 27.922,181.187 ZM32.517,181.312 C31.365,180.990 30.360,180.960 29.322,181.348 C29.322,182.675 29.322,183.857 29.322,185.083 C30.460,185.287 31.487,185.407 32.517,185.006 C32.517,183.773 32.517,182.629 32.517,181.312 ZM38.822,181.201 C37.149,181.201 35.603,181.201 34.008,181.201 C34.008,182.564 34.008,183.790 34.008,185.128 C35.654,185.128 37.198,185.128 38.822,185.128 C38.822,183.680 38.822,182.456 38.822,181.201 ZM54.454,181.209 C49.672,181.209 45.021,181.209 40.311,181.209 C40.276,182.572 39.964,183.794 40.321,185.112 C45.058,185.177 49.719,185.237 54.454,185.056 C54.454,183.703 54.454,182.569 54.454,181.209 ZM62.401,181.334 C60.628,180.916 57.343,180.970 55.881,181.458 C55.881,182.238 55.875,183.058 55.883,183.877 C55.887,184.249 55.919,184.619 55.945,185.111 C58.186,185.135 60.342,185.244 62.621,185.049 C62.540,183.684 62.470,182.497 62.401,181.334 ZM67.321,181.217 C66.090,181.217 64.964,181.217 63.707,181.217 C63.624,182.511 63.550,183.688 63.462,185.067 C64.954,185.112 66.213,185.340 67.529,184.906 C67.456,183.607 67.392,182.481 67.321,181.217 ZM78.794,181.186 C75.481,181.186 72.203,181.186 68.741,181.186 C68.665,182.531 68.601,183.663 68.539,184.759 C70.263,185.346 77.809,185.315 78.996,184.746 C79.065,183.578 79.240,182.388 78.794,181.186 ZM86.725,181.314 C84.600,180.908 81.636,180.985 80.449,181.454 C80.449,182.580 80.449,183.710 80.449,185.007 C82.633,185.132 84.719,185.359 86.906,184.818 C86.841,183.547 86.782,182.414 86.725,181.314 ZM96.201,181.190 C93.434,181.190 90.820,181.190 88.047,181.190 C87.995,182.553 87.952,183.684 87.910,184.770 C89.757,185.363 95.141,185.266 96.356,184.616 C96.308,183.545 96.257,182.425 96.201,181.190 ZM101.372,181.208 C100.054,181.208 98.834,181.208 97.526,181.208 C97.526,182.537 97.526,183.726 97.526,185.151 C98.971,185.093 100.328,185.320 101.716,184.994 C101.651,183.597 101.798,182.344 101.372,181.208 ZM106.229,181.222 C105.051,181.104 103.972,180.848 102.836,181.465 C102.790,182.647 102.745,183.816 102.695,185.086 C104.034,185.086 105.165,185.086 106.513,185.086 C106.410,183.691 106.323,182.502 106.229,181.222 ZM110.491,181.209 C109.492,181.209 108.646,181.209 107.681,181.209 C107.618,182.526 107.561,183.712 107.495,185.080 C108.649,185.080 109.594,185.080 110.686,185.080 C110.618,183.729 110.556,182.504 110.491,181.209 ZM122.642,181.273 C120.761,180.880 112.886,180.994 111.829,181.436 C111.752,182.581 111.673,183.762 111.587,185.049 C115.351,185.049 118.946,185.049 122.642,185.049 C122.642,183.704 122.642,182.477 122.642,181.273 ZM15.736,162.909 C17.083,162.851 18.433,162.887 19.781,162.887 C36.201,162.887 52.622,162.887 69.042,162.887 C82.718,162.887 96.394,162.881 110.070,162.890 C113.930,162.893 117.791,162.939 121.651,162.968 C121.977,162.970 122.305,162.964 122.627,163.015 C123.639,163.174 124.053,163.629 124.092,164.820 C124.138,166.197 124.073,167.579 124.076,168.959 C124.077,169.810 123.679,170.138 123.030,170.165 C122.333,170.195 121.636,170.219 120.938,170.228 C117.311,170.275 113.684,170.344 110.057,170.353 C104.482,170.367 98.906,170.327 93.330,170.330 C68.072,170.348 42.814,170.373 17.556,170.395 C17.277,170.395 16.998,170.395 16.719,170.395 C14.521,170.393 14.407,170.280 14.353,167.591 C14.332,166.490 14.348,165.378 14.454,164.286 C14.554,163.252 14.851,162.946 15.736,162.909 ZM119.248,168.505 C120.965,168.879 121.682,168.842 122.856,168.293 C122.856,167.357 122.862,166.380 122.854,165.402 C122.849,164.745 122.571,164.381 122.005,164.377 C121.136,164.371 120.268,164.376 119.248,164.376 C119.248,165.859 119.248,167.186 119.248,168.505 ZM114.668,168.613 C115.758,168.613 116.747,168.613 117.842,168.613 C117.842,167.144 117.842,165.913 117.842,164.633 C116.716,164.434 115.691,164.230 114.668,164.747 C114.668,166.045 114.668,167.268 114.668,168.613 ZM110.645,168.568 C111.582,168.568 112.424,168.568 113.316,168.568 C113.316,167.214 113.316,166.027 113.316,164.647 C112.324,164.647 111.481,164.647 110.645,164.647 C110.645,166.032 110.645,167.266 110.645,168.568 ZM105.981,168.543 C107.102,168.652 108.138,168.981 109.140,168.423 C109.140,167.158 109.140,165.972 109.140,164.654 C108.052,164.654 107.066,164.654 105.981,164.654 C105.981,166.110 105.981,167.296 105.981,168.543 ZM99.608,168.614 C101.303,168.626 102.885,168.818 104.413,168.543 C104.413,167.095 104.413,165.870 104.413,164.593 C102.776,164.593 101.263,164.593 99.608,164.593 C99.608,166.035 99.608,167.255 99.608,168.614 ZM84.035,168.494 C88.804,168.658 93.463,168.688 98.215,168.514 C98.215,167.103 98.215,165.924 98.215,164.617 C93.432,164.529 88.780,164.501 84.035,164.586 C84.035,165.966 84.035,167.142 84.035,168.494 ZM82.533,168.472 C82.533,167.127 82.533,165.946 82.533,164.792 C80.630,164.376 77.482,164.395 76.063,164.826 C76.012,165.983 75.959,167.161 75.901,168.472 C78.163,168.472 80.312,168.472 82.533,168.472 ZM71.108,168.474 C72.386,168.474 73.601,168.474 74.950,168.474 C74.843,167.142 75.069,165.904 74.662,164.683 C73.479,164.683 72.354,164.683 71.108,164.683 C71.108,165.976 71.108,167.107 71.108,168.474 ZM59.714,168.516 C63.106,168.637 66.464,168.741 69.760,168.421 C69.760,167.054 69.760,165.925 69.760,164.648 C66.302,164.648 62.985,164.648 59.588,164.648 C59.434,165.991 59.220,167.209 59.714,168.516 ZM51.737,168.365 C53.887,168.685 55.939,168.635 58.064,168.433 C58.064,167.121 58.064,165.990 58.064,164.675 C55.877,164.461 53.830,164.413 51.737,164.694 C51.737,166.017 51.737,167.144 51.737,168.365 ZM42.295,168.449 C45.090,168.619 47.788,168.686 50.620,168.401 C50.552,167.087 50.494,165.951 50.426,164.651 C47.640,164.651 45.025,164.651 42.295,164.651 C42.295,165.966 42.295,167.127 42.295,168.449 ZM41.123,168.527 C41.063,167.098 41.012,165.904 40.958,164.644 C39.563,164.644 38.298,164.644 36.986,164.644 C36.889,165.970 36.801,167.153 36.705,168.464 C38.239,168.668 39.634,168.634 41.123,168.527 ZM35.829,168.490 C35.753,167.162 35.686,165.984 35.611,164.661 C34.444,164.661 33.409,164.661 32.264,164.661 C32.168,165.992 32.080,167.208 31.987,168.490 C33.326,168.490 34.501,168.490 35.829,168.490 ZM31.022,168.344 C30.931,167.124 30.845,165.976 30.747,164.656 C29.770,164.656 28.919,164.656 28.001,164.656 C27.914,165.995 27.836,167.186 27.752,168.482 C28.931,168.634 29.957,168.809 31.022,168.344 ZM15.818,168.475 C19.533,168.475 23.155,168.475 26.934,168.475 C26.818,167.150 26.715,165.965 26.606,164.721 C24.634,164.384 16.810,164.479 15.818,164.831 C15.818,166.004 15.818,167.185 15.818,168.475 ZM122.493,155.258 C119.192,155.272 115.890,155.265 112.589,155.259 C111.473,155.257 110.357,155.222 109.242,155.221 C92.734,155.219 76.227,155.237 59.719,155.212 C52.001,155.200 44.284,155.083 36.566,155.055 C33.834,155.046 31.102,155.212 28.370,155.203 C25.071,155.192 21.773,155.078 18.474,155.013 C17.498,154.994 16.520,155.026 15.545,154.972 C14.591,154.920 14.418,154.712 14.378,153.576 C14.335,152.363 14.321,151.147 14.349,149.934 C14.383,148.447 14.752,147.933 16.021,147.844 C17.644,147.731 19.274,147.732 20.900,147.728 C28.480,147.710 36.059,147.704 43.639,147.701 C52.241,147.697 60.844,147.700 69.446,147.700 C69.446,147.692 69.446,147.684 69.446,147.676 C86.791,147.676 104.135,147.676 121.480,147.677 C123.970,147.677 124.046,147.753 124.106,150.738 C124.125,151.674 124.104,152.616 124.033,153.548 C123.917,155.064 123.744,155.253 122.493,155.258 ZM19.235,149.368 C18.021,149.368 16.936,149.368 15.715,149.368 C15.715,150.838 15.715,152.079 15.715,153.436 C16.967,153.436 18.098,153.436 19.235,153.436 C19.235,152.015 19.235,150.730 19.235,149.368 ZM23.771,149.297 C23.126,149.297 22.621,149.282 22.117,149.302 C21.623,149.321 21.131,149.376 20.584,149.419 C20.584,150.817 20.584,152.060 20.584,153.483 C21.802,153.498 22.851,153.887 23.771,153.287 C23.771,151.897 23.771,150.667 23.771,149.297 ZM27.886,149.403 C26.964,149.403 26.148,149.403 25.229,149.403 C25.229,150.855 25.229,152.097 25.229,153.422 C26.169,153.422 27.018,153.422 27.886,153.422 C27.886,151.995 27.886,150.715 27.886,149.403 ZM32.477,149.475 C31.410,149.475 30.431,149.475 29.318,149.475 C29.283,150.580 29.247,151.556 29.223,152.532 C29.207,153.208 29.499,153.548 30.065,153.550 C30.839,153.554 31.613,153.552 32.477,153.552 C32.477,152.003 32.477,150.820 32.477,149.475 ZM38.883,149.332 C37.939,149.332 37.158,149.332 36.377,149.332 C35.603,149.332 34.828,149.332 34.001,149.332 C34.001,150.798 34.001,152.032 34.001,153.379 C35.683,153.639 37.266,153.638 38.883,153.321 C38.883,152.001 38.883,150.804 38.883,149.332 ZM54.410,149.432 C49.670,149.432 45.052,149.432 40.301,149.432 C40.238,150.701 40.179,151.881 40.106,153.328 C45.026,153.472 49.725,153.513 54.410,153.273 C54.410,151.872 54.410,150.694 54.410,149.432 ZM62.404,149.412 C60.212,149.305 58.107,149.209 55.961,149.505 C55.961,150.858 55.961,152.043 55.961,153.262 C58.199,153.262 60.353,153.262 62.612,153.262 C62.543,151.991 62.482,150.853 62.404,149.412 ZM67.341,149.516 C66.069,149.331 64.916,149.122 63.679,149.665 C63.615,150.872 63.553,152.035 63.487,153.268 C64.918,153.268 66.137,153.268 67.530,153.268 C67.460,151.890 67.404,150.762 67.341,149.516 ZM78.770,149.389 C75.422,149.338 72.114,149.220 68.732,149.483 C68.658,150.839 68.596,151.965 68.527,153.243 C72.091,153.490 75.489,153.519 78.948,153.287 C79.095,151.894 79.243,150.672 78.770,149.389 ZM86.731,149.415 C84.535,149.316 82.521,149.247 80.486,149.467 C80.313,150.816 80.248,151.988 80.531,153.252 C82.646,153.429 84.699,153.453 86.894,153.201 C86.838,151.900 86.790,150.771 86.731,149.415 ZM96.044,149.493 C93.195,149.136 89.182,149.243 88.013,149.727 C88.013,150.821 88.013,151.956 88.013,153.231 C90.770,153.456 93.469,153.463 96.254,153.229 C96.306,151.855 96.478,150.635 96.044,149.493 ZM101.511,149.424 C100.144,149.424 98.918,149.424 97.551,149.424 C97.551,150.854 97.551,152.075 97.551,153.294 C98.984,153.294 100.301,153.294 101.771,153.294 C101.678,151.919 101.596,150.695 101.511,149.424 ZM106.214,149.516 C104.989,149.306 103.945,149.136 102.884,149.682 C102.832,150.898 102.538,152.071 102.861,153.314 C104.062,153.314 105.198,153.314 106.528,153.314 C106.410,151.883 106.312,150.702 106.214,149.516 ZM110.465,149.426 C109.475,149.426 108.661,149.426 107.697,149.426 C107.628,150.733 107.564,151.959 107.491,153.336 C108.587,153.336 109.532,153.336 110.709,153.336 C110.620,151.913 110.544,150.688 110.465,149.426 ZM122.731,150.093 C122.728,149.888 122.636,149.685 122.572,149.431 C119.021,149.431 115.512,149.431 111.862,149.431 C111.769,150.739 111.683,151.964 111.579,153.422 C115.381,153.411 119.013,153.536 122.738,153.265 C122.738,152.074 122.746,151.083 122.731,150.093 Z"/>
</svg>