<svg 
 xmlns="http://www.w3.org/2000/svg"
 xmlns:xlink="http://www.w3.org/1999/xlink"
 width="292px" height="175px">
<path fill-rule="evenodd"  opacity="0.702" fill="rgb(130, 130, 130)"
 d="M291.058,90.561 C290.291,90.800 289.388,90.438 288.605,90.052 C285.382,88.464 282.082,86.794 278.795,85.090 C278.511,84.942 278.224,84.797 277.937,84.651 C276.633,83.990 275.285,83.306 274.093,82.398 C272.080,80.864 269.798,79.125 269.442,75.862 C269.420,75.819 269.294,75.726 269.211,75.664 C268.859,75.401 268.270,74.961 268.192,73.974 C268.172,73.735 268.151,73.402 268.125,73.004 C268.027,71.518 267.865,69.031 267.560,67.447 C267.434,66.795 267.119,66.149 266.785,65.464 C266.504,64.887 266.213,64.290 266.017,63.647 L265.778,62.870 C265.188,60.965 264.579,58.995 264.387,56.978 C264.267,55.714 263.944,55.013 263.154,54.298 C262.640,53.832 262.142,53.180 261.661,52.549 C261.199,51.945 260.339,50.819 259.990,50.786 C259.987,50.786 259.983,50.786 259.980,50.786 C259.991,50.862 260.019,50.954 260.046,51.003 C260.584,51.774 261.273,52.496 261.881,53.134 C262.097,53.361 262.304,53.578 262.492,53.785 C262.612,53.916 262.683,54.084 262.695,54.261 C262.721,54.632 262.742,54.986 262.762,55.327 C262.806,56.049 262.848,56.731 262.914,57.393 C262.935,57.604 263.068,57.837 263.222,58.107 C263.575,58.726 264.166,59.762 263.135,61.046 C262.756,61.518 262.313,61.643 262.008,61.665 C261.069,61.736 260.249,60.966 259.456,60.225 C259.154,59.943 258.697,59.516 258.520,59.458 C258.417,59.454 258.310,59.707 258.183,60.320 L258.154,60.454 C257.999,61.162 257.646,61.750 257.305,62.319 C256.705,63.320 256.384,63.931 256.750,64.839 C257.219,66.003 257.558,67.217 257.885,68.392 C258.053,68.994 258.226,69.617 258.414,70.217 C258.543,70.632 258.623,71.103 258.700,71.558 C258.772,71.981 258.899,72.736 259.056,72.989 C259.259,72.917 259.627,72.683 259.859,72.535 C260.576,72.078 261.559,71.453 262.295,72.215 C263.194,73.145 262.217,74.362 261.633,75.089 C261.488,75.270 261.338,75.456 261.276,75.562 C261.094,75.869 260.879,76.127 260.670,76.377 C260.463,76.626 260.267,76.862 260.153,77.094 C259.922,77.566 259.730,78.057 259.526,78.577 C259.316,79.117 259.097,79.675 258.829,80.217 C258.514,80.857 257.452,81.141 256.861,80.894 C256.325,80.672 256.060,79.971 256.045,79.420 C255.767,79.630 255.477,79.836 255.175,80.051 C254.556,80.490 253.423,81.294 253.228,81.668 C253.599,83.960 252.341,84.983 251.329,85.807 C251.070,86.018 250.826,86.216 250.605,86.432 C250.546,86.494 250.454,86.745 250.393,86.912 C250.229,87.361 250.024,87.920 249.506,88.280 C248.192,89.195 244.408,92.445 244.500,94.266 C244.667,97.581 244.732,100.118 244.708,102.494 C244.679,105.529 244.552,108.502 244.332,111.328 C244.268,112.145 244.068,112.929 243.873,113.688 C243.722,114.279 243.579,114.837 243.500,115.398 C243.490,115.475 243.476,115.560 243.462,115.649 C243.432,115.840 243.370,116.227 243.372,116.476 C243.614,116.417 243.939,116.221 244.212,116.057 C244.314,115.995 244.414,115.935 244.512,115.879 C244.573,115.827 244.763,115.553 244.877,115.390 C245.230,114.881 245.564,114.399 246.136,114.399 C246.149,114.399 246.164,114.399 246.178,114.400 C246.501,114.413 246.785,114.592 246.957,114.890 C247.028,115.012 247.126,115.208 247.242,115.442 C247.261,115.481 247.284,115.528 247.311,115.580 C247.282,115.381 247.331,115.185 247.439,115.027 C247.515,114.819 247.643,114.663 247.824,114.557 C248.162,114.356 248.521,114.427 248.796,114.512 C249.365,114.687 249.659,115.237 249.945,115.768 C250.062,115.986 250.279,116.392 250.398,116.469 C250.466,116.492 250.609,116.516 250.778,116.437 C251.030,116.320 251.253,116.021 251.406,115.595 C251.362,115.462 250.924,115.188 250.714,115.057 C250.226,114.752 249.720,114.436 249.600,113.866 C249.555,113.655 249.551,113.332 249.784,112.988 C250.474,111.970 252.160,111.721 253.514,111.520 L253.823,111.474 C254.456,111.376 255.069,111.545 255.610,111.694 C255.921,111.779 256.214,111.859 256.479,111.884 C256.642,111.900 256.804,111.903 256.963,111.906 C257.800,111.924 259.066,111.952 259.580,113.750 C259.658,114.025 260.032,114.425 260.299,114.593 C260.286,114.132 259.874,113.023 258.168,111.852 C256.136,110.457 255.963,109.008 256.041,108.268 C256.127,107.459 256.603,106.763 257.253,106.495 C258.360,106.041 259.062,106.640 259.441,106.962 C259.514,107.024 259.583,107.087 259.657,107.135 C260.958,107.979 262.261,108.901 263.531,109.878 C263.913,110.171 264.185,110.550 264.426,110.885 C264.530,111.028 264.632,111.173 264.744,111.306 C264.959,111.562 265.156,111.831 265.346,112.090 C265.740,112.627 266.112,113.135 266.556,113.426 C267.335,113.939 268.085,114.472 268.810,114.989 C270.242,116.008 271.595,116.970 272.432,117.207 C272.623,117.262 272.823,117.314 273.027,117.369 C274.444,117.744 276.207,118.212 276.937,119.580 C277.189,120.051 277.087,120.440 277.004,120.630 C276.724,121.271 275.975,121.467 275.181,121.675 C274.825,121.768 274.093,121.960 273.942,122.136 C273.948,122.143 273.955,122.176 273.975,122.226 L274.084,122.501 C274.910,124.590 275.690,126.563 278.055,127.142 C278.149,127.165 278.282,127.194 278.440,127.228 C280.356,127.640 281.836,128.038 282.010,129.078 C282.072,129.446 281.982,129.982 281.207,130.450 C280.496,130.880 280.366,131.854 280.262,132.636 C280.169,133.339 280.041,134.301 279.128,134.366 C278.129,134.435 277.433,133.472 276.875,132.696 C276.776,132.558 276.680,132.425 276.589,132.307 C276.109,131.688 275.671,131.036 275.247,130.405 C274.662,129.533 274.108,128.710 273.456,127.969 C272.529,126.916 271.524,125.882 270.552,124.882 C268.900,123.182 267.191,121.424 265.763,119.475 C264.912,118.313 263.637,117.706 262.962,117.544 C263.112,118.606 264.034,121.106 265.155,122.147 C267.511,124.335 269.063,127.184 269.766,130.615 C270.117,132.323 270.322,134.073 270.520,135.765 C270.625,136.659 270.733,137.583 270.861,138.483 C270.899,138.751 270.982,139.038 271.069,139.342 C271.228,139.890 271.407,140.512 271.342,141.157 C271.144,143.103 271.160,145.116 271.176,147.064 C271.204,150.623 271.234,154.304 270.003,157.923 C268.893,161.188 265.391,161.316 263.896,161.371 C263.787,161.375 263.686,161.379 263.594,161.383 C263.375,161.668 263.098,162.648 262.928,163.248 C262.533,164.644 262.159,165.962 261.265,166.400 C260.896,166.580 260.490,166.590 260.091,166.427 C259.073,166.015 258.902,164.745 258.703,163.274 C258.607,162.562 258.498,161.754 258.290,160.996 C258.074,160.211 257.625,159.427 257.228,158.736 C256.747,157.898 256.400,157.292 256.467,156.710 C256.679,154.881 258.031,152.825 260.509,152.498 C260.565,152.401 260.622,152.269 260.637,152.192 C260.282,150.347 259.836,148.414 259.309,146.448 C259.218,146.106 259.019,145.698 258.827,145.304 C258.408,144.443 257.975,143.553 258.288,142.709 C258.642,141.754 258.272,141.030 258.020,140.683 C257.774,140.346 257.513,140.178 257.352,140.112 C257.353,140.291 257.324,140.507 257.189,140.719 C256.857,141.242 256.570,141.804 256.266,142.398 C255.430,144.037 254.565,145.732 252.672,146.672 C251.817,147.096 249.630,147.719 248.694,146.809 C247.531,145.678 246.406,145.277 244.857,144.968 C243.147,144.628 241.855,144.822 240.666,145.600 C238.834,146.799 237.516,145.587 237.082,145.188 C236.246,144.421 235.451,143.597 234.682,142.801 C233.742,141.827 232.770,140.820 231.743,139.941 L231.672,139.880 C230.280,138.688 228.701,137.336 227.088,136.913 C225.935,136.612 224.481,136.939 223.076,137.256 C222.692,137.342 222.311,137.428 221.938,137.501 C221.603,137.567 221.201,137.878 220.813,138.179 C220.633,138.319 220.453,138.457 220.272,138.582 C220.048,138.737 219.828,138.917 219.595,139.108 C219.140,139.481 218.669,139.867 218.091,140.125 C217.171,140.537 216.802,141.182 216.863,142.313 C217.763,142.973 218.567,143.665 218.922,144.608 C219.162,145.247 219.024,145.920 218.902,146.514 C218.838,146.825 218.777,147.119 218.776,147.367 C218.772,148.168 218.796,148.989 218.821,149.783 C218.849,150.712 218.878,151.673 218.862,152.626 C218.850,153.348 218.647,154.140 218.290,154.858 C217.930,155.581 217.424,156.325 216.789,157.070 C216.019,157.970 215.329,158.347 214.733,158.191 C213.770,157.937 212.753,158.212 211.677,158.503 C210.225,158.896 208.588,159.338 206.879,158.473 C206.634,158.620 206.212,158.953 205.949,159.256 C205.658,159.593 205.405,159.993 205.138,160.417 C204.727,161.068 204.302,161.742 203.679,162.264 C200.085,165.279 196.736,166.684 193.143,166.684 C193.133,166.684 193.122,166.684 193.111,166.684 C192.188,166.682 191.199,166.394 190.465,165.912 C187.803,164.165 183.329,164.120 180.697,165.814 C179.604,166.517 178.239,166.696 176.950,166.305 C175.570,165.887 174.452,164.896 173.883,163.587 C173.715,163.200 173.142,162.730 172.657,162.582 C171.017,162.078 169.308,161.660 167.655,161.255 C167.182,161.139 166.710,161.024 166.238,160.906 C166.215,160.937 166.192,160.969 166.169,161.001 C165.902,161.367 165.650,161.714 165.512,162.066 C165.402,162.347 165.277,162.617 165.156,162.879 C164.620,164.032 164.348,164.731 164.981,165.682 C165.674,166.726 165.797,167.836 165.317,168.728 C164.806,169.676 163.725,170.219 162.348,170.219 C162.326,170.219 162.305,170.219 162.285,170.219 C161.782,170.219 161.279,170.253 160.746,170.289 C159.902,170.347 159.029,170.406 158.151,170.319 C156.659,170.171 155.500,169.780 154.708,169.155 C153.088,167.879 151.184,167.493 148.718,167.942 C148.429,167.994 148.092,168.225 147.735,168.470 C147.288,168.777 146.780,169.125 146.173,169.244 C145.173,169.442 144.359,170.146 143.497,170.891 C142.336,171.896 141.023,173.023 139.090,172.956 C139.056,173.003 139.023,173.045 138.990,173.083 C138.296,173.865 137.614,174.247 136.908,174.247 C136.870,174.247 136.832,174.246 136.794,174.243 C136.051,174.201 135.387,173.747 134.764,172.856 C134.179,172.019 133.687,171.791 132.739,171.919 C131.738,172.055 130.376,171.559 129.644,170.792 C128.614,169.714 127.849,168.397 127.176,167.134 C126.669,166.180 126.086,165.952 125.028,166.297 C122.567,167.098 120.838,166.581 119.296,164.564 L118.360,165.222 C118.162,165.361 117.912,165.400 117.681,165.331 C117.450,165.261 117.264,165.090 117.177,164.865 C116.871,164.079 116.566,163.310 116.266,162.551 C115.569,160.787 114.910,159.121 114.290,157.411 C113.666,155.690 112.988,154.039 111.556,152.768 C110.940,152.221 110.675,151.440 110.395,150.613 C110.357,150.500 110.318,150.385 110.278,150.270 C110.164,150.315 110.048,150.361 109.931,150.408 C108.949,150.797 107.835,151.239 106.662,151.505 C105.859,151.687 105.054,151.586 104.275,151.488 C103.954,151.448 103.651,151.410 103.357,151.392 C103.133,151.379 102.926,151.271 102.787,151.096 C102.648,150.920 102.591,150.694 102.629,150.473 L102.846,149.233 C102.611,149.086 102.379,148.929 102.153,148.776 C101.438,148.292 100.705,147.780 100.131,147.805 C99.462,147.819 98.628,147.766 98.139,147.216 C97.662,146.677 97.759,145.995 97.846,145.394 C97.866,145.249 97.889,145.095 97.904,144.935 C97.999,143.949 97.853,143.189 97.716,143.041 C96.211,141.913 94.859,141.336 93.188,142.214 C92.175,142.747 90.936,142.766 89.753,142.739 C87.665,142.692 85.963,142.552 84.395,142.297 C81.776,141.871 79.187,141.305 76.779,140.756 C76.365,140.662 76.161,140.708 76.117,140.735 C76.122,140.738 76.095,140.826 76.133,141.036 C76.225,141.556 76.508,142.103 76.867,142.797 C77.060,143.169 77.279,143.591 77.500,144.073 C77.627,144.348 77.583,144.671 77.389,144.904 C77.195,145.136 76.885,145.237 76.591,145.161 L73.894,144.468 C73.516,145.725 72.632,146.579 71.377,146.904 C72.783,150.054 73.138,151.224 71.579,152.150 C69.645,153.298 68.209,152.130 67.492,151.396 C66.767,151.423 65.818,151.376 65.364,150.721 C65.046,150.263 64.874,149.721 64.722,149.242 C64.578,148.787 64.429,148.317 64.215,148.145 C64.055,148.016 63.549,147.981 63.180,147.955 C62.505,147.908 61.740,147.855 61.222,147.334 C60.514,146.620 59.950,146.688 58.928,146.812 L58.680,146.842 C57.939,146.930 57.063,146.686 56.002,146.103 C55.514,145.835 55.164,145.441 54.759,144.985 C54.583,144.787 54.391,144.570 54.165,144.341 C53.952,144.126 53.882,143.808 53.985,143.524 C54.447,142.239 53.732,141.440 52.430,140.138 C51.876,139.585 51.304,139.013 50.864,138.345 C50.580,137.914 49.910,137.579 49.261,137.256 C49.038,137.145 48.817,137.034 48.608,136.920 C48.507,136.884 48.146,136.930 47.972,136.951 C47.755,136.979 47.556,137.000 47.356,137.022 C46.659,137.098 46.002,137.170 45.411,137.367 C44.965,137.515 44.507,137.603 44.064,137.687 C42.810,137.926 42.018,138.123 41.577,139.124 C41.337,139.669 40.647,139.897 40.361,139.969 C39.901,140.087 39.530,140.039 39.261,139.831 C38.704,139.401 38.434,138.603 38.413,138.003 C38.399,137.566 38.425,137.135 38.465,136.696 C37.665,137.124 36.973,137.496 36.386,137.950 C35.538,138.608 34.790,139.391 33.998,140.220 C33.833,140.392 33.667,140.565 33.502,140.736 C33.424,140.816 33.346,140.934 33.299,141.021 C33.525,141.660 33.459,142.315 33.400,142.899 C33.296,143.930 33.318,144.323 33.968,144.687 C34.702,145.096 34.620,146.289 34.550,146.782 C34.361,148.126 34.132,149.487 33.911,150.803 C33.828,151.296 33.744,151.791 33.663,152.289 C33.600,152.668 33.272,152.946 32.888,152.946 L27.703,152.946 L23.850,154.556 C23.871,154.711 23.897,154.871 23.923,155.034 C24.067,155.928 24.216,156.851 23.792,157.621 C22.281,160.366 21.729,162.508 21.946,164.782 C21.986,165.196 21.832,165.539 21.708,165.815 C21.660,165.921 21.605,166.043 21.593,166.109 C21.143,168.595 18.736,168.282 17.945,168.179 C16.836,168.035 16.128,166.449 15.876,165.773 C15.610,165.062 15.474,164.327 15.341,163.617 C15.257,163.162 15.176,162.731 15.065,162.312 C14.878,161.608 14.637,160.891 14.404,160.199 C14.297,159.880 14.190,159.562 14.087,159.243 C14.010,159.003 14.054,158.748 14.192,158.550 L10.429,156.012 C10.213,155.865 10.083,155.622 10.083,155.361 C10.083,155.320 10.088,155.249 10.095,155.153 C10.113,154.927 10.146,154.505 10.081,154.131 C9.786,152.452 8.660,151.242 7.468,149.962 C6.417,148.832 5.332,147.666 4.756,146.110 C4.587,146.040 4.376,145.919 4.235,145.683 L4.146,145.538 C3.915,145.162 3.627,144.693 3.613,144.145 C3.533,141.162 2.647,138.707 0.904,136.640 C0.784,136.498 0.719,136.319 0.719,136.134 L0.719,133.778 C0.719,133.599 0.781,133.424 0.894,133.285 C1.100,133.028 1.728,132.245 2.581,132.298 C3.361,132.341 3.786,133.004 4.067,133.443 C4.083,133.468 4.101,133.496 4.120,133.525 L7.282,132.599 L7.081,130.995 C7.048,130.727 7.155,130.460 7.365,130.289 C7.575,130.118 7.858,130.067 8.114,130.155 L10.362,130.922 C10.247,130.762 10.196,130.565 10.220,130.369 C10.246,130.159 10.355,129.969 10.524,129.840 C12.496,128.336 14.347,128.378 15.920,129.947 L20.000,126.053 C20.000,126.050 19.999,126.047 19.999,126.044 C19.864,125.054 19.281,124.193 18.664,123.281 C17.940,122.212 17.129,121.014 17.032,119.479 C16.939,119.435 16.849,119.392 16.776,119.350 C14.542,118.059 13.868,115.951 14.877,113.414 C14.955,113.216 14.922,112.844 14.858,112.740 C13.710,111.185 13.944,109.659 15.519,108.446 C15.923,108.135 16.133,107.838 16.145,107.564 C16.159,107.239 15.895,106.811 15.401,106.359 C15.032,106.021 14.484,105.777 13.790,105.468 C13.403,105.295 12.963,105.099 12.482,104.855 C12.283,104.753 12.136,104.572 12.079,104.356 C12.021,104.140 12.059,103.910 12.182,103.723 L14.917,99.564 C15.055,99.355 15.284,99.224 15.535,99.211 C15.785,99.206 16.027,99.307 16.184,99.503 C16.336,99.692 16.450,99.850 16.544,99.981 C16.595,100.052 16.657,100.139 16.691,100.180 C16.990,100.341 17.295,100.490 17.610,100.638 C17.634,100.306 17.678,99.969 17.777,99.629 C17.913,99.164 18.024,98.673 18.141,98.154 C18.468,96.703 18.806,95.203 19.754,94.119 L20.120,93.703 C20.695,93.052 21.111,92.582 21.138,92.307 C21.166,92.015 20.818,91.426 20.286,90.632 L20.254,90.588 C20.160,90.466 20.004,90.261 19.970,89.964 C19.927,89.591 19.844,89.205 19.757,88.797 C19.416,87.196 18.991,85.204 21.208,83.631 C21.369,83.517 21.523,83.074 21.647,82.717 C21.748,82.427 21.852,82.128 21.996,81.843 C22.031,81.775 22.065,81.704 22.099,81.631 C22.283,81.245 22.512,80.764 22.947,80.457 C23.693,79.930 24.470,79.440 25.221,78.965 C25.696,78.665 26.171,78.365 26.640,78.056 C28.469,76.847 30.644,75.813 33.088,77.019 L33.088,74.559 C33.088,74.142 33.414,73.798 33.830,73.775 L36.534,73.625 C38.615,73.510 40.626,73.398 42.635,73.282 C44.179,73.192 44.487,72.553 44.591,71.876 C44.611,71.741 44.631,71.605 44.650,71.470 C44.810,70.337 44.992,69.055 45.976,68.400 C46.452,68.083 47.035,67.962 47.745,68.036 C48.258,65.888 48.823,63.691 51.679,62.897 C51.925,62.829 52.275,62.326 52.556,61.922 C52.791,61.582 53.035,61.232 53.327,60.931 C53.533,60.719 53.747,60.459 53.973,60.184 C54.683,59.321 55.418,58.428 56.415,58.356 C57.707,58.262 58.088,57.779 58.047,56.289 C58.002,54.629 58.763,53.441 60.375,52.659 C62.130,51.807 63.752,52.346 65.183,52.822 C65.617,52.966 66.026,53.102 66.434,53.202 L66.475,53.212 C67.316,53.417 68.270,53.650 68.741,54.485 C69.039,55.012 69.067,55.674 68.824,56.452 C68.722,56.780 68.418,57.004 68.074,57.004 L67.931,57.004 C68.151,57.318 68.351,57.610 68.539,57.908 C68.695,58.155 68.871,58.401 69.057,58.662 C69.563,59.373 70.087,60.107 70.308,60.985 C70.542,61.917 70.656,62.877 70.767,63.805 C70.919,65.078 71.062,66.280 71.489,67.352 C72.068,68.807 71.640,70.027 71.296,71.008 C71.073,71.646 70.880,72.196 70.930,72.755 C70.985,73.363 70.420,73.740 70.208,73.881 C68.698,74.889 66.779,75.117 64.943,74.508 C63.019,73.870 61.479,72.394 60.826,70.558 C60.647,70.056 60.461,69.383 60.264,68.670 C60.004,67.727 59.502,65.907 59.092,65.215 C59.047,65.506 59.113,66.011 59.158,66.352 C59.228,66.880 59.294,67.380 59.194,67.826 C59.171,67.928 59.149,68.034 59.127,68.143 C58.963,68.934 58.777,69.831 58.122,70.343 C56.128,71.900 55.354,73.896 55.757,76.444 C55.780,76.592 55.975,76.815 56.192,77.031 C56.259,76.803 56.324,76.574 56.388,76.345 C56.359,76.177 56.338,75.939 56.467,75.688 C56.721,75.192 56.989,74.705 57.257,74.217 L57.519,73.740 C57.643,73.514 57.869,73.363 58.125,73.335 C58.382,73.309 58.634,73.408 58.802,73.602 C58.935,73.756 59.080,73.904 59.224,74.052 C59.600,74.438 59.989,74.838 60.258,75.358 C60.726,76.262 61.131,77.202 61.521,78.116 C61.551,78.061 61.579,78.005 61.607,77.950 C61.757,77.660 61.911,77.360 62.128,77.085 C62.924,76.083 63.670,75.528 64.408,75.389 C65.607,75.164 66.813,75.099 68.090,75.030 C68.608,75.002 69.140,74.973 69.688,74.932 C70.029,74.910 70.348,75.106 70.475,75.424 L71.288,77.457 C72.562,76.790 73.056,76.437 72.641,75.134 C72.385,74.331 73.317,73.524 73.668,73.336 C75.360,72.428 75.937,71.444 75.725,69.827 C75.683,69.508 75.840,69.195 76.120,69.039 C76.401,68.882 76.750,68.913 76.999,69.115 C78.883,70.649 80.802,72.551 79.717,75.720 C79.595,76.074 79.239,76.292 78.870,76.244 C78.654,76.215 78.443,76.175 78.239,76.136 C77.874,76.066 77.559,76.005 77.318,76.040 C76.932,76.095 76.559,76.211 76.370,76.297 C76.250,77.048 76.289,77.725 76.478,78.164 C76.673,78.266 77.143,78.370 77.410,78.375 C78.617,77.038 80.161,77.027 81.413,77.017 C81.563,77.016 81.713,77.015 81.863,77.011 C82.625,76.995 83.580,76.956 84.578,76.915 C90.626,76.668 91.204,76.721 91.461,77.543 C91.666,78.196 91.144,78.757 90.422,79.532 C90.360,79.598 90.289,79.675 90.214,79.756 C91.229,79.913 92.907,80.091 94.135,80.221 C98.252,80.657 98.378,80.685 98.615,81.229 C98.803,81.661 98.645,82.122 98.267,82.966 C98.451,82.754 98.650,82.588 98.826,82.441 C99.250,82.089 99.392,81.970 99.319,81.447 C99.188,80.507 98.995,79.527 98.745,78.535 C98.702,78.363 98.608,78.165 98.508,77.955 C98.325,77.568 98.117,77.130 98.110,76.619 C98.099,75.816 98.887,75.049 99.460,74.804 C99.875,74.626 100.344,74.779 100.664,74.938 C100.955,75.082 101.461,75.399 101.588,75.902 C102.193,78.309 103.470,79.734 105.608,80.387 C106.083,80.532 106.329,80.996 106.452,81.359 C106.785,82.346 107.420,83.206 108.091,84.117 C108.818,85.103 109.564,86.114 109.971,87.347 C109.975,86.208 109.341,84.661 108.978,83.775 C108.789,83.315 108.653,82.982 108.599,82.734 C108.451,82.055 108.893,81.435 109.361,80.779 C110.039,79.829 110.497,79.097 110.216,78.331 C109.951,77.612 110.666,76.643 111.255,76.415 C113.478,75.556 114.666,73.680 115.882,71.499 C116.200,70.929 117.017,70.329 117.779,70.275 C119.080,69.931 120.534,70.494 121.275,71.640 C122.045,72.832 121.867,74.274 120.797,75.496 C120.606,75.714 120.408,75.857 120.234,75.983 C119.851,76.260 119.489,76.522 119.403,78.301 C119.209,82.334 118.767,82.995 118.115,83.542 C117.995,83.642 117.796,83.810 117.781,85.943 C117.781,85.989 117.776,86.036 117.768,86.082 C117.671,86.598 117.504,87.189 117.327,87.815 C117.013,88.925 116.583,90.445 116.786,91.089 C117.101,92.094 116.099,93.454 114.302,95.771 C113.713,96.530 112.863,97.627 112.599,98.147 C112.640,98.168 112.687,98.184 112.740,98.198 C113.108,98.292 113.562,98.186 113.749,98.075 C114.179,97.818 114.634,97.568 115.115,97.304 C116.807,96.374 118.724,95.320 119.040,94.162 C119.105,93.926 119.151,93.544 118.805,92.959 C118.340,92.174 118.656,91.169 119.556,90.569 C120.509,89.935 121.938,89.912 122.824,91.101 L123.121,91.501 C124.728,93.663 124.871,93.689 125.286,93.448 C125.483,93.041 124.461,91.264 123.707,90.536 C123.477,90.314 122.656,89.566 121.762,89.264 C120.906,88.974 119.970,88.914 119.520,88.885 C119.197,88.864 118.941,88.848 118.717,88.585 C118.579,88.424 118.511,88.212 118.531,88.001 C118.564,87.645 118.581,87.273 118.599,86.879 C118.659,85.532 118.721,84.139 119.458,83.070 C120.299,81.849 120.460,80.822 119.994,79.634 C118.901,76.846 121.109,75.899 121.834,75.588 C122.559,75.278 123.456,74.665 122.884,72.944 L122.834,72.795 C122.710,72.432 122.571,72.022 122.563,71.655 C122.554,71.220 122.697,70.900 122.988,70.703 C123.455,70.387 123.988,70.614 124.189,70.700 C125.131,71.100 125.554,72.680 125.518,73.415 C125.457,74.618 125.221,75.894 124.751,77.552 C124.507,78.414 125.023,80.767 126.064,81.237 C126.352,81.367 126.458,81.356 126.459,81.356 C126.464,81.350 126.500,81.313 126.538,81.275 C126.521,80.965 126.314,80.228 126.008,79.767 C125.480,78.970 124.783,77.920 125.625,77.078 C126.115,76.588 126.703,76.719 127.021,76.817 C127.055,76.692 127.092,76.536 127.118,76.423 C127.237,75.915 127.350,75.436 127.781,75.186 C129.547,74.162 130.333,74.872 131.231,76.192 C130.655,75.114 130.273,73.827 130.781,72.434 C131.378,70.800 132.056,69.497 134.339,70.111 C135.973,70.550 138.265,69.763 138.666,69.364 C138.672,69.234 138.647,68.946 138.628,68.729 C138.527,67.575 138.338,65.425 140.352,64.211 C141.164,63.722 142.005,63.269 142.819,62.830 C143.672,62.370 144.554,61.894 145.385,61.386 C145.948,61.041 146.729,60.440 147.483,59.858 C149.453,58.341 150.191,57.774 150.890,58.215 C151.513,58.608 151.338,59.333 151.170,60.033 C151.149,60.118 151.123,60.226 151.098,60.339 C152.662,59.262 153.851,57.642 154.005,57.075 C154.044,56.932 154.094,56.670 154.153,56.366 C154.496,54.588 155.069,51.612 156.992,51.464 C157.205,51.448 159.089,51.329 159.716,52.173 C160.134,52.736 159.792,53.314 159.451,53.752 C160.243,53.584 161.104,53.442 161.516,54.151 C161.667,54.411 161.690,54.697 161.642,55.001 C161.882,54.877 162.132,54.731 162.394,54.579 C163.339,54.029 164.317,53.461 165.350,53.592 C167.062,53.810 168.698,55.096 169.621,56.949 C170.506,58.727 170.553,60.630 169.746,62.038 C169.015,63.314 168.319,64.647 167.647,65.936 C167.229,66.736 166.811,67.537 166.382,68.331 C166.244,68.587 166.053,68.770 165.900,68.918 C165.823,68.992 165.743,69.069 165.710,69.119 C165.408,69.578 164.939,70.082 164.485,70.568 C164.350,70.713 164.186,70.889 164.023,71.071 C164.538,70.653 165.110,70.123 165.500,69.761 C165.931,69.361 166.338,68.983 166.697,68.690 C166.842,68.571 167.031,68.198 167.082,67.802 C167.192,66.955 168.125,66.341 168.725,66.135 C168.979,66.047 169.190,66.030 169.363,66.055 C170.122,65.911 170.680,65.720 171.269,65.519 C171.921,65.296 172.595,65.065 173.547,64.894 C173.946,64.822 174.445,64.672 174.928,64.526 C176.305,64.110 177.495,63.752 178.208,64.452 C179.343,65.567 180.174,65.323 181.667,64.756 C181.901,64.667 182.136,64.578 182.373,64.497 C182.662,64.399 182.857,64.276 182.907,64.161 C182.965,64.027 182.911,63.749 182.763,63.419 C182.480,62.789 182.642,61.874 182.868,61.282 C183.081,60.722 183.375,60.355 183.743,60.190 C185.115,59.576 186.720,59.197 188.261,59.124 C189.337,59.069 190.555,59.776 191.202,60.498 C191.734,61.093 191.909,61.788 192.036,62.295 C192.068,62.420 192.109,62.585 192.150,62.707 C192.180,62.690 192.209,62.674 192.233,62.659 C192.994,62.222 193.573,62.284 193.955,62.842 C194.351,63.421 194.144,64.072 194.020,64.461 C194.008,64.496 193.995,64.539 193.982,64.581 C194.681,65.331 196.611,66.999 197.486,66.931 C197.571,66.924 197.616,66.905 197.678,66.801 C198.150,66.008 197.448,64.769 196.884,63.774 C196.396,62.914 196.011,62.235 196.287,61.600 C196.636,60.797 197.570,60.882 198.394,60.955 C199.676,61.070 200.280,61.025 200.478,60.458 C200.663,59.927 201.153,59.666 201.548,59.457 C201.658,59.398 201.768,59.341 201.862,59.278 C202.248,59.015 202.773,58.760 203.328,58.491 C203.826,58.250 204.697,57.827 205.024,57.543 C204.834,57.401 204.391,57.198 204.133,57.078 C203.644,56.852 203.138,56.619 202.781,56.266 C202.156,55.647 202.173,54.550 202.208,54.107 C202.216,54.016 202.205,53.967 202.180,53.860 C202.035,53.233 202.098,52.711 202.848,51.441 C203.647,50.088 206.068,48.972 208.630,47.791 C209.811,47.247 211.031,46.684 212.024,46.123 C213.509,45.284 214.779,46.162 215.311,46.583 C215.551,46.563 216.081,46.403 216.445,46.293 C217.358,46.017 218.393,45.705 219.211,45.902 C220.018,46.096 220.152,45.913 220.454,45.305 C220.804,44.603 221.087,43.873 221.386,43.101 C221.564,42.641 221.743,42.181 221.935,41.728 C222.755,39.796 224.495,38.644 227.105,38.304 C227.984,38.190 228.791,38.645 229.572,39.086 C229.870,39.254 230.151,39.414 230.415,39.528 C230.493,39.562 230.564,39.607 230.625,39.661 L232.013,39.228 C231.594,36.933 233.021,35.455 234.190,34.244 C234.402,34.025 234.612,33.807 234.810,33.586 C235.569,32.741 235.660,32.213 235.202,31.326 C234.980,30.896 234.499,29.525 235.170,28.876 L235.224,28.824 C235.544,28.511 236.103,27.966 237.068,27.896 C236.569,27.637 236.161,27.299 235.997,26.790 C235.736,25.979 236.222,25.171 236.788,24.347 C237.487,23.329 238.103,22.206 238.698,21.120 C238.957,20.647 239.216,20.175 239.483,19.708 C239.521,19.642 239.561,19.541 239.604,19.435 C239.725,19.135 239.874,18.762 240.223,18.498 C242.148,17.046 244.082,15.604 246.016,14.163 C248.030,12.661 250.046,11.159 252.051,9.644 C253.241,8.745 254.604,7.982 256.492,8.486 L256.688,8.540 C256.937,8.609 257.551,8.783 257.842,8.762 C257.846,8.727 257.848,8.700 257.848,8.679 C257.728,8.635 257.481,8.596 257.309,8.569 C256.843,8.494 256.263,8.402 255.751,8.060 C253.949,6.860 253.740,5.553 253.883,4.668 C254.192,2.741 256.397,1.293 258.315,0.764 C260.162,0.254 261.699,0.533 262.535,1.529 C263.052,2.146 263.230,3.031 263.403,3.886 C263.527,4.505 263.698,5.353 263.972,5.533 C264.282,5.737 265.072,5.908 265.768,6.060 C267.171,6.365 268.383,6.629 268.769,7.512 C269.019,8.083 268.974,8.770 268.642,9.448 C268.354,10.035 267.791,10.697 267.181,10.851 C266.558,11.009 266.111,11.551 265.594,12.180 C264.859,13.072 263.957,14.163 262.315,14.104 C262.180,14.360 262.039,14.732 262.039,14.889 L262.054,14.969 C262.186,15.650 262.300,16.238 261.928,16.760 C261.568,17.268 260.921,17.451 259.925,17.595 C259.523,17.653 259.108,17.543 258.670,17.427 C258.282,17.324 257.762,17.186 257.552,17.295 C257.673,17.409 257.953,17.571 258.289,17.583 C260.131,17.653 261.419,17.854 262.150,18.645 C262.577,19.106 262.775,19.730 262.755,20.550 C262.796,20.744 262.952,21.053 263.079,21.305 C263.334,21.811 263.598,22.333 263.534,22.868 C263.481,23.309 263.207,23.627 262.962,23.869 C262.998,23.869 263.032,23.867 263.063,23.863 C264.072,22.594 265.438,22.678 266.447,22.741 C267.005,22.775 267.531,22.808 267.937,22.646 C268.839,22.286 269.960,22.513 270.741,22.766 C271.402,22.980 272.310,23.363 272.571,24.214 C272.831,25.066 272.305,25.890 271.818,26.513 C271.392,27.058 271.196,27.555 271.223,27.765 C271.362,28.845 271.459,29.944 271.553,31.008 C271.872,34.614 272.173,38.021 273.974,41.143 C274.077,41.322 274.463,41.614 274.773,41.848 C275.495,42.395 276.313,43.014 276.279,43.945 C276.258,44.525 275.894,45.049 275.196,45.502 C274.024,46.263 273.303,48.940 272.871,50.539 C272.573,51.644 272.419,52.190 272.168,52.520 C271.554,53.326 270.684,52.951 270.138,52.623 C270.237,52.850 270.341,53.075 270.420,53.244 C270.915,54.312 271.242,55.018 270.678,55.523 C270.510,55.674 270.334,55.765 270.154,55.795 C270.130,56.316 270.222,57.186 270.430,57.658 C270.813,58.526 271.408,59.320 272.038,60.162 C272.327,60.547 272.625,60.946 272.903,61.354 C273.204,61.796 273.755,62.605 273.994,62.736 C274.273,62.645 275.033,61.856 275.448,61.426 C275.627,61.240 275.887,61.156 276.143,61.197 C276.398,61.240 276.616,61.406 276.725,61.641 C277.437,63.174 278.534,63.761 280.394,63.598 C281.156,63.533 282.164,63.896 282.523,64.703 C282.708,65.118 282.852,65.969 281.742,67.007 C281.483,67.249 281.347,67.492 281.371,67.674 C281.397,67.874 281.616,68.098 281.972,68.290 C282.916,68.799 283.706,69.149 284.457,69.392 C285.392,69.695 286.063,70.317 286.298,71.099 C286.505,71.784 286.349,72.500 285.859,73.116 C285.092,74.080 285.201,74.866 286.276,76.121 C286.402,76.269 286.667,76.398 286.948,76.533 C287.520,76.810 288.304,77.189 288.549,78.131 C288.643,78.494 288.643,78.931 288.643,79.484 C288.642,80.749 288.641,82.322 289.764,83.222 C290.442,83.764 290.650,84.694 290.835,85.514 C290.906,85.832 290.973,86.131 291.059,86.388 L291.137,86.616 C291.469,87.593 291.571,87.921 291.600,88.118 C291.607,88.146 291.618,88.184 291.631,88.227 C291.773,88.716 292.206,90.202 291.058,90.561 ZM290.123,88.666 C290.085,88.533 290.057,88.440 290.045,88.344 C290.005,88.167 289.766,87.463 289.650,87.121 L289.572,86.890 C289.459,86.555 289.379,86.201 289.302,85.858 C289.181,85.318 289.030,84.645 288.783,84.447 C287.070,83.077 287.071,80.914 287.073,79.484 C287.073,79.096 287.073,78.695 287.029,78.527 C286.973,78.309 286.753,78.183 286.264,77.947 C285.870,77.756 285.423,77.540 285.083,77.143 C284.514,76.479 282.785,74.458 284.630,72.138 C284.795,71.932 284.850,71.734 284.795,71.552 C284.713,71.279 284.397,71.024 283.973,70.886 C283.129,70.613 282.257,70.227 281.227,69.673 C280.178,69.107 279.880,68.383 279.814,67.875 C279.723,67.176 280.027,66.460 280.670,65.860 C280.985,65.565 281.060,65.388 281.076,65.330 C280.996,65.249 280.730,65.144 280.530,65.162 C278.421,65.345 276.877,64.720 275.847,63.256 C275.098,63.980 274.532,64.367 273.860,64.307 C272.963,64.231 272.394,63.395 271.605,62.238 C271.347,61.858 271.059,61.474 270.781,61.103 C270.126,60.228 269.449,59.324 268.993,58.292 C268.678,57.579 268.152,55.009 269.174,54.295 C269.113,54.159 269.050,54.022 268.996,53.905 C268.408,52.638 267.800,51.327 268.762,50.744 C269.478,50.310 270.198,50.785 270.723,51.133 C270.805,51.187 270.915,51.260 271.016,51.322 C271.114,51.026 271.244,50.542 271.355,50.130 C271.907,48.081 272.664,45.274 274.341,44.185 C274.573,44.034 274.665,43.930 274.698,43.883 C274.596,43.684 274.099,43.308 273.825,43.100 C273.358,42.747 272.876,42.382 272.614,41.927 C270.640,38.505 270.309,34.764 269.989,31.146 C269.896,30.098 269.801,29.014 269.666,27.965 C269.546,27.032 270.188,26.049 270.581,25.546 C271.094,24.890 271.069,24.672 271.069,24.670 C271.067,24.670 270.966,24.489 270.257,24.260 C269.535,24.025 268.867,23.967 268.519,24.105 C267.786,24.397 267.022,24.350 266.350,24.308 C265.285,24.242 264.708,24.241 264.216,24.943 C263.947,25.328 263.425,25.424 263.035,25.437 C262.335,25.456 261.732,25.215 261.371,24.765 C260.668,23.889 261.488,23.106 261.758,22.849 C261.823,22.787 261.914,22.700 261.965,22.640 C261.926,22.505 261.773,22.203 261.678,22.013 C261.464,21.591 261.244,21.155 261.188,20.694 C261.183,20.652 261.181,20.609 261.183,20.567 C261.206,20.005 261.088,19.809 260.997,19.711 C260.612,19.294 259.316,19.193 258.230,19.152 C257.230,19.115 256.300,18.531 256.019,17.763 C255.812,17.199 255.973,16.602 256.451,16.165 C257.258,15.427 258.350,15.717 259.073,15.909 C259.283,15.965 259.598,16.048 259.703,16.041 C260.249,15.962 260.498,15.891 260.609,15.848 C260.598,15.708 260.552,15.468 260.512,15.267 L260.490,15.149 C260.369,14.315 260.981,13.130 261.339,12.776 C261.633,12.485 261.942,12.483 262.100,12.507 C263.106,12.664 263.598,12.133 264.382,11.181 C264.982,10.452 265.662,9.627 266.768,9.336 C266.992,9.211 267.458,8.539 267.343,8.174 C267.101,7.957 266.061,7.731 265.434,7.594 C264.524,7.396 263.664,7.209 263.110,6.845 C262.288,6.305 262.072,5.233 261.863,4.196 C261.736,3.564 261.592,2.848 261.332,2.538 C260.927,2.056 259.907,1.953 258.733,2.278 C257.045,2.743 255.596,3.903 255.433,4.917 C255.332,5.543 255.732,6.161 256.622,6.754 C256.849,6.905 257.209,6.963 257.556,7.018 C258.124,7.108 258.767,7.211 259.156,7.772 C259.413,8.142 259.481,8.604 259.363,9.185 C259.284,9.578 259.069,9.891 258.742,10.092 C258.014,10.538 257.005,10.258 256.267,10.053 L256.087,10.003 C254.910,9.690 254.063,10.093 252.998,10.897 C250.990,12.414 248.972,13.918 246.954,15.422 C245.023,16.862 243.092,18.301 241.169,19.752 C241.162,19.770 241.101,19.921 241.061,20.021 C241.003,20.164 240.938,20.327 240.847,20.487 C240.584,20.946 240.330,21.410 240.075,21.875 C239.461,22.995 238.826,24.153 238.083,25.236 C237.592,25.950 237.506,26.215 237.496,26.307 C237.552,26.369 237.761,26.531 238.541,26.813 C238.562,26.820 238.581,26.828 238.601,26.837 C240.654,27.772 241.694,28.455 241.311,29.385 C240.811,30.595 238.377,29.735 238.102,29.633 C237.115,29.267 236.743,29.541 236.396,29.874 C236.408,30.057 236.485,30.387 236.597,30.605 C237.365,32.091 237.180,33.296 235.979,34.635 C235.769,34.870 235.545,35.101 235.320,35.335 C234.116,36.582 233.076,37.659 233.705,39.501 C233.773,39.702 233.757,39.921 233.662,40.110 C233.566,40.299 233.397,40.441 233.195,40.504 L230.204,41.437 C229.925,41.524 229.623,41.449 229.417,41.245 C229.261,41.091 229.180,40.881 229.185,40.668 C229.055,40.598 228.926,40.525 228.799,40.453 C228.268,40.153 227.665,39.811 227.308,39.861 C225.232,40.131 223.984,40.920 223.380,42.342 C223.194,42.780 223.022,43.224 222.850,43.668 C222.551,44.440 222.242,45.238 221.860,46.005 C221.388,46.954 220.661,47.865 218.844,47.428 C218.439,47.333 217.549,47.600 216.899,47.796 C215.848,48.114 215.018,48.365 214.435,47.893 C213.740,47.330 213.280,47.217 212.796,47.490 C211.748,48.083 210.497,48.659 209.288,49.217 C207.161,50.197 204.750,51.309 204.200,52.240 C203.637,53.192 203.676,53.359 203.710,53.506 C203.746,53.663 203.801,53.900 203.773,54.235 C203.734,54.723 203.833,55.081 203.892,55.156 C204.046,55.309 204.442,55.491 204.791,55.652 C205.595,56.024 206.507,56.444 206.656,57.375 C206.842,58.532 205.468,59.199 204.013,59.904 C203.534,60.137 203.037,60.377 202.746,60.576 C202.595,60.679 202.437,60.762 202.285,60.843 C202.172,60.903 202.008,60.990 201.934,61.047 C201.273,62.790 199.314,62.614 198.253,62.519 C198.165,62.511 198.067,62.502 197.970,62.495 C198.058,62.662 198.162,62.844 198.250,63.000 C198.934,64.205 199.966,66.028 199.027,67.605 C198.709,68.139 198.198,68.456 197.589,68.498 C195.505,68.645 192.636,65.429 192.610,65.396 C192.321,65.034 192.352,64.627 192.435,64.289 C192.104,64.389 191.703,64.405 191.299,64.124 C190.787,63.768 190.642,63.189 190.513,62.678 C190.407,62.253 190.306,61.852 190.032,61.546 C189.604,61.068 188.809,60.672 188.336,60.692 C187.012,60.755 185.637,61.075 184.454,61.593 C184.283,61.825 184.121,62.553 184.198,62.784 C184.541,63.545 184.593,64.222 184.347,64.787 C184.111,65.330 183.617,65.733 182.878,65.984 C182.659,66.058 182.441,66.142 182.224,66.224 C180.808,66.762 179.049,67.430 177.165,65.629 C176.851,65.582 175.937,65.862 175.382,66.029 C174.856,66.188 174.313,66.352 173.825,66.439 C172.991,66.590 172.401,66.791 171.777,67.005 C171.112,67.232 170.425,67.467 169.448,67.635 C169.361,67.650 169.272,67.651 169.186,67.636 C169.002,67.712 168.711,67.915 168.634,68.043 C168.548,68.648 168.257,69.444 167.690,69.907 C167.370,70.168 166.981,70.529 166.568,70.912 C164.900,72.460 163.324,73.921 162.174,73.032 C161.897,72.818 161.730,72.512 161.703,72.171 C161.634,71.324 162.423,70.478 163.337,69.497 C163.746,69.058 164.169,68.604 164.399,68.256 C164.528,68.059 164.685,67.908 164.811,67.786 C164.882,67.719 164.978,67.626 165.000,67.585 C165.426,66.797 165.840,66.003 166.254,65.209 C166.934,63.907 167.637,62.560 168.383,61.257 C168.921,60.320 168.856,58.937 168.215,57.649 C167.524,56.260 166.350,55.302 165.152,55.150 C164.646,55.087 163.902,55.518 163.183,55.937 C162.849,56.131 162.503,56.332 162.158,56.498 C162.063,56.543 161.909,56.697 161.714,56.891 C161.556,57.050 161.368,57.237 161.127,57.456 C161.058,57.518 160.978,57.568 160.891,57.603 C160.269,57.852 159.899,57.609 159.733,57.443 C159.242,56.949 159.517,56.275 159.808,55.562 C159.844,55.474 159.888,55.367 159.930,55.257 C159.829,55.277 159.730,55.298 159.649,55.316 C158.852,55.488 157.860,55.701 157.452,54.903 C157.097,54.207 157.591,53.550 157.996,53.054 C157.735,53.022 157.417,53.006 157.112,53.030 C156.780,53.056 156.264,53.707 155.695,56.663 C155.628,57.012 155.575,57.287 155.520,57.488 C155.204,58.649 153.276,61.075 150.975,62.237 C150.830,62.311 150.666,62.337 150.505,62.313 C150.157,62.261 149.862,62.079 149.674,61.800 C149.387,61.373 149.406,60.833 149.504,60.296 C149.145,60.561 148.757,60.859 148.442,61.102 C147.654,61.709 146.840,62.336 146.205,62.725 C145.338,63.256 144.436,63.742 143.564,64.212 C142.767,64.642 141.943,65.086 141.163,65.556 C140.075,66.212 140.077,67.273 140.192,68.592 C140.237,69.101 140.272,69.502 140.166,69.858 C139.724,71.337 136.016,72.190 133.931,71.628 C133.007,71.380 132.837,71.383 132.256,72.973 C131.750,74.361 132.778,75.805 133.530,76.860 C134.128,77.699 134.560,78.306 134.295,78.969 C134.120,79.406 133.750,79.683 133.281,79.729 C132.294,79.828 131.072,78.818 130.573,78.052 L130.344,77.700 C129.903,77.019 129.522,76.431 129.285,76.288 C129.195,76.234 128.957,76.333 128.729,76.455 C128.701,76.550 128.670,76.683 128.647,76.782 C128.538,77.244 128.415,77.768 128.066,78.117 C127.725,78.459 127.330,78.487 127.020,78.440 C127.110,78.587 127.213,78.743 127.298,78.870 C127.713,79.496 128.590,81.486 127.758,82.278 L127.687,82.347 C127.205,82.829 126.596,83.201 125.417,82.668 C123.498,81.800 122.848,78.508 123.240,77.124 C123.304,76.898 123.363,76.680 123.418,76.470 C123.142,76.686 122.820,76.874 122.453,77.032 C121.248,77.548 121.034,77.984 121.456,79.061 C122.117,80.747 121.893,82.304 120.751,83.961 C120.270,84.659 120.218,85.823 120.167,86.949 C120.161,87.084 120.155,87.221 120.148,87.358 C120.710,87.410 121.504,87.519 122.265,87.776 C123.436,88.172 124.426,89.048 124.797,89.406 C125.155,89.751 127.053,91.991 126.856,93.601 C126.792,94.124 126.514,94.552 126.072,94.808 C124.360,95.799 123.365,94.462 121.861,92.437 L121.565,92.040 C121.344,91.742 121.057,91.642 120.715,91.742 C120.363,91.844 120.167,92.096 120.160,92.182 C120.637,92.971 120.771,93.785 120.555,94.576 C120.063,96.375 117.932,97.547 115.871,98.679 C115.403,98.937 114.960,99.181 114.554,99.423 C114.054,99.722 113.180,99.929 112.354,99.720 C111.798,99.579 111.364,99.268 111.098,98.819 C110.620,98.013 111.311,97.065 113.061,94.809 C113.864,93.774 115.198,92.053 115.270,91.503 C114.960,90.414 115.395,88.876 115.816,87.388 C115.975,86.826 116.125,86.294 116.211,85.859 C116.234,83.346 116.516,82.833 117.106,82.339 C117.285,82.188 117.659,81.875 117.835,78.225 C117.948,75.882 118.572,75.247 119.314,74.710 C119.441,74.619 119.541,74.546 119.615,74.462 C120.214,73.778 120.335,73.079 119.956,72.492 C119.573,71.901 118.788,71.606 118.131,71.807 C118.052,71.831 117.974,71.846 117.887,71.841 C117.737,71.847 117.351,72.089 117.253,72.264 C115.944,74.611 114.547,76.805 111.872,77.860 C111.838,77.893 111.793,77.951 111.760,78.005 C112.191,79.516 111.263,80.817 110.640,81.691 C110.466,81.935 110.210,82.294 110.149,82.458 C110.196,82.608 110.320,82.909 110.431,83.180 C111.158,84.954 112.511,88.258 110.439,89.792 C110.138,90.016 109.720,89.994 109.443,89.742 C109.412,89.714 109.372,89.688 109.332,89.660 C109.110,89.503 108.738,89.241 108.685,88.765 C108.525,87.350 107.700,86.233 106.828,85.049 C106.114,84.082 105.375,83.081 104.964,81.861 C104.960,81.849 104.955,81.837 104.951,81.826 C102.429,80.992 100.840,79.222 100.100,76.423 C100.057,76.393 99.999,76.359 99.945,76.334 C99.834,76.424 99.722,76.556 99.683,76.640 C99.702,76.808 99.816,77.048 99.927,77.281 C100.049,77.538 100.187,77.830 100.268,78.152 C100.532,79.198 100.736,80.234 100.875,81.230 C101.068,82.618 100.323,83.238 99.831,83.648 C99.558,83.875 99.387,84.024 99.300,84.239 C99.035,84.895 98.326,85.538 97.529,85.440 C97.215,85.402 96.468,85.180 96.296,83.961 C96.249,83.629 96.383,83.318 96.717,82.583 C96.773,82.458 96.851,82.288 96.923,82.121 C96.191,82.018 94.992,81.890 93.970,81.782 C88.849,81.240 88.419,81.139 88.220,80.442 C88.034,79.792 88.554,79.234 89.272,78.462 C89.302,78.431 89.334,78.397 89.367,78.360 C88.150,78.342 86.123,78.424 84.642,78.484 C83.633,78.525 82.667,78.565 81.897,78.581 C81.740,78.585 81.583,78.586 81.425,78.587 C80.067,78.598 79.198,78.650 78.474,79.546 C78.128,79.974 77.528,79.968 77.106,79.926 C76.738,79.889 75.511,79.713 75.129,78.982 C74.566,77.904 74.723,76.513 74.867,75.780 C75.038,74.906 76.337,74.594 77.096,74.486 C77.550,74.420 77.984,74.489 78.403,74.569 C78.632,73.346 78.197,72.418 77.231,71.427 C76.850,73.192 75.504,74.133 74.410,74.720 C74.359,74.749 74.274,74.832 74.211,74.909 C74.862,77.368 73.097,78.286 71.916,78.901 C71.702,79.012 71.487,79.124 71.284,79.243 C71.087,79.358 70.848,79.383 70.632,79.309 C70.415,79.235 70.242,79.070 70.157,78.857 L69.230,76.537 C68.871,76.560 68.520,76.579 68.175,76.598 C66.951,76.664 65.796,76.726 64.698,76.932 C64.541,76.962 64.097,77.131 63.359,78.061 C63.237,78.215 63.129,78.425 63.004,78.668 C62.776,79.111 62.493,79.662 61.943,80.263 C61.764,80.459 61.499,80.551 61.236,80.508 C60.975,80.465 60.752,80.293 60.645,80.050 C60.472,79.657 60.303,79.262 60.134,78.867 C59.738,77.938 59.328,76.977 58.864,76.080 C58.751,75.864 58.577,75.653 58.378,75.439 C58.237,75.698 58.096,75.958 57.960,76.219 C57.975,76.339 57.979,76.482 57.936,76.640 C57.792,77.162 57.638,77.683 57.484,78.203 L57.329,78.729 C57.248,79.005 57.022,79.215 56.741,79.275 C56.460,79.336 56.168,79.238 55.980,79.020 C55.835,78.851 55.645,78.674 55.444,78.487 C54.920,77.999 54.326,77.446 54.206,76.689 C53.713,73.570 54.705,71.019 57.155,69.105 C57.356,68.948 57.502,68.245 57.589,67.824 C57.613,67.707 57.637,67.592 57.662,67.483 C57.700,67.309 57.645,66.892 57.601,66.557 C57.472,65.579 57.278,64.102 58.595,63.547 C58.924,63.408 59.284,63.419 59.608,63.576 C60.556,64.036 61.060,65.649 61.778,68.253 C61.967,68.937 62.145,69.583 62.305,70.032 C62.798,71.414 63.968,72.531 65.437,73.018 C66.811,73.473 68.232,73.312 69.337,72.575 C69.342,72.572 69.347,72.568 69.352,72.565 C69.355,71.799 69.598,71.108 69.815,70.489 C70.124,69.605 70.392,68.842 70.030,67.933 C69.527,66.670 69.365,65.308 69.208,63.990 C69.098,63.071 68.995,62.203 68.785,61.368 C68.637,60.778 68.220,60.193 67.778,59.573 C67.588,59.307 67.392,59.032 67.212,58.748 C66.963,58.355 66.694,57.973 66.353,57.489 C66.179,57.242 65.989,56.972 65.777,56.665 C65.611,56.425 65.592,56.113 65.728,55.854 C65.863,55.595 66.131,55.433 66.423,55.433 L67.417,55.433 C67.413,55.361 67.399,55.301 67.374,55.257 C67.237,55.014 66.608,54.861 66.102,54.737 L66.061,54.727 C65.591,54.612 65.132,54.460 64.688,54.312 C63.375,53.875 62.241,53.498 61.061,54.071 C59.993,54.590 59.588,55.200 59.617,56.246 C59.640,57.098 59.711,59.690 56.530,59.922 C56.203,59.946 55.591,60.689 55.186,61.181 C54.949,61.469 54.704,61.766 54.454,62.025 C54.251,62.234 54.054,62.517 53.845,62.818 C53.398,63.461 52.891,64.190 52.099,64.410 C50.185,64.942 49.787,66.244 49.248,68.500 C49.199,68.709 49.148,68.920 49.095,69.133 C49.044,69.337 48.915,69.512 48.734,69.618 C48.554,69.726 48.338,69.756 48.135,69.703 C47.715,69.593 47.150,69.505 46.846,69.707 C46.448,69.972 46.324,70.845 46.205,71.690 C46.184,71.831 46.164,71.972 46.143,72.113 C45.884,73.812 44.734,74.733 42.727,74.849 C40.715,74.966 38.703,75.078 36.620,75.193 L34.659,75.302 L34.659,78.282 C34.659,78.284 34.659,78.286 34.659,78.288 C34.670,78.581 34.517,78.855 34.263,79.000 C34.091,79.097 33.772,79.280 32.873,78.700 C31.035,77.515 29.457,78.076 27.505,79.366 C27.028,79.681 26.544,79.987 26.060,80.293 C25.325,80.757 24.565,81.236 23.853,81.740 C23.753,81.810 23.611,82.109 23.517,82.306 C23.477,82.391 23.437,82.474 23.397,82.553 C23.301,82.743 23.218,82.981 23.130,83.233 C22.923,83.830 22.687,84.508 22.116,84.912 C20.806,85.842 20.941,86.820 21.293,88.470 C21.375,88.853 21.459,89.249 21.513,89.650 C21.541,89.687 21.567,89.723 21.591,89.759 C23.220,92.194 23.024,92.790 21.297,94.743 L20.936,95.153 C20.251,95.937 19.957,97.240 19.673,98.499 C19.556,99.020 19.434,99.557 19.284,100.070 C19.185,100.410 19.168,100.814 19.150,101.242 C19.141,101.467 19.131,101.692 19.111,101.914 C19.088,102.169 18.941,102.397 18.718,102.525 C18.495,102.652 18.224,102.662 17.992,102.551 C17.804,102.461 17.615,102.374 17.426,102.286 C16.925,102.053 16.408,101.812 15.904,101.539 C15.799,101.482 15.710,101.414 15.630,101.338 L13.987,103.835 C14.138,103.903 14.284,103.969 14.429,104.034 C15.221,104.386 15.904,104.691 16.461,105.201 C17.327,105.994 17.749,106.811 17.714,107.631 C17.682,108.390 17.265,109.083 16.477,109.690 C15.585,110.377 15.490,110.952 16.124,111.811 C16.563,112.406 16.577,113.388 16.336,113.995 C15.611,115.818 16.000,117.087 17.562,117.990 C17.614,118.021 17.682,118.050 17.750,118.080 C18.073,118.227 18.613,118.472 18.594,119.076 C18.558,120.323 19.241,121.332 19.964,122.401 C20.655,123.422 21.370,124.478 21.555,125.832 C21.573,125.963 21.600,126.091 21.612,126.139 C21.679,126.413 21.595,126.702 21.392,126.896 L16.412,131.648 C16.251,131.802 16.031,131.878 15.810,131.863 C15.588,131.846 15.384,131.736 15.248,131.560 C14.256,130.273 13.345,129.981 12.147,130.643 L12.817,131.483 C12.981,131.689 13.031,131.962 12.951,132.212 L12.834,132.579 C12.770,132.780 12.627,132.947 12.439,133.042 C12.250,133.137 12.032,133.152 11.832,133.083 L8.796,132.047 L8.923,133.067 C8.971,133.450 8.735,133.810 8.365,133.918 L4.095,135.168 C3.917,135.221 3.726,135.208 3.555,135.132 C3.176,134.963 2.957,134.621 2.744,134.289 C2.672,134.175 2.561,134.003 2.476,133.906 C2.432,133.937 2.370,133.989 2.289,134.073 L2.289,135.852 C4.148,138.154 5.095,140.856 5.183,144.103 C5.186,144.227 5.357,144.509 5.476,144.702 C5.669,144.772 6.020,144.925 6.148,145.329 C6.581,146.703 7.571,147.766 8.618,148.892 C9.913,150.284 11.253,151.723 11.627,153.860 C11.698,154.261 11.696,154.663 11.682,154.962 L15.985,157.865 C16.201,158.011 16.330,158.254 16.331,158.514 C16.332,158.774 16.203,159.018 15.988,159.165 L15.765,159.317 C15.807,159.444 15.850,159.571 15.893,159.698 C16.134,160.415 16.383,161.156 16.583,161.910 C16.709,162.385 16.799,162.866 16.885,163.330 C17.010,164.004 17.129,164.640 17.347,165.223 C17.617,165.946 18.009,166.512 18.189,166.627 C19.621,166.807 19.922,166.525 20.048,165.829 C20.094,165.575 20.195,165.351 20.276,165.171 C20.316,165.082 20.376,164.947 20.383,164.899 C20.067,161.628 21.304,158.885 22.417,156.864 C22.580,156.568 22.470,155.886 22.373,155.284 C22.311,154.898 22.247,154.500 22.226,154.098 C22.208,153.767 22.401,153.460 22.707,153.332 L27.243,151.437 C27.338,151.397 27.441,151.376 27.545,151.376 L32.222,151.376 C32.269,151.098 32.315,150.820 32.362,150.542 C32.582,149.236 32.809,147.886 32.995,146.564 C33.027,146.335 33.023,146.086 33.004,145.938 C31.607,145.033 31.745,143.663 31.838,142.742 C31.887,142.249 31.934,141.783 31.787,141.467 C31.410,140.653 32.334,139.685 32.373,139.644 C32.537,139.475 32.700,139.305 32.863,139.134 C33.660,138.300 34.484,137.439 35.424,136.710 C36.120,136.170 36.872,135.768 37.742,135.302 C38.137,135.091 38.556,134.867 39.001,134.611 C39.254,134.466 39.567,134.474 39.813,134.630 C40.059,134.787 40.198,135.067 40.174,135.357 C40.148,135.667 40.117,135.962 40.088,136.246 C40.022,136.876 39.965,137.420 39.983,137.950 C39.989,138.114 40.042,138.282 40.100,138.407 C40.136,138.393 40.170,138.378 40.198,138.363 C41.012,136.669 42.538,136.379 43.771,136.144 C44.181,136.066 44.568,135.993 44.914,135.877 C45.664,135.626 46.438,135.543 47.186,135.461 C47.378,135.440 47.569,135.419 47.759,135.396 C48.227,135.336 48.844,135.260 49.362,135.543 C49.554,135.648 49.757,135.748 49.961,135.851 C50.757,136.248 51.659,136.697 52.176,137.481 C52.528,138.016 53.019,138.507 53.540,139.027 C54.675,140.162 56.068,141.554 55.604,143.576 C55.721,143.704 55.830,143.826 55.933,143.942 C56.254,144.304 56.507,144.590 56.758,144.727 C57.698,145.243 58.222,145.311 58.500,145.282 L58.739,145.254 C59.893,145.114 61.088,144.969 62.337,146.228 C62.446,146.330 62.994,146.368 63.288,146.389 C63.930,146.433 64.657,146.484 65.201,146.923 C65.782,147.392 66.014,148.122 66.219,148.767 C66.340,149.149 66.455,149.510 66.618,149.771 C66.738,149.816 67.038,149.854 67.767,149.810 C68.005,149.793 68.234,149.888 68.393,150.063 C69.362,151.117 69.941,151.297 70.777,150.800 C70.982,150.678 71.015,150.627 71.018,150.621 C71.170,150.259 70.173,148.050 69.513,146.588 C69.405,146.347 69.425,146.067 69.567,145.844 C69.709,145.621 69.954,145.484 70.218,145.481 C71.597,145.462 72.366,144.769 72.505,143.421 C72.529,143.193 72.650,142.988 72.838,142.857 C73.025,142.726 73.261,142.684 73.482,142.741 L75.315,143.212 C74.980,142.558 74.703,141.966 74.587,141.312 C74.424,140.401 74.741,139.876 75.036,139.596 C75.363,139.283 75.992,138.966 77.128,139.225 C79.511,139.768 82.071,140.329 84.647,140.747 C86.141,140.990 87.775,141.124 89.788,141.169 C90.722,141.188 91.776,141.183 92.458,140.824 C95.021,139.477 97.124,140.635 98.670,141.795 C99.608,142.499 99.540,144.331 99.467,145.086 C99.449,145.271 99.424,145.448 99.400,145.617 C99.373,145.802 99.339,146.044 99.343,146.173 C99.431,146.201 99.642,146.244 100.096,146.235 C101.162,146.201 102.114,146.854 103.032,147.475 C103.400,147.724 103.747,147.959 104.085,148.139 C104.383,148.300 104.545,148.633 104.487,148.966 L104.322,149.911 C104.372,149.918 104.422,149.924 104.471,149.930 C105.145,150.015 105.781,150.095 106.314,149.974 C107.369,149.734 108.423,149.317 109.352,148.948 C109.741,148.794 110.112,148.647 110.461,148.520 C110.850,148.378 111.282,148.564 111.448,148.944 C111.623,149.344 111.755,149.732 111.882,150.108 C112.094,150.733 112.294,151.323 112.598,151.594 C114.304,153.108 115.099,155.033 115.766,156.876 C116.379,158.565 117.033,160.220 117.726,161.973 C117.908,162.432 118.091,162.895 118.275,163.363 L118.893,162.927 C119.164,162.737 119.526,162.737 119.796,162.927 C119.822,162.945 119.850,162.961 119.879,162.977 C120.020,163.060 120.234,163.185 120.397,163.413 C121.573,165.053 122.658,165.417 124.543,164.804 C126.336,164.222 127.689,164.756 128.562,166.395 C129.182,167.559 129.880,168.766 130.779,169.708 C131.167,170.113 132.017,170.433 132.530,170.363 C132.750,170.333 132.962,170.318 133.165,170.318 C134.363,170.318 135.270,170.839 136.051,171.956 C136.362,172.401 136.666,172.663 136.885,172.676 C137.106,172.690 137.446,172.457 137.815,172.041 C137.835,172.016 137.858,171.979 137.881,171.944 C138.020,171.734 138.309,171.299 138.857,171.364 C140.341,171.545 141.328,170.691 142.470,169.703 C143.448,168.857 144.460,167.982 145.870,167.704 C146.159,167.647 146.493,167.418 146.847,167.175 C147.302,166.863 147.818,166.509 148.437,166.397 C151.340,165.870 153.708,166.369 155.680,167.922 C156.225,168.352 157.133,168.641 158.306,168.757 C159.053,168.830 159.824,168.779 160.639,168.723 C161.191,168.685 161.762,168.650 162.334,168.648 C162.338,168.648 162.343,168.648 162.347,168.648 C163.117,168.648 163.710,168.400 163.935,167.983 C164.133,167.613 164.041,167.105 163.673,166.551 C162.523,164.821 163.193,163.377 163.732,162.217 C163.843,161.977 163.955,161.737 164.050,161.494 C164.262,160.953 164.600,160.488 164.898,160.077 C165.019,159.913 165.138,159.749 165.245,159.584 C165.428,159.302 165.770,159.167 166.096,159.251 C166.740,159.414 167.384,159.572 168.028,159.730 C169.703,160.140 171.435,160.564 173.118,161.080 C173.913,161.325 174.926,162.049 175.323,162.961 C175.708,163.847 176.467,164.518 177.405,164.802 C178.265,165.063 179.133,164.953 179.847,164.493 C182.998,162.465 188.148,162.513 191.327,164.600 C191.801,164.910 192.503,165.113 193.114,165.114 C193.124,165.114 193.133,165.114 193.143,165.114 C196.346,165.114 199.374,163.825 202.670,161.061 C203.105,160.696 203.447,160.153 203.810,159.579 C204.096,159.124 204.393,158.654 204.763,158.228 C204.829,158.151 206.387,156.374 207.403,156.971 C208.641,157.696 209.858,157.367 211.267,156.987 C212.446,156.668 213.664,156.340 214.970,156.632 C215.105,156.546 215.351,156.335 215.595,156.049 C216.147,155.403 216.581,154.767 216.884,154.159 C217.135,153.654 217.284,153.085 217.292,152.600 C217.307,151.684 217.279,150.742 217.251,149.831 C217.226,149.023 217.201,148.187 217.206,147.359 C217.208,146.955 217.287,146.570 217.363,146.197 C217.447,145.793 217.533,145.375 217.452,145.161 C217.214,144.529 216.467,143.957 215.656,143.378 C215.475,143.250 215.358,143.050 215.332,142.830 C215.099,140.817 215.811,139.425 217.450,138.692 C217.836,138.519 218.207,138.215 218.600,137.893 C218.847,137.690 219.103,137.481 219.380,137.290 C219.538,137.181 219.694,137.059 219.852,136.937 C220.359,136.544 220.934,136.098 221.635,135.961 C221.994,135.890 222.361,135.807 222.731,135.724 C224.319,135.365 225.963,134.996 227.486,135.395 C229.449,135.909 231.172,137.385 232.694,138.688 L232.764,138.748 C233.848,139.676 234.846,140.710 235.812,141.710 C236.564,142.490 237.343,143.297 238.144,144.032 C238.790,144.625 239.194,144.687 239.806,144.286 C241.344,143.279 243.046,143.005 245.164,143.428 C246.896,143.774 248.342,144.287 249.765,145.661 C250.057,145.787 251.205,145.647 251.973,145.265 C253.403,144.556 254.114,143.161 254.868,141.684 C255.149,141.133 255.439,140.565 255.772,140.023 C255.750,139.804 255.715,139.373 256.019,139.001 C256.249,138.719 256.592,138.560 257.068,138.514 C257.797,138.442 258.622,138.890 259.228,139.678 C260.025,140.713 260.219,142.016 259.760,143.254 C259.680,143.469 260.030,144.187 260.239,144.616 C260.463,145.078 260.695,145.554 260.826,146.042 C261.367,148.063 261.826,150.050 262.189,151.947 C262.303,152.544 261.923,153.243 261.705,153.529 C261.469,153.841 261.196,154.011 260.893,154.036 C258.896,154.197 258.158,155.867 258.031,156.856 C258.071,157.050 258.370,157.571 258.590,157.955 C259.011,158.689 259.535,159.603 259.804,160.580 C260.040,161.440 260.156,162.303 260.259,163.065 C260.344,163.697 260.469,164.624 260.646,164.916 C260.920,164.575 261.239,163.450 261.417,162.820 C261.862,161.251 262.246,159.896 263.375,159.823 C263.508,159.814 263.664,159.808 263.838,159.802 C265.733,159.732 267.814,159.486 268.517,157.418 C269.661,154.050 269.634,150.662 269.605,147.076 C269.590,145.087 269.573,143.030 269.779,140.998 C269.814,140.655 269.691,140.229 269.561,139.778 C269.462,139.434 269.360,139.080 269.306,138.704 C269.176,137.785 269.066,136.851 268.960,135.947 C268.766,134.288 268.565,132.572 268.228,130.930 C267.592,127.826 266.198,125.258 264.086,123.298 C262.525,121.847 261.139,118.154 261.414,116.839 C261.530,116.287 261.883,116.087 262.083,116.017 C263.199,115.626 265.654,116.669 267.030,118.547 C268.393,120.409 270.063,122.126 271.678,123.788 C272.663,124.801 273.682,125.849 274.635,126.931 C275.355,127.749 275.963,128.654 276.550,129.529 C276.959,130.138 277.383,130.768 277.829,131.344 C277.932,131.476 278.039,131.625 278.150,131.779 C278.282,131.962 278.498,132.262 278.697,132.491 C278.700,132.470 278.703,132.449 278.706,132.429 C278.821,131.561 279.008,130.152 280.115,129.298 C279.706,129.141 279.035,128.962 278.110,128.763 C277.934,128.725 277.786,128.693 277.681,128.667 C274.528,127.895 273.472,125.224 272.624,123.079 L272.516,122.807 C272.271,122.188 272.390,121.720 272.534,121.435 C272.936,120.640 273.918,120.383 274.784,120.156 C274.942,120.115 275.142,120.062 275.314,120.009 C274.742,119.448 273.583,119.140 272.625,118.887 C272.411,118.830 272.202,118.774 272.003,118.718 C270.905,118.406 269.513,117.415 267.900,116.268 C267.186,115.760 266.448,115.235 265.693,114.738 C265.013,114.291 264.539,113.644 264.080,113.019 C263.896,112.769 263.722,112.532 263.541,112.315 C263.405,112.152 263.278,111.977 263.152,111.801 C262.957,111.531 262.773,111.275 262.575,111.123 C261.337,110.172 260.068,109.273 258.803,108.452 C258.659,108.358 258.533,108.252 258.422,108.157 C258.082,107.867 258.049,107.866 257.851,107.947 C257.787,107.974 257.635,108.133 257.603,108.433 C257.570,108.749 257.644,109.588 259.056,110.557 C260.746,111.717 261.794,113.189 261.860,114.498 C261.891,115.104 261.701,115.612 261.325,115.931 C260.967,116.234 260.496,116.318 259.999,116.167 C259.106,115.896 258.281,114.921 258.070,114.181 C257.875,113.497 257.693,113.493 256.929,113.476 C256.732,113.472 256.531,113.467 256.329,113.448 C255.929,113.410 255.555,113.307 255.194,113.207 C254.768,113.090 254.364,112.980 254.062,113.026 L253.744,113.074 C253.129,113.165 251.980,113.335 251.395,113.630 C251.448,113.664 251.500,113.697 251.546,113.725 C252.175,114.118 253.345,114.849 252.884,116.128 C252.503,117.182 251.888,117.652 251.439,117.861 C250.924,118.100 250.353,118.125 249.830,117.931 C249.613,117.851 249.430,117.724 249.273,117.569 C249.325,117.914 249.187,118.315 248.911,118.559 C248.775,118.680 248.274,119.042 247.559,118.615 C246.977,118.269 246.506,117.467 246.016,116.501 C245.802,116.800 245.573,117.082 245.289,117.243 C245.202,117.293 245.113,117.347 245.022,117.401 C244.425,117.761 243.682,118.207 242.834,118.022 C241.541,117.736 241.791,116.160 241.911,115.404 C241.924,115.324 241.936,115.248 241.945,115.180 C242.036,114.533 242.197,113.905 242.352,113.298 C242.538,112.573 242.713,111.887 242.766,111.206 C242.984,108.415 243.109,105.479 243.138,102.478 C243.161,100.135 243.097,97.627 242.932,94.345 C242.770,91.149 248.551,87.032 248.610,86.991 C248.721,86.914 248.830,86.614 248.918,86.372 C249.049,86.017 249.196,85.614 249.508,85.309 C249.780,85.043 250.063,84.812 250.338,84.589 C251.293,83.812 251.923,83.299 251.667,81.855 C251.473,80.753 252.767,79.834 254.266,78.770 C254.636,78.507 254.985,78.259 255.272,78.033 C255.784,77.628 256.337,77.193 256.938,77.329 C257.234,77.396 257.473,77.587 257.611,77.866 C257.776,78.202 257.789,78.516 257.753,78.784 C257.858,78.531 257.960,78.272 258.064,78.005 C258.270,77.478 258.483,76.933 258.742,76.404 C258.940,76.002 259.218,75.667 259.464,75.372 C259.640,75.160 259.807,74.960 259.925,74.761 C260.044,74.560 260.213,74.350 260.408,74.106 C260.437,74.071 260.470,74.029 260.506,73.984 C259.868,74.384 259.162,74.765 258.476,74.483 C257.537,74.097 257.341,72.939 257.152,71.820 C257.084,71.416 257.013,70.999 256.915,70.685 C256.721,70.062 256.543,69.427 256.372,68.813 C256.042,67.628 255.730,66.509 255.294,65.426 C254.617,63.749 255.361,62.509 255.958,61.512 C256.247,61.030 256.520,60.575 256.620,60.117 L256.645,60.000 C256.762,59.441 257.117,57.744 258.716,57.902 C259.338,57.965 259.889,58.481 260.528,59.077 C260.878,59.405 261.599,60.079 261.881,60.099 C261.884,60.093 261.896,60.081 261.911,60.063 C262.272,59.612 262.185,59.458 261.858,58.885 C261.657,58.532 261.406,58.093 261.352,57.550 C261.282,56.857 261.240,56.160 261.195,55.422 C261.180,55.170 261.164,54.911 261.147,54.643 C261.018,54.505 260.884,54.364 260.744,54.217 C260.097,53.539 259.365,52.770 258.747,51.884 C258.533,51.576 258.207,50.710 258.568,50.000 C258.713,49.715 259.086,49.235 259.960,49.216 C261.081,49.195 261.964,50.360 262.908,51.596 C263.347,52.171 263.801,52.765 264.208,53.134 C265.289,54.112 265.794,55.183 265.951,56.830 C266.127,58.686 266.712,60.577 267.278,62.406 L267.519,63.189 C267.679,63.713 267.931,64.229 268.197,64.776 C268.561,65.522 268.937,66.294 269.102,67.150 C269.425,68.831 269.592,71.379 269.691,72.902 C269.717,73.290 269.738,73.616 269.756,73.849 C269.778,74.116 269.862,74.190 270.151,74.406 C270.460,74.636 270.926,74.985 271.003,75.692 C271.285,78.285 273.197,79.741 275.045,81.149 C276.123,81.970 277.406,82.621 278.647,83.251 C278.938,83.398 279.229,83.546 279.518,83.696 C282.795,85.396 286.086,87.060 289.298,88.644 C289.726,88.854 290.020,88.963 290.217,89.017 C290.194,88.918 290.163,88.800 290.123,88.666 ZM240.878,13.261 C240.819,13.725 240.464,14.247 239.645,14.322 C239.579,14.328 239.510,14.331 239.438,14.331 C238.063,14.331 235.735,13.232 235.253,11.732 C235.109,11.285 234.943,10.147 236.495,9.237 C237.816,8.464 238.894,8.285 239.699,8.707 C240.401,9.075 240.800,9.831 240.885,10.955 C240.941,11.690 240.979,12.478 240.878,13.261 C240.878,13.261 240.878,13.261 240.878,13.261 ZM239.319,11.074 C239.280,10.557 239.149,10.192 238.970,10.098 C238.916,10.069 238.839,10.052 238.739,10.052 C238.450,10.052 237.969,10.194 237.289,10.592 C236.627,10.980 236.724,11.205 236.766,11.301 C237.087,12.040 238.674,12.733 239.350,12.768 C239.392,12.210 239.361,11.627 239.319,11.074 ZM202.273,49.234 C202.566,49.504 202.679,49.876 202.575,50.229 C202.502,50.478 202.351,50.994 200.049,51.931 C198.959,52.375 198.389,52.499 198.055,52.499 C197.812,52.499 197.695,52.433 197.593,52.376 C196.992,52.037 197.050,51.245 197.072,50.947 C197.096,50.617 197.260,48.952 198.113,48.625 C199.129,48.235 201.579,48.594 202.273,49.234 ZM200.258,50.124 C199.757,50.041 199.192,49.999 198.854,50.048 C198.784,50.227 198.716,50.510 198.673,50.771 C199.135,50.615 199.749,50.365 200.258,50.124 ZM201.348,41.442 C200.989,41.442 200.645,41.365 200.322,41.214 C200.336,41.399 200.330,41.591 200.302,41.789 C200.279,41.945 200.282,42.161 200.285,42.389 C200.298,43.272 200.323,44.915 198.287,45.425 C198.006,45.496 197.461,46.142 197.127,46.959 C197.127,46.959 197.127,46.959 197.127,46.959 C196.616,48.210 195.832,48.622 195.265,48.748 C195.109,48.782 194.948,48.799 194.786,48.799 C194.092,48.799 193.360,48.491 192.750,47.928 C191.863,47.106 191.450,45.847 191.086,44.736 C191.012,44.510 190.939,44.286 190.863,44.069 C190.813,43.930 190.759,43.646 190.950,43.320 C191.207,42.880 192.047,42.252 192.678,42.126 C192.926,42.032 193.734,41.474 194.327,41.064 C195.326,40.375 196.269,39.724 196.888,39.499 C197.796,39.170 198.694,39.217 199.355,39.615 C199.386,39.455 199.443,39.291 199.526,39.126 C200.214,37.760 203.430,35.591 204.438,35.812 C204.728,35.875 205.250,36.116 205.494,37.021 C205.696,37.769 205.707,39.074 205.098,39.632 C204.049,40.592 202.623,41.442 201.348,41.442 ZM198.604,40.999 C198.427,40.854 198.011,40.761 197.424,40.975 C196.995,41.131 196.011,41.811 195.219,42.357 C193.925,43.250 193.396,43.595 192.980,43.667 C192.871,43.691 192.652,43.829 192.484,43.959 C192.515,44.055 192.547,44.150 192.578,44.247 C192.898,45.222 193.228,46.230 193.817,46.775 C194.180,47.110 194.615,47.285 194.925,47.215 C195.290,47.134 195.534,46.708 195.674,46.365 C195.819,46.010 196.607,44.227 197.905,43.902 C198.694,43.704 198.729,43.365 198.715,42.413 C198.711,42.133 198.707,41.843 198.748,41.562 C198.786,41.297 198.738,41.108 198.604,40.999 ZM203.987,37.449 C203.127,37.816 201.289,39.120 200.946,39.778 C201.615,40.112 202.963,39.439 203.990,38.517 C204.077,38.297 204.067,37.769 203.987,37.449 ZM155.947,51.139 C155.622,51.252 155.315,51.358 155.059,51.502 C154.877,51.604 154.664,51.811 154.457,52.012 C154.178,52.282 153.891,52.562 153.546,52.727 C153.388,52.803 153.224,52.841 153.064,52.841 C152.919,52.841 152.777,52.810 152.643,52.748 C152.472,52.668 152.260,52.506 152.112,52.188 C152.020,52.055 151.964,51.896 151.964,51.728 C151.964,51.554 151.999,51.418 152.050,51.307 C152.101,51.050 152.182,50.607 152.261,50.172 C152.513,48.793 152.857,46.903 153.145,45.760 C153.443,44.576 154.014,44.239 154.440,44.165 C155.042,44.063 155.616,44.409 156.144,45.199 C156.183,45.230 156.400,45.312 156.543,45.367 C156.811,45.470 157.116,45.586 157.388,45.793 C158.421,46.577 158.922,47.422 158.876,48.306 C158.832,49.176 158.265,49.948 157.193,50.600 C156.785,50.848 156.359,50.996 155.947,51.139 ZM156.439,47.043 C156.345,46.973 156.161,46.902 155.982,46.834 C155.602,46.689 155.130,46.508 154.838,46.071 C154.799,46.014 154.764,45.964 154.732,45.923 C154.711,45.985 154.689,46.058 154.667,46.143 C154.392,47.236 154.040,49.172 153.806,50.454 C153.804,50.462 153.803,50.471 153.801,50.480 C153.952,50.352 154.114,50.232 154.290,50.132 C154.668,49.921 155.056,49.786 155.432,49.655 C155.782,49.534 156.112,49.419 156.377,49.258 C156.962,48.903 157.292,48.536 157.308,48.225 C157.325,47.906 157.008,47.475 156.439,47.043 ZM152.592,47.089 C152.592,47.354 152.459,47.601 152.237,47.746 C151.561,48.189 150.815,48.412 150.065,48.412 C149.471,48.412 148.873,48.271 148.304,47.989 C146.988,47.334 146.061,46.006 145.805,44.450 L144.207,43.830 C143.983,43.743 143.811,43.557 143.741,43.327 C143.670,43.097 143.709,42.847 143.847,42.650 L144.549,41.639 C144.079,40.209 144.229,38.174 146.949,35.956 C147.240,35.719 147.658,35.720 147.946,35.959 L148.034,36.032 C149.207,37.003 150.536,38.104 149.966,40.351 C149.866,40.746 149.891,41.101 150.032,41.277 C150.195,41.481 150.570,41.517 150.855,41.507 C152.083,41.473 152.538,44.001 152.542,44.026 C152.664,44.729 152.639,45.418 152.614,46.149 C152.603,46.452 152.592,46.764 152.592,47.089 ZM150.995,44.294 C150.925,43.891 150.715,43.346 150.567,43.072 C149.616,43.017 149.087,42.610 148.806,42.258 C148.344,41.680 148.216,40.866 148.444,39.964 C148.717,38.887 148.354,38.375 147.454,37.596 C146.042,38.912 145.603,40.199 146.148,41.427 C146.260,41.678 146.232,41.969 146.076,42.194 L145.705,42.727 L146.814,43.157 C147.098,43.268 147.293,43.532 147.313,43.836 C147.396,45.053 148.044,46.105 149.003,46.582 C149.668,46.913 150.374,46.925 151.028,46.626 C151.032,46.445 151.039,46.268 151.044,46.093 C151.068,45.419 151.089,44.836 150.995,44.294 ZM121.473,55.925 C120.164,57.674 118.304,57.745 116.663,57.808 C116.196,57.826 115.754,57.842 115.339,57.896 C112.382,58.278 109.652,59.458 106.994,61.503 C106.540,61.852 106.093,62.216 105.647,62.580 C104.466,63.541 103.245,64.535 101.874,65.277 C99.223,66.712 98.894,68.848 99.221,71.831 C99.236,71.968 99.314,72.259 99.382,72.517 C99.606,73.359 99.754,73.915 99.419,74.350 C99.255,74.563 99.006,74.686 98.735,74.686 C98.463,74.686 98.154,74.686 96.412,72.783 C95.768,72.081 94.593,70.725 93.946,69.538 C93.749,69.176 93.149,68.073 93.677,67.256 C93.788,67.083 93.766,66.931 93.633,66.497 C93.507,66.091 93.336,65.534 93.646,64.975 C93.971,64.388 94.668,64.145 95.163,64.014 C95.535,63.915 95.991,63.497 96.263,63.247 C96.530,63.001 96.779,62.723 97.043,62.428 C97.385,62.045 97.740,61.649 98.160,61.300 C98.663,60.882 99.165,60.460 99.666,60.039 C101.600,58.412 103.600,56.731 105.715,55.259 C106.842,54.474 108.408,53.926 110.368,53.629 C110.698,53.580 111.027,53.512 111.375,53.440 C112.706,53.165 114.215,52.853 115.910,53.632 C116.168,53.752 116.988,53.411 117.531,53.186 C118.069,52.962 118.625,52.732 119.181,52.621 C119.277,52.601 119.359,52.561 119.473,52.506 C120.165,52.168 120.773,52.111 121.994,52.775 C122.617,53.114 122.949,53.537 122.978,54.035 C123.023,54.803 122.349,55.280 121.857,55.628 C121.725,55.722 121.524,55.863 121.473,55.925 ZM120.161,53.917 C120.002,53.995 119.783,54.101 119.489,54.160 C119.084,54.241 118.600,54.442 118.132,54.636 C117.150,55.043 116.135,55.463 115.255,55.059 C114.027,54.495 112.946,54.719 111.692,54.978 C111.339,55.051 110.974,55.126 110.602,55.182 C108.883,55.442 107.540,55.902 106.612,56.548 C104.555,57.979 102.584,59.637 100.677,61.240 C100.173,61.664 99.669,62.088 99.163,62.508 C98.832,62.783 98.532,63.119 98.214,63.475 C97.936,63.785 97.649,64.106 97.325,64.403 C96.812,64.874 96.254,65.349 95.565,65.532 C95.260,65.613 95.113,65.686 95.048,65.727 C95.064,65.810 95.104,65.940 95.133,66.034 C95.275,66.494 95.510,67.257 95.032,68.050 C95.034,68.693 96.452,70.499 97.639,71.804 C97.350,68.948 97.586,65.813 101.127,63.896 C102.368,63.225 103.479,62.320 104.655,61.362 C105.113,60.989 105.571,60.617 106.036,60.259 C108.920,58.040 111.897,56.758 115.138,56.339 C115.624,56.276 116.121,56.257 116.603,56.239 C118.080,56.182 119.355,56.134 120.218,54.980 C120.403,54.733 120.669,54.545 120.950,54.346 C121.029,54.290 121.133,54.217 121.227,54.145 C120.501,53.752 120.379,53.811 120.161,53.917 Z"/>
</svg>